{
.appVersion = "1361";
classes = (
{
automatic = 1;

glyphs = (
{
glyphname = A;
lastChange = "2022-04-20 15:03:41 +0000";
layers = (
{
anchors = (
{
name = bottom;
position = "{150, 0}";
},
{
name = ogonek;
position = "{316, 0}";
},
{
name = top;
position = "{233, 591}";
}
);
layerId = "9AA098C0-EDBC-463F-BC21-AFCD07A070D0";
paths = (
{
closed = 1;
nodes = (
"8 0 LINE",
"70 160 LINE",
"272 160 LINE",
"289 0 LINE",
"306 0 LINE",
"239 591 LINE",
"226 591 LINE",
"-9 0 LINE"
);
},
{
closed = 1;
nodes = (
"220 532 LINE",
"227 549 LINE",
"228 532 LINE",
"270 176 LINE",
"76 176 LINE"
);
}
);
width = 365;
}
);
leftKerningGroup = A;
note = A;
rightKerningGroup = A;
unicode = 0041;
},
{
glyphname = AE;
lastChange = "2022-04-20 13:36:45 +0000";
layers = (
{
anchors = (
{
name = bottom;
position = "{205, 0}";
},
{
name = top;
position = "{287, 591}";
}
);
layerId = "9AA098C0-EDBC-463F-BC21-AFCD07A070D0";
paths = (
{
closed = 1;
nodes = (
"-15 0 LINE",
"69 160 LINE",
"282 160 LINE",
"282 176 LINE",
"77 176 LINE",
"290 588 LINE",
"275 591 LINE",
"-33 0 LINE"
);
},
{
closed = 1;
nodes = (
"448 0 LINE",
"451 16 LINE",
"291 16 LINE",
"291 303 LINE",
"440 303 LINE",
"442 319 LINE",
"291 319 LINE",
"291 575 LINE",
"469 575 LINE",
"472 591 LINE",
"275 591 LINE",
"274 0 LINE"
);
}
);
width = 501;
}
);
leftKerningGroup = AE;
note = AE;
rightKerningGroup = AE;
unicode = 00C6;
},
{
glyphname = B;
lastChange = "2022-04-20 13:36:45 +0000";
layers = (
{
background = {
paths = (
{
closed = 1;
nodes = (
"196 0 LINE SMOOTH",
"275 0 OFFCURVE",
"320 22 OFFCURVE",
"333 120 CURVE SMOOTH",
"346 209 LINE SMOOTH",
"347 216 OFFCURVE",
"347 223 OFFCURVE",
"347 229 CURVE SMOOTH",
"347 278 OFFCURVE",
"320 312 OFFCURVE",
"267 312 CURVE",
"326 321 OFFCURVE",
"363 363 OFFCURVE",
"370 419 CURVE SMOOTH",
"381 494 LINE SMOOTH",
"382 501 OFFCURVE",
"383 507 OFFCURVE",
"383 513 CURVE SMOOTH",
"383 568 OFFCURVE",
"343 591 OFFCURVE",
"288 591 CURVE SMOOTH",
"127 591 LINE",
"44 0 LINE"
);
},
{
closed = 1;
nodes = (
"99 306 LINE",
"232 306 LINE SMOOTH",
"292 306 OFFCURVE",
"336 289 OFFCURVE",
"336 233 CURVE SMOOTH",
"336 227 OFFCURVE",
"336 221 OFFCURVE",
"335 214 CURVE SMOOTH",
"322 125 LINE SMOOTH",
"310 33 OFFCURVE",
"270 11 OFFCURVE",
"194 11 CURVE SMOOTH",
"57 11 LINE"
);
},
{
closed = 1;
nodes = (
"137 580 LINE",
"286 580 LINE SMOOTH",
"336 580 OFFCURVE",
"370 558 OFFCURVE",
"370 511 CURVE SMOOTH",
"370 506 OFFCURVE",
"370 501 OFFCURVE",
"369 496 CURVE SMOOTH",
"359 420 LINE SMOOTH",
"348 355 OFFCURVE",
"305 317 OFFCURVE",
"228 317 CURVE SMOOTH",
"100 317 LINE"
);
}
);
};
layerId = "9AA098C0-EDBC-463F-BC21-AFCD07A070D0";
paths = (
{
closed = 1;
nodes = (
"195 0 LINE SMOOTH",
"268 0 OFFCURVE",
"321 16 OFFCURVE",
"335 120 CURVE SMOOTH",
"348 209 LINE SMOOTH",
"349 216 OFFCURVE",
"349 222 OFFCURVE",
"349 228 CURVE SMOOTH",
"349 278 OFFCURVE",
"320 312 OFFCURVE",
"267 312 CURVE",
"325 321 OFFCURVE",
"364 363 OFFCURVE",
"372 419 CURVE SMOOTH",
"383 494 LINE SMOOTH",
"384 501 OFFCURVE",
"384 507 OFFCURVE",
"384 513 CURVE SMOOTH",
"384 571 OFFCURVE",
"343 591 OFFCURVE",
"288 591 CURVE SMOOTH",
"125 591 LINE",
"41 0 LINE"
);
},
{
closed = 1;
nodes = (
"100 303 LINE",
"231 303 LINE SMOOTH",
"290 303 OFFCURVE",
"334 287 OFFCURVE",
"334 230 CURVE SMOOTH",
"334 225 OFFCURVE",
"334 220 OFFCURVE",
"333 214 CURVE SMOOTH",
"320 125 LINE SMOOTH",
"307 31 OFFCURVE",
"265 16 OFFCURVE",
"195 16 CURVE SMOOTH",
"60 16 LINE"
);
},
{
closed = 1;
nodes = (
"138 575 LINE",
"285 575 LINE SMOOTH",
"334 575 OFFCURVE",
"368 552 OFFCURVE",
"368 509 CURVE SMOOTH",
"368 505 OFFCURVE",
"368 500 OFFCURVE",
"367 496 CURVE SMOOTH",
"356 420 LINE SMOOTH",
"348 357 OFFCURVE",
"303 319 OFFCURVE",
"228 319 CURVE SMOOTH",
"102 319 LINE"
);
}
);
userData = {
assembly = "PUSHW[ ]	/* 4 values pushed */\01219 4 13 4 \012CALL[ ]	/* CallFunction */\012PUSHW[ ]	/* 3 values pushed */\01233 13 19 \012SRP1[ ]	/* SetRefPoint1 */\012SRP2[ ]	/* SetRefPoint2 */\012IP[ ]	/* InterpolatePts */\012PUSHW[ ]	/* 1 value pushed */\01219 \012SRP0[ ]	/* SetRefPoint0 */\012PUSHW[ ]	/* 1 value pushed */\01246 \012MDRP[11100]	/* MoveDirectRelPt */\012IUP[0]	/* InterpolateUntPts */\012IUP[1]	/* InterpolateUntPts */";
};
width = 414;
}
);
leftKerningGroup = H;
leftMetricsKey = H;
note = B;
rightKerningGroup = B;
unicode = 0042;
},
{
glyphname = C;
lastChange = "2022-04-20 12:15:48 +0000";
layers = (
{
anchors = (
{
name = bottom;
position = "{167, -12}";
},
{
name = top;
position = "{253, 591}";
}
);
layerId = "9AA098C0-EDBC-463F-BC21-AFCD07A070D0";
paths = (
{
closed = 1;
nodes = (
"246 -12 OFFCURVE",
"306 2 OFFCURVE",
"322 118 CURVE SMOOTH",
"332 189 LINE",
"316 189 LINE",
"306 116 LINE SMOOTH",
"292 19 OFFCURVE",
"239 4 OFFCURVE",
"169 4 CURVE SMOOTH",
"111 4 OFFCURVE",
"63 16 OFFCURVE",
"63 87 CURVE SMOOTH",
"63 96 OFFCURVE",
"63 105 OFFCURVE",
"65 116 CURVE SMOOTH",
"114 467 LINE SMOOTH",
"128 566 OFFCURVE",
"176 583 OFFCURVE",
"251 583 CURVE SMOOTH",
"314 583 OFFCURVE",
"358 571 OFFCURVE",
"358 503 CURVE SMOOTH",
"358 494 OFFCURVE",
"358 484 OFFCURVE",
"356 473 CURVE SMOOTH",
"343 381 LINE",
"359 381 LINE",
"372 469 LINE SMOOTH",
"374 482 OFFCURVE",
"375 494 OFFCURVE",
"375 504 CURVE SMOOTH",
"375 586 OFFCURVE",
"322 599 OFFCURVE",
"254 599 CURVE SMOOTH",
"177 599 OFFCURVE",
"115 585 OFFCURVE",
"99 469 CURVE SMOOTH",
"49 118 LINE SMOOTH",
"47 105 OFFCURVE",
"46 93 OFFCURVE",
"46 83 CURVE SMOOTH",
"46 1 OFFCURVE",
"99 -12 OFFCURVE",
"166 -12 CURVE SMOOTH"
);
}
);
width = 408;
}
);
leftKerningGroup = O;
leftMetricsKey = O;
note = C;
rightKerningGroup = C;
rightMetricsKey = O;
unicode = 0043;
},
{
glyphname = D;
lastChange = "2022-04-20 12:15:48 +0000";
layers = (
{
anchors = (
{
name = bottom;
position = "{179, 0}";
},
{
name = center;
position = "{138, 296}";
},
{
name = top;
position = "{246, 591}";
}
);
layerId = "9AA098C0-EDBC-463F-BC21-AFCD07A070D0";
paths = (
{
closed = 1;
nodes = (
"197 0 LINE SMOOTH",
"273 0 OFFCURVE",
"326 25 OFFCURVE",
"341 130 CURVE SMOOTH",
"387 461 LINE SMOOTH",
"389 474 OFFCURVE",
"390 485 OFFCURVE",
"390 496 CURVE SMOOTH",
"390 572 OFFCURVE",
"343 591 OFFCURVE",
"281 591 CURVE SMOOTH",
"125 591 LINE",
"41 0 LINE"
);
},
{
closed = 1;
nodes = (
"138 576 LINE",
"278 576 LINE SMOOTH",
"338 576 OFFCURVE",
"373 554 OFFCURVE",
"373 489 CURVE SMOOTH",
"373 479 OFFCURVE",
"372 467 OFFCURVE",
"370 455 CURVE SMOOTH",
"325 135 LINE SMOOTH",
"312 39 OFFCURVE",
"268 16 OFFCURVE",
"200 16 CURVE SMOOTH",
"60 16 LINE"
);
}
);
width = 425;
}
);
leftKerningGroup = H;
leftMetricsKey = H;
note = D;
rightKerningGroup = O;
rightMetricsKey = O;
unicode = 0044;
},
{
glyphname = E;
lastChange = "2022-04-20 12:11:21 +0000";
layers = (
{
anchors = (
{
name = bottom;
position = "{160, 0}";
},
{
name = ogonek;
position = "{272, 0}";
},
{
name = top;
position = "{244, 591}";
},
{
name = topleft;
position = "{97, 591}";
}
);
background = {
paths = (
{
closed = 1;
nodes = (
"285 0 LINE",
"286 11 LINE",
"57 11 LINE",
"99 306 LINE",
"277 306 LINE",
"278 317 LINE",
"100 317 LINE",
"137 580 LINE",
"366 580 LINE",
"368 591 LINE",
"127 591 LINE",
"44 0 LINE"
);
}
);
};
layerId = "9AA098C0-EDBC-463F-BC21-AFCD07A070D0";
paths = (
{
closed = 1;
nodes = (
"286 0 LINE",
"289 16 LINE",
"60 16 LINE",
"100 303 LINE",
"278 303 LINE",
"280 319 LINE",
"102 319 LINE",
"138 575 LINE",
"367 575 LINE",
"370 591 LINE",
"125 591 LINE",
"41 0 LINE"
);
}
);
width = 347;
}
);
leftKerningGroup = H;
leftMetricsKey = H;
note = E;
rightKerningGroup = E;
unicode = 0045;
},
{
glyphname = F;
lastChange = "2022-04-20 12:11:30 +0000";
layers = (
{
background = {
paths = (
{
closed = 1;
nodes = (
"58 0 LINE",
"101 306 LINE",
"279 306 LINE",
"280 317 LINE",
"102 317 LINE",
"139 580 LINE",
"368 580 LINE",
"370 591 LINE",
"129 591 LINE",
"46 0 LINE"
);
}
);
};
layerId = "9AA098C0-EDBC-463F-BC21-AFCD07A070D0";
paths = (
{
closed = 1;
nodes = (
"57 0 LINE",
"100 303 LINE",
"278 303 LINE",
"280 319 LINE",
"102 319 LINE",
"138 575 LINE",
"367 575 LINE",
"370 591 LINE",
"125 591 LINE",
"41 0 LINE"
);
}
);
userData = {
assembly = "SVTCA[0]	/* SetFreedomAndProjectionVectorToAxis */\012PUSHW[ ]	/* 1 value pushed */\0120 \012RCVT[ ]	/* ReadCVT */\012IF[ ]	/* If */\012PUSHW[ ]	/* 1 value pushed */\0128 \012MDAP[1]	/* MoveDirectAbsPt */\012ELSE[ ]	/* Else */\012PUSHW[ ]	/* 2 values pushed */\0128 5 \012MIAP[0]	/* MoveIndirectAbsPt */\012EIF[ ]	/* EndIf */\012IUP[0]	/* InterpolateUntPts */\012IUP[1]	/* InterpolateUntPts */";
};
width = 340;
}
);
leftKerningGroup = H;
leftMetricsKey = H;
note = F;
rightKerningGroup = F;
unicode = 0046;
},
{
glyphname = G;
lastChange = "2022-04-20 12:15:48 +0000";
layers = (
{
anchors = (
{
name = bottom;
position = "{170, -10}";
},
{
name = top;
position = "{253, 591}";
}
);
layerId = "9AA098C0-EDBC-463F-BC21-AFCD07A070D0";
paths = (
{
closed = 1;
nodes = (
"231 -12 OFFCURVE",
"287 27 OFFCURVE",
"303 63 CURVE",
"294 0 LINE",
"310 0 LINE",
"348 271 LINE",
"225 271 LINE",
"223 256 LINE",
"330 256 LINE",
"311 125 LINE SMOOTH",
"301 49 OFFCURVE",
"241 4 OFFCURVE",
"173 4 CURVE SMOOTH",
"112 4 OFFCURVE",
"63 15 OFFCURVE",
"63 92 CURVE SMOOTH",
"63 102 OFFCURVE",
"64 113 OFFCURVE",
"66 125 CURVE SMOOTH",
"115 468 LINE SMOOTH",
"128 566 OFFCURVE",
"178 583 OFFCURVE",
"255 583 CURVE SMOOTH",
"323 583 OFFCURVE",
"362 570 OFFCURVE",
"362 501 CURVE SMOOTH",
"362 491 OFFCURVE",
"362 480 OFFCURVE",
"360 468 CURVE SMOOTH",
"350 401 LINE",
"366 401 LINE",
"376 469 LINE SMOOTH",
"378 483 OFFCURVE",
"379 495 OFFCURVE",
"379 506 CURVE SMOOTH",
"379 587 OFFCURVE",
"329 599 OFFCURVE",
"259 599 CURVE SMOOTH",
"180 599 OFFCURVE",
"115 585 OFFCURVE",
"99 469 CURVE SMOOTH",
"49 118 LINE SMOOTH",
"47 106 OFFCURVE",
"46 94 OFFCURVE",
"46 84 CURVE SMOOTH",
"46 1 OFFCURVE",
"102 -12 OFFCURVE",
"170 -12 CURVE SMOOTH"
);
}
);
userData = {
assembly = "SVTCA[0]	/* SetFreedomAndProjectionVectorToAxis */\012PUSHW[ ]	/* 1 value pushed */\0120 \012RCVT[ ]	/* ReadCVT */\012IF[ ]	/* If */\012PUSHW[ ]	/* 1 value pushed */\01238 \012MDAP[1]	/* MoveDirectAbsPt */\012ELSE[ ]	/* Else */\012PUSHW[ ]	/* 2 values pushed */\01238 5 \012MIAP[0]	/* MoveIndirectAbsPt */\012EIF[ ]	/* EndIf */\012PUSHW[ ]	/* 1 value pushed */\0120 \012RCVT[ ]	/* ReadCVT */\012IF[ ]	/* If */\012PUSHW[ ]	/* 1 value pushed */\01248 \012MDAP[1]	/* MoveDirectAbsPt */\012ELSE[ ]	/* Else */\012PUSHW[ ]	/* 2 values pushed */\01248 5 \012MIAP[0]	/* MoveIndirectAbsPt */\012EIF[ ]	/* EndIf */\012IUP[0]	/* InterpolateUntPts */\012IUP[1]	/* InterpolateUntPts */";
};
width = 410;
}
);
leftKerningGroup = O;
leftMetricsKey = O;
note = G;
rightKerningGroup = G;
rightMetricsKey = "=O-2";
unicode = 0047;
},
{
glyphname = H;
lastChange = "2022-04-20 12:11:03 +0000";
layers = (
{
anchors = (
{
name = bottom;
position = "{180, 0}";
},
{
name = center;
position = "{222, 296}";
},
{
name = top;
position = "{263, 591}";
},
{
name = topleft;
position = "{96, 591}";
}
);
layerId = "9AA098C0-EDBC-463F-BC21-AFCD07A070D0";
paths = (
{
closed = 1;
nodes = (
"57 0 LINE",
"100 302 LINE",
"349 302 LINE",
"306 0 LINE",
"322 0 LINE",
"406 591 LINE",
"390 591 LINE",
"351 318 LINE",
"102 318 LINE",
"141 591 LINE",
"125 591 LINE",
"41 0 LINE"
);
}
);
userData = {
assembly = "SVTCA[0]	/* SetFreedomAndProjectionVectorToAxis */\012PUSHW[ ]	/* 1 value pushed */\0120 \012RCVT[ ]	/* ReadCVT */\012IF[ ]	/* If */\012PUSHW[ ]	/* 1 value pushed */\0120 \012MDAP[1]	/* MoveDirectAbsPt */\012ELSE[ ]	/* Else */\012PUSHW[ ]	/* 2 values pushed */\0120 5 \012MIAP[0]	/* MoveIndirectAbsPt */\012EIF[ ]	/* EndIf */\012PUSHW[ ]	/* 1 value pushed */\0120 \012RCVT[ ]	/* ReadCVT */\012IF[ ]	/* If */\012PUSHW[ ]	/* 1 value pushed */\0124 \012MDAP[1]	/* MoveDirectAbsPt */\012ELSE[ ]	/* Else */\012PUSHW[ ]	/* 2 values pushed */\0124 5 \012MIAP[0]	/* MoveIndirectAbsPt */\012EIF[ ]	/* EndIf */\012IUP[0]	/* InterpolateUntPts */\012IUP[1]	/* InterpolateUntPts */";
};
width = 434;
}
);
leftKerningGroup = H;
note = H;
rightKerningGroup = H;
unicode = 0048;
},
{
glyphname = I;
lastChange = "2022-04-20 12:11:06 +0000";
layers = (
{
anchors = (
{
name = bottom;
position = "{51, 0}";
},
{
name = ogonek;
position = "{68, 0}";
},
{
name = top;
position = "{134, 591}";
},
{
name = topleft;
position = "{98, 591}";
}
);
layerId = "9AA098C0-EDBC-463F-BC21-AFCD07A070D0";
paths = (
{
closed = 1;
nodes = (
"57 0 LINE",
"141 591 LINE",
"125 591 LINE",
"41 0 LINE"
);
}
);
userData = {
assembly = "SVTCA[0]	/* SetFreedomAndProjectionVectorToAxis */\012PUSHW[ ]	/* 1 value pushed */\0120 \012RCVT[ ]	/* ReadCVT */\012IF[ ]	/* If */\012PUSHW[ ]	/* 1 value pushed */\0120 \012MDAP[1]	/* MoveDirectAbsPt */\012ELSE[ ]	/* Else */\012PUSHW[ ]	/* 2 values pushed */\0120 5 \012MIAP[0]	/* MoveIndirectAbsPt */\012EIF[ ]	/* EndIf */\012IUP[0]	/* InterpolateUntPts */\012IUP[1]	/* InterpolateUntPts */";
};
width = 169;
}
);
leftKerningGroup = H;
leftMetricsKey = H;
note = I;
rightKerningGroup = H;
rightMetricsKey = H;
unicode = 0049;
},
{
glyphname = J;
lastChange = "2022-04-20 14:59:43 +0000";
layers = (
{
anchors = (
{
name = bottom;
position = "{57, 0}";
},
{
name = top;
position = "{160, 591}";
}
);
layerId = "9AA098C0-EDBC-463F-BC21-AFCD07A070D0";
paths = (
{
closed = 1;
nodes = (
"-15 0 LINE SMOOTH",
"20 0 OFFCURVE",
"45 4 OFFCURVE",
"62 15 CURVE SMOOTH",
"89 32 OFFCURVE",
"94 57 OFFCURVE",
"103 117 CURVE SMOOTH",
"170 591 LINE",
"154 591 LINE",
"83 92 LINE SMOOTH",
"79 62 OFFCURVE",
"69 36 OFFCURVE",
"52 26 CURVE SMOOTH",
"38 17 OFFCURVE",
"18 16 OFFCURVE",
"-9 16 CURVE SMOOTH",
"-32 16 LINE",
"-35 0 LINE"
);
}
);
width = 198;
}
);
leftKerningGroup = J;
note = J;
rightKerningGroup = J;
rightMetricsKey = H;
unicode = 004A;
},
{
glyphname = K;
lastChange = "2022-04-20 12:12:05 +0000";
layers = (
{
anchors = (
{
name = bottom;
position = "{139, 0}";
},
{
name = top;
position = "{222, 591}";
}
);
layerId = "9AA098C0-EDBC-463F-BC21-AFCD07A070D0";
paths = (
{
closed = 1;
nodes = (
"288 0 LINE",
"146 306 LINE",
"368 591 LINE",
"349 591 LINE",
"128 306 LINE",
"269 0 LINE"
);
},
{
closed = 1;
nodes = (
"57 0 LINE",
"141 591 LINE",
"125 591 LINE",
"41 0 LINE"
);
}
);
userData = {
assembly = "SVTCA[0]	/* SetFreedomAndProjectionVectorToAxis */\012PUSHW[ ]	/* 1 value pushed */\0120 \012RCVT[ ]	/* ReadCVT */\012IF[ ]	/* If */\012PUSHW[ ]	/* 1 value pushed */\0124 \012MDAP[1]	/* MoveDirectAbsPt */\012ELSE[ ]	/* Else */\012PUSHW[ ]	/* 2 values pushed */\0124 5 \012MIAP[0]	/* MoveIndirectAbsPt */\012EIF[ ]	/* EndIf */\012PUSHW[ ]	/* 1 value pushed */\0120 \012RCVT[ ]	/* ReadCVT */\012IF[ ]	/* If */\012PUSHW[ ]	/* 1 value pushed */\0126 \012MDAP[1]	/* MoveDirectAbsPt */\012ELSE[ ]	/* Else */\012PUSHW[ ]	/* 2 values pushed */\0126 5 \012MIAP[0]	/* MoveIndirectAbsPt */\012EIF[ ]	/* EndIf */\012IUP[0]	/* InterpolateUntPts */\012IUP[1]	/* InterpolateUntPts */";
};
width = 334;
}
);
leftKerningGroup = H;
leftMetricsKey = H;
note = K;
rightKerningGroup = K;
unicode = 004B;
},
{
glyphname = L;
lastChange = "2022-04-20 12:12:24 +0000";
layers = (
{
anchors = (
{
name = bottom;
position = "{145, 0}";
},
{
name = center;
position = "{169, 296}";
},
{
name = top;
position = "{139, 591}";
},
{
name = topright;
position = "{238, 481}";
}
);
layerId = "9AA098C0-EDBC-463F-BC21-AFCD07A070D0";
paths = (
{
closed = 1;
nodes = (
"255 0 LINE",
"258 16 LINE",
"60 16 LINE",
"141 591 LINE",
"125 591 LINE",
"41 0 LINE"
);
}
);
width = 293;
}
);
leftKerningGroup = H;
leftMetricsKey = H;
note = L;
rightKerningGroup = L;
unicode = 004C;
},
{
glyphname = Lslash;
lastChange = "2022-04-20 12:15:48 +0000";
layers = (
{
layerId = "9AA098C0-EDBC-463F-BC21-AFCD07A070D0";
paths = (
{
closed = 1;
nodes = (
"255 0 LINE",
"258 16 LINE",
"60 16 LINE",
"81 163 LINE",
"167 201 LINE",
"169 218 LINE",
"83 181 LINE",
"141 591 LINE",
"125 591 LINE",
"66 173 LINE",
"-4 143 LINE",
"-7 125 LINE",
"63 156 LINE",
"41 0 LINE"
);
}
);
userData = {
assembly = "PUSHW[ ]	/* 4 values pushed */\0122 4 12 4 \012CALL[ ]	/* CallFunction */\012IUP[0]	/* InterpolateUntPts */\012IUP[1]	/* InterpolateUntPts */";
};
width = 293;
}
);
leftKerningGroup = H;
widthMetricsKey = L;
note = Lslash;
rightKerningGroup = L;
rightMetricsKey = L;
unicode = 0141;
},
{
glyphname = M;
lastChange = "2022-04-20 12:12:27 +0000";
layers = (
{
layerId = "9AA098C0-EDBC-463F-BC21-AFCD07A070D0";
paths = (
{
closed = 1;
nodes = (
"57 0 LINE",
"133 537 LINE",
"221 0 LINE",
"235 0 LINE",
"475 537 LINE",
"399 0 LINE",
"415 0 LINE",
"499 591 LINE",
"483 591 LINE",
"233 32 LINE",
"142 591 LINE",
"125 591 LINE",
"41 0 LINE"
);
}
);
userData = {
assembly = "SVTCA[0]	/* SetFreedomAndProjectionVectorToAxis */\012PUSHW[ ]	/* 1 value pushed */\0120 \012RCVT[ ]	/* ReadCVT */\012IF[ ]	/* If */\012PUSHW[ ]	/* 1 value pushed */\0120 \012MDAP[1]	/* MoveDirectAbsPt */\012ELSE[ ]	/* Else */\012PUSHW[ ]	/* 2 values pushed */\0120 5 \012MIAP[0]	/* MoveIndirectAbsPt */\012EIF[ ]	/* EndIf */\012PUSHW[ ]	/* 1 value pushed */\0120 \012RCVT[ ]	/* ReadCVT */\012IF[ ]	/* If */\012PUSHW[ ]	/* 1 value pushed */\0125 \012MDAP[1]	/* MoveDirectAbsPt */\012ELSE[ ]	/* Else */\012PUSHW[ ]	/* 2 values pushed */\0125 5 \012MIAP[0]	/* MoveIndirectAbsPt */\012EIF[ ]	/* EndIf */\012PUSHW[ ]	/* 1 value pushed */\0120 \012RCVT[ ]	/* ReadCVT */\012IF[ ]	/* If */\012PUSHW[ ]	/* 1 value pushed */\0128 \012MDAP[1]	/* MoveDirectAbsPt */\012ELSE[ ]	/* Else */\012PUSHW[ ]	/* 2 values pushed */\0128 5 \012MIAP[0]	/* MoveIndirectAbsPt */\012EIF[ ]	/* EndIf */\012IUP[0]	/* InterpolateUntPts */\012IUP[1]	/* InterpolateUntPts */";
};
width = 527;
}
);
leftKerningGroup = H;
leftMetricsKey = H;
note = M;
rightKerningGroup = H;
rightMetricsKey = H;
unicode = 004D;
},
{
glyphname = N;
lastChange = "2022-04-20 12:12:29 +0000";
layers = (
{
anchors = (
{
name = bottom;
position = "{182, 0}";
},
{
name = top;
position = "{265, 591}";
}
);
layerId = "9AA098C0-EDBC-463F-BC21-AFCD07A070D0";
paths = (
{
closed = 1;
nodes = (
"57 0 LINE",
"137 565 LINE",
"302 0 LINE",
"322 0 LINE",
"406 591 LINE",
"391 591 LINE",
"312 29 LINE",
"147 591 LINE",
"125 591 LINE",
"41 0 LINE"
);
}
);
userData = {
assembly = "SVTCA[0]	/* SetFreedomAndProjectionVectorToAxis */\012PUSHW[ ]	/* 1 value pushed */\0120 \012RCVT[ ]	/* ReadCVT */\012IF[ ]	/* If */\012PUSHW[ ]	/* 1 value pushed */\0123 \012MDAP[1]	/* MoveDirectAbsPt */\012ELSE[ ]	/* Else */\012PUSHW[ ]	/* 2 values pushed */\0123 5 \012MIAP[0]	/* MoveIndirectAbsPt */\012EIF[ ]	/* EndIf */\012PUSHW[ ]	/* 1 value pushed */\0120 \012RCVT[ ]	/* ReadCVT */\012IF[ ]	/* If */\012PUSHW[ ]	/* 1 value pushed */\0126 \012MDAP[1]	/* MoveDirectAbsPt */\012ELSE[ ]	/* Else */\012PUSHW[ ]	/* 2 values pushed */\0126 5 \012MIAP[0]	/* MoveIndirectAbsPt */\012EIF[ ]	/* EndIf */\012IUP[0]	/* InterpolateUntPts */\012IUP[1]	/* InterpolateUntPts */";
};
width = 434;
}
);
leftKerningGroup = H;
leftMetricsKey = H;
note = N;
rightKerningGroup = H;
rightMetricsKey = H;
unicode = 004E;
},
{
glyphname = Eng;
lastChange = "2022-04-20 12:15:48 +0000";
layers = (
{
layerId = "9AA098C0-EDBC-463F-BC21-AFCD07A070D0";
paths = (
{
closed = 1;
nodes = (
"322 0 LINE",
"405 591 LINE",
"390 591 LINE",
"311 29 LINE",
"146 591 LINE",
"124 591 LINE",
"41 0 LINE",
"57 0 LINE",
"136 565 LINE",
"308 -23 LINE"
);
},
{
closed = 1;
nodes = (
"263 -245 OFFCURVE",
"291 -215 OFFCURVE",
"299 -162 CURVE SMOOTH",
"322 0 LINE",
"306 0 LINE",
"283 -161 LINE SMOOTH",
"278 -197 OFFCURVE",
"260 -230 OFFCURVE",
"217 -230 CURVE SMOOTH",
"198 -230 OFFCURVE",
"182 -228 OFFCURVE",
"168 -226 CURVE",
"166 -242 LINE",
"165 -242 OFFCURVE",
"189 -245 OFFCURVE",
"214 -245 CURVE SMOOTH"
);
}
);
userData = {
assembly = "SVTCA[0]	/* SetFreedomAndProjectionVectorToAxis */\012PUSHW[ ]	/* 1 value pushed */\0120 \012RCVT[ ]	/* ReadCVT */\012IF[ ]	/* If */\012PUSHW[ ]	/* 1 value pushed */\0127 \012MDAP[1]	/* MoveDirectAbsPt */\012ELSE[ ]	/* Else */\012PUSHW[ ]	/* 2 values pushed */\0127 5 \012MIAP[0]	/* MoveIndirectAbsPt */\012EIF[ ]	/* EndIf */\012IUP[0]	/* InterpolateUntPts */\012IUP[1]	/* InterpolateUntPts */";
};
width = 433;
}
);
leftKerningGroup = H;
leftMetricsKey = N;
note = Eng;
rightKerningGroup = H;
rightMetricsKey = N;
unicode = 014A;
},
{
glyphname = O;
lastChange = "2022-04-20 12:12:48 +0000";
layers = (
{
anchors = (
{
name = bottom;
position = "{173, 0}";
},
{
name = center;
position = "{215, 296}";
},
{
name = ogonek;
position = "{190, -9}";
},
{
name = top;
position = "{256, 591}";
},
{
name = topleft;
position = "{95, 591}";
},
{
name = topright;
position = "{314, 591}";
}
);
layerId = "9AA098C0-EDBC-463F-BC21-AFCD07A070D0";
paths = (
{
closed = 1;
nodes = (
"250 -12 OFFCURVE",
"314 2 OFFCURVE",
"330 118 CURVE SMOOTH",
"380 469 LINE SMOOTH",
"382 481 OFFCURVE",
"383 493 OFFCURVE",
"383 503 CURVE SMOOTH",
"383 586 OFFCURVE",
"327 599 OFFCURVE",
"258 599 CURVE SMOOTH",
"181 599 OFFCURVE",
"115 585 OFFCURVE",
"99 469 CURVE SMOOTH",
"49 118 LINE SMOOTH",
"47 106 OFFCURVE",
"46 94 OFFCURVE",
"46 84 CURVE SMOOTH",
"46 1 OFFCURVE",
"102 -12 OFFCURVE",
"170 -12 CURVE SMOOTH"
);
},
{
closed = 1;
nodes = (
"112 4 OFFCURVE",
"63 14 OFFCURVE",
"63 89 CURVE SMOOTH",
"63 98 OFFCURVE",
"64 109 OFFCURVE",
"66 121 CURVE SMOOTH",
"114 466 LINE SMOOTH",
"129 570 OFFCURVE",
"186 583 OFFCURVE",
"255 583 CURVE SMOOTH",
"315 583 OFFCURVE",
"365 573 OFFCURVE",
"365 498 CURVE SMOOTH",
"365 488 OFFCURVE",
"365 478 OFFCURVE",
"363 466 CURVE SMOOTH",
"315 121 LINE SMOOTH",
"300 17 OFFCURVE",
"243 4 OFFCURVE",
"173 4 CURVE SMOOTH"
);
}
);
width = 416;
}
);
leftKerningGroup = O;
note = O;
rightKerningGroup = O;
unicode = 004F;
},
{
glyphname = Oslash;
lastChange = "2022-04-20 10:57:09 +0000";
layers = (
{
anchors = (
{
name = bottom;
position = "{170, 0}";
},
{
name = center;
position = "{229, 296}";
},
{
name = ogonek;
position = "{204, -9}";
},
{
name = top;
position = "{243, 591}";
},
{
name = topleft;
position = "{109, 591}";
},
{
name = topright;
position = "{328, 591}";
}
);
layerId = "9AA098C0-EDBC-463F-BC21-AFCD07A070D0";
paths = (
{
closed = 1;
nodes = (
"5 -56 LINE",
"67 40 LINE",
"84 -4 OFFCURVE",
"131 -12 OFFCURVE",
"184 -12 CURVE SMOOTH",
"264 -12 OFFCURVE",
"328 2 OFFCURVE",
"344 118 CURVE SMOOTH",
"394 469 LINE SMOOTH",
"396 482 OFFCURVE",
"396 493 OFFCURVE",
"396 503 CURVE SMOOTH",
"396 517 OFFCURVE",
"395 530 OFFCURVE",
"392 540 CURVE",
"444 621 LINE",
"427 621 LINE",
"385 556 LINE",
"365 592 OFFCURVE",
"322 599 OFFCURVE",
"272 599 CURVE SMOOTH",
"195 599 OFFCURVE",
"129 585 OFFCURVE",
"113 469 CURVE SMOOTH",
"63 118 LINE SMOOTH",
"61 105 OFFCURVE",
"61 94 OFFCURVE",
"61 83 CURVE SMOOTH",
"61 75 OFFCURVE",
"61 67 OFFCURVE",
"62 60 CURVE",
"-13 -56 LINE"
);
},
{
closed = 1;
nodes = (
"135 4 OFFCURVE",
"92 11 OFFCURVE",
"80 60 CURVE",
"378 519 LINE",
"379 513 OFFCURVE",
"379 506 OFFCURVE",
"379 498 CURVE SMOOTH",
"379 488 OFFCURVE",
"379 478 OFFCURVE",
"377 466 CURVE SMOOTH",
"329 121 LINE SMOOTH",
"314 17 OFFCURVE",
"257 4 OFFCURVE",
"187 4 CURVE SMOOTH"
);
},
{
closed = 1;
nodes = (
"77 94 OFFCURVE",
"78 107 OFFCURVE",
"80 121 CURVE SMOOTH",
"128 466 LINE SMOOTH",
"143 570 OFFCURVE",
"200 583 OFFCURVE",
"269 583 CURVE SMOOTH",
"316 583 OFFCURVE",
"357 577 OFFCURVE",
"373 538 CURVE",
"78 83 LINE"
);
}
);
width = 415;
}
);
leftKerningGroup = O;
note = Oslash;
rightKerningGroup = O;
unicode = 00D8;
},
{
glyphname = OE;
lastChange = "2022-04-20 12:12:55 +0000";
layers = (
{
anchors = (
{
name = bottom;
position = "{420, 0}";
},
{
name = center;
position = "{214, 296}";
},
{
name = ogonek;
position = "{524, 0}";
},
{
name = top;
position = "{503, 591}";
},
{
name = topleft;
position = "{352, 591}";
},
{
name = topright;
position = "{310, 591}";
}
);
layerId = "9AA098C0-EDBC-463F-BC21-AFCD07A070D0";
paths = (
{
closed = 1;
nodes = (
"226 -12 OFFCURVE",
"274 -5 OFFCURVE",
"303 38 CURVE",
"298 0 LINE",
"543 0 LINE",
"545 16 LINE",
"316 16 LINE",
"356 303 LINE",
"534 303 LINE",
"537 319 LINE",
"359 319 LINE",
"395 575 LINE",
"624 575 LINE",
"626 591 LINE",
"381 591 LINE",
"375 548 LINE",
"358 591 OFFCURVE",
"312 599 OFFCURVE",
"258 599 CURVE SMOOTH",
"181 599 OFFCURVE",
"115 585 OFFCURVE",
"99 469 CURVE SMOOTH",
"49 118 LINE SMOOTH",
"47 106 OFFCURVE",
"46 94 OFFCURVE",
"46 84 CURVE SMOOTH",
"46 1 OFFCURVE",
"102 -12 OFFCURVE",
"170 -12 CURVE SMOOTH"
);
},
{
closed = 1;
nodes = (
"112 4 OFFCURVE",
"63 14 OFFCURVE",
"63 89 CURVE SMOOTH",
"63 98 OFFCURVE",
"64 109 OFFCURVE",
"66 121 CURVE SMOOTH",
"114 466 LINE SMOOTH",
"129 570 OFFCURVE",
"186 583 OFFCURVE",
"255 583 CURVE SMOOTH",
"315 583 OFFCURVE",
"365 573 OFFCURVE",
"365 498 CURVE SMOOTH",
"365 488 OFFCURVE",
"365 478 OFFCURVE",
"363 466 CURVE SMOOTH",
"315 121 LINE SMOOTH",
"300 17 OFFCURVE",
"243 4 OFFCURVE",
"173 4 CURVE SMOOTH"
);
}
);
width = 603;
}
);
leftKerningGroup = O;
leftMetricsKey = O;
note = OE;
rightKerningGroup = E;
rightMetricsKey = E;
unicode = 0152;
},
{
glyphname = P;
lastChange = "2022-04-20 10:56:50 +0000";
layers = (
{
layerId = "9AA098C0-EDBC-463F-BC21-AFCD07A070D0";
paths = (
{
closed = 1;
nodes = (
"57 0 LINE",
"96 271 LINE",
"207 271 LINE SMOOTH",
"329 271 OFFCURVE",
"361 313 OFFCURVE",
"376 418 CURVE SMOOTH",
"387 494 LINE SMOOTH",
"388 502 OFFCURVE",
"389 509 OFFCURVE",
"389 515 CURVE SMOOTH",
"389 573 OFFCURVE",
"349 591 OFFCURVE",
"277 591 CURVE SMOOTH",
"125 591 LINE",
"41 0 LINE"
);
},
{
closed = 1;
nodes = (
"138 575 LINE",
"273 575 LINE SMOOTH",
"344 575 OFFCURVE",
"371 558 OFFCURVE",
"371 505 CURVE SMOOTH",
"371 495 OFFCURVE",
"370 484 OFFCURVE",
"368 471 CURVE SMOOTH",
"360 417 LINE SMOOTH",
"346 320 OFFCURVE",
"318 287 OFFCURVE",
"209 287 CURVE SMOOTH",
"98 287 LINE"
);
}
);
userData = {
assembly = "SVTCA[0]	/* SetFreedomAndProjectionVectorToAxis */\012PUSHW[ ]	/* 1 value pushed */\0120 \012RCVT[ ]	/* ReadCVT */\012IF[ ]	/* If */\012PUSHW[ ]	/* 1 value pushed */\0121 \012MDAP[1]	/* MoveDirectAbsPt */\012ELSE[ ]	/* Else */\012PUSHW[ ]	/* 2 values pushed */\0121 5 \012MIAP[0]	/* MoveIndirectAbsPt */\012EIF[ ]	/* EndIf */\012IUP[0]	/* InterpolateUntPts */\012IUP[1]	/* InterpolateUntPts */";
};
width = 387;
}
);
leftKerningGroup = H;
leftMetricsKey = H;
note = P;
rightKerningGroup = P;
unicode = 0050;
},
{
glyphname = Thorn;
lastChange = "2022-04-20 13:36:45 +0000";
layers = (
{
layerId = "9AA098C0-EDBC-463F-BC21-AFCD07A070D0";
paths = (
{
closed = 1;
nodes = (
"57 0 LINE",
"79 151 LINE",
"213 151 LINE SMOOTH",
"307 151 OFFCURVE",
"341 211 OFFCURVE",
"349 270 CURVE SMOOTH",
"364 374 LINE SMOOTH",
"365 381 OFFCURVE",
"365 387 OFFCURVE",
"365 393 CURVE SMOOTH",
"365 450 OFFCURVE",
"324 471 OFFCURVE",
"272 471 CURVE SMOOTH",
"124 471 LINE",
"141 591 LINE",
"125 591 LINE",
"41 0 LINE"
);
},
{
closed = 1;
nodes = (
"121 455 LINE",
"273 455 LINE SMOOTH",
"314 455 OFFCURVE",
"349 433 OFFCURVE",
"349 386 CURVE SMOOTH",
"349 381 OFFCURVE",
"349 376 OFFCURVE",
"348 371 CURVE SMOOTH",
"333 270 LINE SMOOTH",
"324 202 OFFCURVE",
"276 167 OFFCURVE",
"211 167 CURVE SMOOTH",
"81 167 LINE"
);
}
);
userData = {
assembly = "SVTCA[0]	/* SetFreedomAndProjectionVectorToAxis */\012PUSHW[ ]	/* 1 value pushed */\0120 \012RCVT[ ]	/* ReadCVT */\012IF[ ]	/* If */\012PUSHW[ ]	/* 1 value pushed */\0121 \012MDAP[1]	/* MoveDirectAbsPt */\012ELSE[ ]	/* Else */\012PUSHW[ ]	/* 2 values pushed */\0121 5 \012MIAP[0]	/* MoveIndirectAbsPt */\012EIF[ ]	/* EndIf */\012IUP[0]	/* InterpolateUntPts */\012IUP[1]	/* InterpolateUntPts */";
};
width = 383;
}
);
leftKerningGroup = H;
leftMetricsKey = H;
note = Thorn;
rightKerningGroup = Thorn;
unicode = 00DE;
},
{
glyphname = Q;
lastChange = "2022-04-20 12:13:11 +0000";
layers = (
{
layerId = "9AA098C0-EDBC-463F-BC21-AFCD07A070D0";
paths = (
{
closed = 1;
nodes = (
"281 -101 LINE",
"240 -5 LINE",
"286 7 OFFCURVE",
"319 38 OFFCURVE",
"330 118 CURVE SMOOTH",
"380 469 LINE SMOOTH",
"382 481 OFFCURVE",
"383 493 OFFCURVE",
"383 503 CURVE SMOOTH",
"383 586 OFFCURVE",
"327 599 OFFCURVE",
"258 599 CURVE SMOOTH",
"181 599 OFFCURVE",
"115 585 OFFCURVE",
"99 469 CURVE SMOOTH",
"49 118 LINE SMOOTH",
"47 106 OFFCURVE",
"46 94 OFFCURVE",
"46 84 CURVE SMOOTH",
"46 1 OFFCURVE",
"102 -12 OFFCURVE",
"170 -12 CURVE SMOOTH",
"189 -12 OFFCURVE",
"206 -11 OFFCURVE",
"222 -9 CURVE",
"267 -110 LINE"
);
},
{
closed = 1;
nodes = (
"112 4 OFFCURVE",
"63 14 OFFCURVE",
"63 89 CURVE SMOOTH",
"63 98 OFFCURVE",
"64 109 OFFCURVE",
"66 121 CURVE SMOOTH",
"114 466 LINE SMOOTH",
"129 570 OFFCURVE",
"186 583 OFFCURVE",
"255 583 CURVE SMOOTH",
"315 583 OFFCURVE",
"365 573 OFFCURVE",
"365 498 CURVE SMOOTH",
"365 488 OFFCURVE",
"365 478 OFFCURVE",
"363 466 CURVE SMOOTH",
"315 121 LINE SMOOTH",
"300 17 OFFCURVE",
"243 4 OFFCURVE",
"173 4 CURVE SMOOTH"
);
}
);
userData = {
assembly = "PUSHW[ ]	/* 4 values pushed */\01225 4 6 4 \012CALL[ ]	/* CallFunction */\012PUSHW[ ]	/* 1 value pushed */\01225 \012SRP0[ ]	/* SetRefPoint0 */\012PUSHW[ ]	/* 1 value pushed */\01249 \012MDRP[11100]	/* MoveDirectRelPt */\012SVTCA[0]	/* SetFreedomAndProjectionVectorToAxis */\012PUSHW[ ]	/* 1 value pushed */\0120 \012RCVT[ ]	/* ReadCVT */\012IF[ ]	/* If */\012PUSHW[ ]	/* 1 value pushed */\0123 \012MDAP[1]	/* MoveDirectAbsPt */\012ELSE[ ]	/* Else */\012PUSHW[ ]	/* 2 values pushed */\0123 5 \012MIAP[0]	/* MoveIndirectAbsPt */\012EIF[ ]	/* EndIf */\012PUSHW[ ]	/* 1 value pushed */\0120 \012RCVT[ ]	/* ReadCVT */\012IF[ ]	/* If */\012PUSHW[ ]	/* 1 value pushed */\0126 \012MDAP[1]	/* MoveDirectAbsPt */\012ELSE[ ]	/* Else */\012PUSHW[ ]	/* 2 values pushed */\0126 5 \012MIAP[0]	/* MoveIndirectAbsPt */\012EIF[ ]	/* EndIf */\012PUSHW[ ]	/* 1 value pushed */\0120 \012RCVT[ ]	/* ReadCVT */\012IF[ ]	/* If */\012PUSHW[ ]	/* 1 value pushed */\01242 \012MDAP[1]	/* MoveDirectAbsPt */\012ELSE[ ]	/* Else */\012PUSHW[ ]	/* 2 values pushed */\01242 5 \012MIAP[0]	/* MoveIndirectAbsPt */\012EIF[ ]	/* EndIf */\012IUP[0]	/* InterpolateUntPts */\012IUP[1]	/* InterpolateUntPts */";
};
width = 416;
}
);
leftKerningGroup = O;
leftMetricsKey = O;
note = Q;
rightKerningGroup = O;
rightMetricsKey = O;
unicode = 0051;
},
{
glyphname = R;
lastChange = "2022-04-20 12:13:15 +0000";
layers = (
{
anchors = (
{
name = bottom;
position = "{187, 0}";
},
{
name = top;
position = "{254, 591}";
}
);
background = {
paths = (
{
closed = 1;
nodes = (
"55 0 LINE",
"96 292 LINE",
"215 292 LINE SMOOTH",
"256 292 OFFCURVE",
"277 257 OFFCURVE",
"285 205 CURVE SMOOTH",
"318 0 LINE",
"332 0 LINE",
"294 224 LINE SMOOTH",
"287 256 OFFCURVE",
"270 293 OFFCURVE",
"238 296 CURVE",
"305 296 OFFCURVE",
"358 333 OFFCURVE",
"368 411 CURVE SMOOTH",
"380 494 LINE SMOOTH",
"381 501 OFFCURVE",
"382 507 OFFCURVE",
"382 513 CURVE SMOOTH",
"382 568 OFFCURVE",
"342 591 OFFCURVE",
"288 591 CURVE SMOOTH",
"126 591 LINE",
"43 0 LINE"
);
},
{
closed = 1;
nodes = (
"136 580 LINE",
"294 580 LINE SMOOTH",
"335 580 OFFCURVE",
"369 558 OFFCURVE",
"369 511 CURVE SMOOTH",
"369 506 OFFCURVE",
"369 501 OFFCURVE",
"368 496 CURVE SMOOTH",
"356 409 LINE SMOOTH",
"346 333 OFFCURVE",
"292 303 OFFCURVE",
"222 303 CURVE SMOOTH",
"97 303 LINE"
);
}
);
};
layerId = "9AA098C0-EDBC-463F-BC21-AFCD07A070D0";
paths = (
{
closed = 1;
nodes = (
"57 0 LINE",
"98 287 LINE",
"209 287 LINE SMOOTH",
"258 287 OFFCURVE",
"279 252 OFFCURVE",
"288 200 CURVE SMOOTH",
"320 0 LINE",
"337 0 LINE",
"300 224 LINE SMOOTH",
"294 256 OFFCURVE",
"275 288 OFFCURVE",
"254 291 CURVE",
"304 297 OFFCURVE",
"360 328 OFFCURVE",
"371 411 CURVE SMOOTH",
"383 494 LINE SMOOTH",
"384 501 OFFCURVE",
"384 507 OFFCURVE",
"384 513 CURVE SMOOTH",
"384 570 OFFCURVE",
"343 591 OFFCURVE",
"291 591 CURVE SMOOTH",
"125 591 LINE",
"41 0 LINE"
);
},
{
closed = 1;
nodes = (
"138 575 LINE",
"292 575 LINE SMOOTH",
"333 575 OFFCURVE",
"367 553 OFFCURVE",
"367 506 CURVE SMOOTH",
"367 501 OFFCURVE",
"367 496 OFFCURVE",
"366 491 CURVE SMOOTH",
"355 409 LINE SMOOTH",
"344 331 OFFCURVE",
"289 303 OFFCURVE",
"221 303 CURVE SMOOTH",
"100 303 LINE"
);
}
);
userData = {
assembly = "SVTCA[0]	/* SetFreedomAndProjectionVectorToAxis */\012PUSHW[ ]	/* 1 value pushed */\0120 \012RCVT[ ]	/* ReadCVT */\012IF[ ]	/* If */\012PUSHW[ ]	/* 1 value pushed */\0121 \012MDAP[1]	/* MoveDirectAbsPt */\012ELSE[ ]	/* Else */\012PUSHW[ ]	/* 2 values pushed */\0121 5 \012MIAP[0]	/* MoveIndirectAbsPt */\012EIF[ ]	/* EndIf */\012PUSHW[ ]	/* 1 value pushed */\0120 \012RCVT[ ]	/* ReadCVT */\012IF[ ]	/* If */\012PUSHW[ ]	/* 1 value pushed */\01219 \012MDAP[1]	/* MoveDirectAbsPt */\012ELSE[ ]	/* Else */\012PUSHW[ ]	/* 2 values pushed */\01219 5 \012MIAP[0]	/* MoveIndirectAbsPt */\012EIF[ ]	/* EndIf */\012PUSHW[ ]	/* 4 values pushed */\01215 1 18 4 \012CALL[ ]	/* CallFunction */\012PUSHW[ ]	/* 1 value pushed */\01215 \012SRP0[ ]	/* SetRefPoint0 */\012PUSHW[ ]	/* 1 value pushed */\0120 \012MDRP[10000]	/* MoveDirectRelPt */\012PUSHW[ ]	/* 1 value pushed */\0120 \012MDAP[1]	/* MoveDirectAbsPt */\012PUSHW[ ]	/* 1 value pushed */\01215 \012SRP0[ ]	/* SetRefPoint0 */\012PUSHW[ ]	/* 1 value pushed */\01225 \012MDRP[10000]	/* MoveDirectRelPt */\012PUSHW[ ]	/* 1 value pushed */\01225 \012MDAP[1]	/* MoveDirectAbsPt */\012IUP[0]	/* InterpolateUntPts */\012IUP[1]	/* InterpolateUntPts */";
};
width = 411;
}
);
leftKerningGroup = H;
leftMetricsKey = H;
note = R;
rightKerningGroup = R;
unicode = 0052;
},
{
glyphname = S;
lastChange = "2022-04-20 12:13:22 +0000";
layers = (
{
anchors = (
{
name = bottom;
position = "{142, 0}";
},
{
name = top;
position = "{222, 591}";
}
);
layerId = "9AA098C0-EDBC-463F-BC21-AFCD07A070D0";
paths = (
{
closed = 1;
nodes = (
"209 -9 OFFCURVE",
"277 31 OFFCURVE",
"293 146 CURVE SMOOTH",
"295 161 OFFCURVE",
"296 174 OFFCURVE",
"296 185 CURVE SMOOTH",
"296 256 OFFCURVE",
"257 277 OFFCURVE",
"179 310 CURVE SMOOTH",
"130 330 OFFCURVE",
"86 351 OFFCURVE",
"86 420 CURVE SMOOTH",
"86 429 OFFCURVE",
"87 438 OFFCURVE",
"88 448 CURVE SMOOTH",
"98 523 OFFCURVE",
"135 579 OFFCURVE",
"218 579 CURVE SMOOTH",
"282 579 OFFCURVE",
"318 546 OFFCURVE",
"318 488 CURVE SMOOTH",
"318 480 OFFCURVE",
"317 473 OFFCURVE",
"316 465 CURVE SMOOTH",
"311 429 LINE",
"327 429 LINE",
"333 469 LINE SMOOTH",
"334 478 OFFCURVE",
"335 486 OFFCURVE",
"335 494 CURVE SMOOTH",
"335 558 OFFCURVE",
"291 595 OFFCURVE",
"220 595 CURVE SMOOTH",
"128 595 OFFCURVE",
"84 537 OFFCURVE",
"72 448 CURVE SMOOTH",
"70 436 OFFCURVE",
"70 426 OFFCURVE",
"70 416 CURVE SMOOTH",
"70 347 OFFCURVE",
"108 321 OFFCURVE",
"168 296 CURVE SMOOTH",
"228 272 OFFCURVE",
"278 254 OFFCURVE",
"278 178 CURVE SMOOTH",
"278 168 OFFCURVE",
"278 158 OFFCURVE",
"276 146 CURVE SMOOTH",
"262 42 OFFCURVE",
"204 7 OFFCURVE",
"134 7 CURVE SMOOTH",
"77 7 OFFCURVE",
"43 34 OFFCURVE",
"43 125 CURVE SMOOTH",
"43 136 OFFCURVE",
"44 149 OFFCURVE",
"45 163 CURVE SMOOTH",
"46 175 LINE",
"30 175 LINE",
"29 163 LINE SMOOTH",
"28 148 OFFCURVE",
"27 134 OFFCURVE",
"27 121 CURVE SMOOTH",
"27 22 OFFCURVE",
"64 -9 OFFCURVE",
"132 -9 CURVE SMOOTH"
);
}
);
width = 347;
}
);
leftKerningGroup = S;
note = S;
rightKerningGroup = S;
unicode = 0053;
},
{
glyphname = Germandbls;
lastChange = "2022-04-20 13:36:45 +0000";
layers = (
{
associatedMasterId = "9AA098C0-EDBC-463F-BC21-AFCD07A070D0";
background = {
paths = (
{
closed = 1;
nodes = (
"718 -8 OFFCURVE",
"794 36 OFFCURVE",
"794 171 CURVE SMOOTH",
"794 290 OFFCURVE",
"757 313 OFFCURVE",
"669 345 CURVE SMOOTH",
"626 361 OFFCURVE",
"587 368 OFFCURVE",
"587 427 CURVE SMOOTH",
"587 456 OFFCURVE",
"590 467 OFFCURVE",
"607 467 CURVE SMOOTH",
"628 467 OFFCURVE",
"628 453 OFFCURVE",
"628 399 CURVE SMOOTH",
"628 373 LINE",
"681 373 OFFCURVE",
"734 373 OFFCURVE",
"787 373 CURVE",
"787 449 LINE SMOOTH",
"787 546 OFFCURVE",
"725 593 OFFCURVE",
"605 593 CURVE SMOOTH",
"465 593 OFFCURVE",
"422 548 OFFCURVE",
"422 422 CURVE SMOOTH",
"422 332 OFFCURVE",
"443 279 OFFCURVE",
"518 246 CURVE SMOOTH",
"598 211 OFFCURVE",
"625 211 OFFCURVE",
"625 147 CURVE SMOOTH",
"625 101 OFFCURVE",
"620 92 OFFCURVE",
"605 92 CURVE SMOOTH",
"591 92 OFFCURVE",
"584 101 OFFCURVE",
"584 155 CURVE SMOOTH",
"584 206 LINE",
"528 206 OFFCURVE",
"473 206 OFFCURVE",
"417 206 CURVE",
"417 169 LINE SMOOTH",
"417 26 OFFCURVE",
"480 -8 OFFCURVE",
"599 -8 CURVE SMOOTH"
);
},
{
closed = 1;
nodes = (
"321 -8 OFFCURVE",
"397 36 OFFCURVE",
"397 171 CURVE SMOOTH",
"397 290 OFFCURVE",
"360 313 OFFCURVE",
"272 345 CURVE SMOOTH",
"229 361 OFFCURVE",
"190 368 OFFCURVE",
"190 427 CURVE SMOOTH",
"190 456 OFFCURVE",
"193 467 OFFCURVE",
"210 467 CURVE SMOOTH",
"231 467 OFFCURVE",
"231 453 OFFCURVE",
"231 399 CURVE SMOOTH",
"231 373 LINE",
"284 373 OFFCURVE",
"337 373 OFFCURVE",
"390 373 CURVE",
"390 449 LINE SMOOTH",
"390 546 OFFCURVE",
"328 593 OFFCURVE",
"208 593 CURVE SMOOTH",
"68 593 OFFCURVE",
"25 548 OFFCURVE",
"25 422 CURVE SMOOTH",
"25 332 OFFCURVE",
"46 279 OFFCURVE",
"121 246 CURVE SMOOTH",
"201 211 OFFCURVE",
"228 211 OFFCURVE",
"228 147 CURVE SMOOTH",
"228 101 OFFCURVE",
"223 92 OFFCURVE",
"208 92 CURVE SMOOTH",
"194 92 OFFCURVE",
"187 101 OFFCURVE",
"187 155 CURVE SMOOTH",
"187 206 LINE",
"131 206 OFFCURVE",
"76 206 OFFCURVE",
"20 206 CURVE",
"20 169 LINE SMOOTH",
"20 26 OFFCURVE",
"83 -8 OFFCURVE",
"202 -8 CURVE SMOOTH"
);
}
);
};
layerId = "6ADAA0BD-4310-4C3A-8DC7-22C991837926";
name = Black;
paths = (
{
closed = 1;
nodes = (
"215 -25 LINE",
"214 542 LINE SMOOTH",
"214 556 OFFCURVE",
"221 558 OFFCURVE",
"258 558 CURVE SMOOTH",
"302 558 OFFCURVE",
"302 538 OFFCURVE",
"302 483 CURVE SMOOTH",
"302 435 LINE SMOOTH",
"302 396 OFFCURVE",
"298 373 OFFCURVE",
"276 373 CURVE SMOOTH",
"239 373 LINE",
"238 293 LINE",
"256 293 LINE SMOOTH",
"301 293 OFFCURVE",
"301 270 OFFCURVE",
"301 239 CURVE SMOOTH",
"301 186 LINE SMOOTH",
"301 94 OFFCURVE",
"298 78 OFFCURVE",
"261 78 CURVE SMOOTH",
"241 78 LINE",
"241 0 LINE",
"285 0 LINE SMOOTH",
"398 0 OFFCURVE",
"474 16 OFFCURVE",
"474 121 CURVE SMOOTH",
"474 244 LINE SMOOTH",
"474 303 OFFCURVE",
"419 334 OFFCURVE",
"371 338 CURVE",
"371 342 LINE",
"413 345 OFFCURVE",
"456 382 OFFCURVE",
"456 438 CURVE SMOOTH",
"456 533 LINE SMOOTH",
"456 606 OFFCURVE",
"385 631 OFFCURVE",
"256 631 CURVE SMOOTH",
"89 631 OFFCURVE",
"58 624 OFFCURVE",
"58 584 CURVE",
"58 -25 LINE"
);
}
);
width = 499;
},
{
layerId = "9AA098C0-EDBC-463F-BC21-AFCD07A070D0";
paths = (
{
closed = 1;
nodes = (
"49 -59 LINE",
"130 519 LINE SMOOTH",
"135 552 OFFCURVE",
"135 577 OFFCURVE",
"243 577 CURVE SMOOTH",
"307 577 OFFCURVE",
"337 558 OFFCURVE",
"337 511 CURVE SMOOTH",
"337 505 OFFCURVE",
"336 498 OFFCURVE",
"335 491 CURVE SMOOTH",
"329 448 LINE SMOOTH",
"321 385 OFFCURVE",
"295 346 OFFCURVE",
"224 346 CURVE SMOOTH",
"170 346 LINE",
"168 333 LINE",
"211 333 LINE SMOOTH",
"266 333 OFFCURVE",
"313 315 OFFCURVE",
"313 254 CURVE SMOOTH",
"313 249 OFFCURVE",
"313 242 OFFCURVE",
"312 236 CURVE SMOOTH",
"296 123 LINE SMOOTH",
"283 31 OFFCURVE",
"240 15 OFFCURVE",
"181 15 CURVE SMOOTH",
"104 15 LINE",
"101 0 LINE",
"178 0 LINE SMOOTH",
"243 0 OFFCURVE",
"295 15 OFFCURVE",
"309 119 CURVE SMOOTH",
"327 244 LINE SMOOTH",
"328 249 OFFCURVE",
"328 255 OFFCURVE",
"328 260 CURVE SMOOTH",
"328 306 OFFCURVE",
"296 335 OFFCURVE",
"255 340 CURVE",
"299 344 OFFCURVE",
"336 385 OFFCURVE",
"343 441 CURVE SMOOTH",
"351 498 LINE SMOOTH",
"352 506 OFFCURVE",
"353 513 OFFCURVE",
"353 519 CURVE SMOOTH",
"353 575 OFFCURVE",
"312 593 OFFCURVE",
"245 593 CURVE SMOOTH",
"138 593 OFFCURVE",
"122 573 OFFCURVE",
"116 527 CURVE SMOOTH",
"33 -59 LINE"
);
}
);
width = 389;
}
);
leftKerningGroup = H;
leftMetricsKey = H;
rightKerningGroup = B;
rightMetricsKey = B;
unicode = 1E9E;
},
{
glyphname = Schwa;
lastChange = "2022-04-20 13:36:45 +0000";
layers = (
{
layerId = "9AA098C0-EDBC-463F-BC21-AFCD07A070D0";
paths = (
{
closed = 1;
nodes = (
"228 -8 OFFCURVE",
"290 6 OFFCURVE",
"306 122 CURVE SMOOTH",
"356 473 LINE SMOOTH",
"358 486 OFFCURVE",
"359 498 OFFCURVE",
"359 508 CURVE SMOOTH",
"359 590 OFFCURVE",
"306 603 OFFCURVE",
"239 603 CURVE SMOOTH",
"166 603 OFFCURVE",
"99 589 OFFCURVE",
"83 473 CURVE SMOOTH",
"73 402 LINE",
"89 402 LINE",
"98 468 LINE SMOOTH",
"113 572 OFFCURVE",
"170 587 OFFCURVE",
"236 587 CURVE SMOOTH",
"293 587 OFFCURVE",
"342 575 OFFCURVE",
"342 501 CURVE SMOOTH",
"342 491 OFFCURVE",
"341 480 OFFCURVE",
"339 468 CURVE SMOOTH",
"291 130 LINE SMOOTH",
"277 25 OFFCURVE",
"225 8 OFFCURVE",
"154 8 CURVE SMOOTH",
"92 8 OFFCURVE",
"47 20 OFFCURVE",
"47 90 CURVE SMOOTH",
"47 100 OFFCURVE",
"48 111 OFFCURVE",
"50 124 CURVE SMOOTH",
"67 247 LINE",
"51 247 LINE",
"33 122 LINE SMOOTH",
"31 109 OFFCURVE",
"30 97 OFFCURVE",
"30 87 CURVE SMOOTH",
"30 5 OFFCURVE",
"83 -8 OFFCURVE",
"151 -8 CURVE SMOOTH"
);
},
{
closed = 1;
nodes = (
"314 231 LINE",
"316 247 LINE",
"51 247 LINE",
"49 231 LINE"
);
}
);
width = 391;
},
{
anchors = (
{
name = bottom;
position = "{197, 0}";
},
{
name = top;
position = "{197, 591}";
}
);
associatedMasterId = "9AA098C0-EDBC-463F-BC21-AFCD07A070D0";
layerId = "EEA0EE5D-DDBE-4C62-9355-9D48BAED48A9";
name = Black;
paths = (
{
closed = 1;
nodes = (
"302 -12 OFFCURVE",
"375 14 OFFCURVE",
"375 173 CURVE SMOOTH",
"375 465 LINE SMOOTH",
"375 564 OFFCURVE",
"302 600 OFFCURVE",
"193 600 CURVE SMOOTH",
"84 600 OFFCURVE",
"18 564 OFFCURVE",
"18 465 CURVE SMOOTH",
"18 327 LINE",
"177 327 LINE",
"177 473 LINE SMOOTH",
"177 496 OFFCURVE",
"184 503 OFFCURVE",
"193 503 CURVE SMOOTH",
"203 503 OFFCURVE",
"209 496 OFFCURVE",
"209 473 CURVE SMOOTH",
"209 110 LINE SMOOTH",
"209 87 OFFCURVE",
"203 80 OFFCURVE",
"193 80 CURVE SMOOTH",
"184 80 OFFCURVE",
"177 87 OFFCURVE",
"177 110 CURVE SMOOTH",
"177 248 LINE",
"18 248 LINE",
"18 174 LINE SMOOTH",
"18 14 OFFCURVE",
"84 -12 OFFCURVE",
"193 -12 CURVE SMOOTH"
);
},
{
closed = 1;
nodes = (
"230 216 LINE",
"230 289 LINE",
"18 289 LINE",
"18 216 LINE"
);
}
);
width = 395;
}
);
leftKerningGroup = O;
leftMetricsKey = "=o-8";
rightKerningGroup = O;
rightMetricsKey = O;
unicode = 018F;
},
{
glyphname = T;
lastChange = "2022-04-20 15:04:01 +0000";
layers = (
{
anchors = (
{
name = bottom;
position = "{96, 0}";
},
{
name = center;
position = "{154, 411}";
},
{
name = top;
position = "{179, 591}";
}
);
layerId = "9AA098C0-EDBC-463F-BC21-AFCD07A070D0";
paths = (
{
closed = 1;
nodes = (
"104 0 LINE",
"185 575 LINE",
"297 575 LINE",
"300 591 LINE",
"61 591 LINE",
"58 575 LINE",
"169 575 LINE",
"88 0 LINE"
);
}
);
userData = {
assembly = "SVTCA[0]	/* SetFreedomAndProjectionVectorToAxis */\012PUSHW[ ]	/* 1 value pushed */\0120 \012RCVT[ ]	/* ReadCVT */\012IF[ ]	/* If */\012PUSHW[ ]	/* 1 value pushed */\0123 \012MDAP[1]	/* MoveDirectAbsPt */\012ELSE[ ]	/* Else */\012PUSHW[ ]	/* 2 values pushed */\0123 5 \012MIAP[0]	/* MoveIndirectAbsPt */\012EIF[ ]	/* EndIf */\012IUP[0]	/* InterpolateUntPts */\012IUP[1]	/* InterpolateUntPts */";
};
width = 262;
}
);
leftKerningGroup = T;
note = T;
rightKerningGroup = T;
unicode = 0054;
},
{
glyphname = U;
lastChange = "2022-04-20 12:13:52 +0000";
layers = (
{
anchors = (
{
name = bottom;
position = "{180, 0}";
},
{
name = ogonek;
position = "{192, -10}";
},
{
name = top;
position = "{263, 591}";
},
{
name = topright;
position = "{380, 591}";
}
);
layerId = "9AA098C0-EDBC-463F-BC21-AFCD07A070D0";
paths = (
{
closed = 1;
nodes = (
"249 -9 OFFCURVE",
"321 9 OFFCURVE",
"336 113 CURVE SMOOTH",
"403 591 LINE",
"387 591 LINE",
"320 116 LINE SMOOTH",
"307 24 OFFCURVE",
"236 7 OFFCURVE",
"175 7 CURVE SMOOTH",
"120 7 OFFCURVE",
"69 21 OFFCURVE",
"69 91 CURVE SMOOTH",
"69 99 OFFCURVE",
"70 107 OFFCURVE",
"71 116 CURVE SMOOTH",
"138 591 LINE",
"122 591 LINE",
"55 113 LINE SMOOTH",
"53 102 OFFCURVE",
"53 92 OFFCURVE",
"53 82 CURVE SMOOTH",
"53 5 OFFCURVE",
"106 -9 OFFCURVE",
"173 -9 CURVE SMOOTH"
);
},
{
closed = 1;
nodes = (
"255 -12 OFFCURVE",
"318 13 OFFCURVE",
"332 110 CURVE SMOOTH",
"399 591 LINE",
"387 591 LINE",
"319 106 LINE SMOOTH",
"307 19 OFFCURVE",
"244 -3 OFFCURVE",
"174 -3 CURVE SMOOTH",
"112 -3 OFFCURVE",
"68 15 OFFCURVE",
"68 81 CURVE SMOOTH",
"68 88 OFFCURVE",
"69 97 OFFCURVE",
"70 106 CURVE SMOOTH",
"138 591 LINE",
"126 591 LINE",
"59 110 LINE SMOOTH",
"57 99 OFFCURVE",
"56 88 OFFCURVE",
"56 79 CURVE SMOOTH",
"56 8 OFFCURVE",
"103 -12 OFFCURVE",
"173 -12 CURVE SMOOTH"
);
}
);
width = 429;
}
);
leftKerningGroup = U;
leftMetricsKey = "=H-2";
note = U;
rightKerningGroup = U;
rightMetricsKey = "=H-2";
unicode = 0055;
},
{
glyphname = V;
lastChange = "2022-04-20 15:04:09 +0000";
layers = (
{
layerId = "9AA098C0-EDBC-463F-BC21-AFCD07A070D0";
paths = (
{
closed = 1;
nodes = (
"128 0 LINE",
"333 591 LINE",
"317 591 LINE",
"127 44 LINE",
"87 591 LINE",
"71 591 LINE",
"114 0 LINE"
);
}
);
userData = {
assembly = "SVTCA[0]	/* SetFreedomAndProjectionVectorToAxis */\012PUSHW[ ]	/* 1 value pushed */\0120 \012RCVT[ ]	/* ReadCVT */\012IF[ ]	/* If */\012PUSHW[ ]	/* 1 value pushed */\0126 \012MDAP[1]	/* MoveDirectAbsPt */\012ELSE[ ]	/* Else */\012PUSHW[ ]	/* 2 values pushed */\0126 5 \012MIAP[0]	/* MoveIndirectAbsPt */\012EIF[ ]	/* EndIf */\012IUP[0]	/* InterpolateUntPts */\012IUP[1]	/* InterpolateUntPts */";
};
width = 308;
}
);
leftKerningGroup = W;
note = V;
rightKerningGroup = W;
unicode = 0056;
},
{
glyphname = W;
lastChange = "2022-04-20 10:56:50 +0000";
layers = (
{
anchors = (
{
name = bottom;
position = "{226, 0}";
},
{
name = top;
position = "{309, 591}";
}
);
background = {
paths = (
{
closed = 1;
nodes = (
"104 0 LINE",
"304 565 LINE",
"342 0 LINE",
"357 0 LINE",
"387 101 OFFCURVE",
"417 199 OFFCURVE",
"448 296 CURVE SMOOTH",
"479 392 OFFCURVE",
"509 490 OFFCURVE",
"540 591 CURVE",
"527 591 LINE",
"354 38 LINE",
"315 591 LINE",
"301 591 LINE",
"105 38 LINE",
"88 591 LINE",
"75 591 LINE",
"77 491 OFFCURVE",
"80 393 OFFCURVE",
"84 296 CURVE SMOOTH",
"87 199 OFFCURVE",
"90 101 OFFCURVE",
"92 0 CURVE"
);
},
{
closed = 1;
nodes = (
"104 0 LINE",
"305 569 LINE",
"342 0 LINE",
"357 0 LINE",
"418 201 OFFCURVE",
"480 390 OFFCURVE",
"541 591 CURVE",
"530 591 LINE",
"353 26 LINE",
"316 591 LINE",
"303 591 LINE",
"102 26 LINE",
"88 591 LINE",
"76 591 LINE",
"92 0 LINE"
);
}
);
};
layerId = "9AA098C0-EDBC-463F-BC21-AFCD07A070D0";
paths = (
{
closed = 1;
nodes = (
"104 0 LINE",
"298 553 LINE",
"333 0 LINE",
"352 0 LINE",
"538 591 LINE",
"522 591 LINE",
"347 35 LINE",
"312 591 LINE",
"295 591 LINE",
"103 45 LINE",
"87 591 LINE",
"71 591 LINE",
"87 0 LINE"
);
}
);
userData = {
assembly = "SVTCA[0]	/* SetFreedomAndProjectionVectorToAxis */\012PUSHW[ ]	/* 1 value pushed */\0120 \012RCVT[ ]	/* ReadCVT */\012IF[ ]	/* If */\012PUSHW[ ]	/* 1 value pushed */\0129 \012MDAP[1]	/* MoveDirectAbsPt */\012ELSE[ ]	/* Else */\012PUSHW[ ]	/* 2 values pushed */\0129 5 \012MIAP[0]	/* MoveIndirectAbsPt */\012EIF[ ]	/* EndIf */\012PUSHW[ ]	/* 1 value pushed */\0120 \012RCVT[ ]	/* ReadCVT */\012IF[ ]	/* If */\012PUSHW[ ]	/* 1 value pushed */\01212 \012MDAP[1]	/* MoveDirectAbsPt */\012ELSE[ ]	/* Else */\012PUSHW[ ]	/* 2 values pushed */\01212 5 \012MIAP[0]	/* MoveIndirectAbsPt */\012EIF[ ]	/* EndIf */\012IUP[0]	/* InterpolateUntPts */\012IUP[1]	/* InterpolateUntPts */";
};
width = 513;
}
);
leftKerningGroup = W;
note = W;
rightKerningGroup = W;
unicode = 0057;
},
{
glyphname = X;
lastChange = "2022-04-20 15:04:12 +0000";
layers = (
{
layerId = "9AA098C0-EDBC-463F-BC21-AFCD07A070D0";
paths = (
{
closed = 1;
nodes = (
"8 0 LINE",
"148 290 LINE",
"164 290 LINE",
"219 0 LINE",
"237 0 LINE",
"179 298 LINE",
"323 591 LINE",
"306 591 LINE",
"166 306 LINE",
"149 306 LINE",
"102 591 LINE",
"86 591 LINE",
"134 298 LINE",
"-9 0 LINE"
);
}
);
userData = {
assembly = "SVTCA[0]	/* SetFreedomAndProjectionVectorToAxis */\012PUSHW[ ]	/* 1 value pushed */\0120 \012RCVT[ ]	/* ReadCVT */\012IF[ ]	/* If */\012PUSHW[ ]	/* 1 value pushed */\0120 \012MDAP[1]	/* MoveDirectAbsPt */\012ELSE[ ]	/* Else */\012PUSHW[ ]	/* 2 values pushed */\0120 5 \012MIAP[0]	/* MoveIndirectAbsPt */\012EIF[ ]	/* EndIf */\012PUSHW[ ]	/* 1 value pushed */\0120 \012RCVT[ ]	/* ReadCVT */\012IF[ ]	/* If */\012PUSHW[ ]	/* 1 value pushed */\0129 \012MDAP[1]	/* MoveDirectAbsPt */\012ELSE[ ]	/* Else */\012PUSHW[ ]	/* 2 values pushed */\0129 5 \012MIAP[0]	/* MoveIndirectAbsPt */\012EIF[ ]	/* EndIf */\012IUP[0]	/* InterpolateUntPts */\012IUP[1]	/* InterpolateUntPts */";
};
width = 301;
}
);
leftKerningGroup = X;
note = X;
rightKerningGroup = K;
unicode = 0058;
},
{
glyphname = Y;
lastChange = "2022-04-20 15:04:15 +0000";
layers = (
{
anchors = (
{
name = bottom;
position = "{104, 0}";
},
{
name = top;
position = "{187, 591}";
},
{
name = topleft;
position = "{80, 591}";
}
);
layerId = "9AA098C0-EDBC-463F-BC21-AFCD07A070D0";
paths = (
{
closed = 1;
nodes = (
"110 0 LINE",
"146 253 LINE",
"317 591 LINE",
"300 591 LINE",
"142 275 LINE",
"86 591 LINE",
"69 591 LINE",
"130 253 LINE",
"94 0 LINE"
);
}
);
userData = {
assembly = "SVTCA[0]	/* SetFreedomAndProjectionVectorToAxis */\012PUSHW[ ]	/* 1 value pushed */\0120 \012RCVT[ ]	/* ReadCVT */\012IF[ ]	/* If */\012PUSHW[ ]	/* 1 value pushed */\0120 \012MDAP[1]	/* MoveDirectAbsPt */\012ELSE[ ]	/* Else */\012PUSHW[ ]	/* 2 values pushed */\0120 5 \012MIAP[0]	/* MoveIndirectAbsPt */\012EIF[ ]	/* EndIf */\012IUP[0]	/* InterpolateUntPts */\012IUP[1]	/* InterpolateUntPts */";
};
width = 290;
}
);
leftKerningGroup = Y;
note = Y;
rightKerningGroup = Y;
unicode = 0059;
},
{
glyphname = Z;
lastChange = "2022-04-20 12:14:21 +0000";
layers = (
{
anchors = (
{
name = bottom;
position = "{101, 0}";
},
{
name = center;
position = "{143, 296}";
},
{
name = top;
position = "{184, 591}";
}
);
layerId = "9AA098C0-EDBC-463F-BC21-AFCD07A070D0";
paths = (
{
closed = 1;
nodes = (
"211 0 LINE",
"214 16 LINE",
"10 16 LINE",
"287 577 LINE",
"289 591 LINE",
"87 591 LINE",
"84 575 LINE",
"271 577 LINE",
"-10 10 LINE",
"-12 0 LINE"
);
}
);
userData = {
assembly = "SVTCA[0]	/* SetFreedomAndProjectionVectorToAxis */\012PUSHW[ ]	/* 1 value pushed */\0120 \012RCVT[ ]	/* ReadCVT */\012IF[ ]	/* If */\012PUSHW[ ]	/* 1 value pushed */\0125 \012MDAP[1]	/* MoveDirectAbsPt */\012ELSE[ ]	/* Else */\012PUSHW[ ]	/* 2 values pushed */\0125 5 \012MIAP[0]	/* MoveIndirectAbsPt */\012EIF[ ]	/* EndIf */\012IUP[0]	/* InterpolateUntPts */\012IUP[1]	/* InterpolateUntPts */";
};
width = 271;
}
);
leftKerningGroup = Z;
note = Z;
rightKerningGroup = Z;
unicode = 005A;
},
{
glyphname = a;
lastChange = "2022-04-20 14:58:39 +0000";
layers = (
{
anchors = (
{
name = bottom;
position = "{139, 0}";
},
{
name = ogonek;
position = "{272, 0}";
},
{
name = top;
position = "{225, 495}";
}
);
layerId = "9AA098C0-EDBC-463F-BC21-AFCD07A070D0";
paths = (
{
closed = 1;
nodes = (
"202 -7 OFFCURVE",
"244 49 OFFCURVE",
"256 76 CURVE",
"247 0 LINE",
"264 0 LINE",
"334 494 LINE",
"318 494 LINE",
"314 466 LINE",
"304 490 OFFCURVE",
"259 503 OFFCURVE",
"216 503 CURVE SMOOTH",
"114 503 OFFCURVE",
"89 446 OFFCURVE",
"78 372 CURVE SMOOTH",
"42 124 LINE SMOOTH",
"40 108 OFFCURVE",
"38 92 OFFCURVE",
"38 78 CURVE SMOOTH",
"38 29 OFFCURVE",
"55 -7 OFFCURVE",
"118 -7 CURVE SMOOTH"
);
},
{
closed = 1;
nodes = (
"68 9 OFFCURVE",
"54 38 OFFCURVE",
"54 78 CURVE SMOOTH",
"54 93 OFFCURVE",
"56 110 OFFCURVE",
"59 127 CURVE SMOOTH",
"94 369 LINE SMOOTH",
"105 445 OFFCURVE",
"133 487 OFFCURVE",
"215 487 CURVE SMOOTH",
"294 487 OFFCURVE",
"307 451 OFFCURVE",
"310 439 CURVE",
"274 186 LINE SMOOTH",
"265 124 OFFCURVE",
"237 9 OFFCURVE",
"123 9 CURVE SMOOTH"
);
}
);
userData = {
assembly = "SVTCA[0]	/* SetFreedomAndProjectionVectorToAxis */\012PUSHW[ ]	/* 1 value pushed */\0120 \012RCVT[ ]	/* ReadCVT */\012IF[ ]	/* If */\012PUSHW[ ]	/* 1 value pushed */\01222 \012MDAP[1]	/* MoveDirectAbsPt */\012ELSE[ ]	/* Else */\012PUSHW[ ]	/* 2 values pushed */\01222 9 \012MIAP[0]	/* MoveIndirectAbsPt */\012EIF[ ]	/* EndIf */\012PUSHW[ ]	/* 1 value pushed */\0120 \012RCVT[ ]	/* ReadCVT */\012IF[ ]	/* If */\012PUSHW[ ]	/* 1 value pushed */\01240 \012MDAP[1]	/* MoveDirectAbsPt */\012ELSE[ ]	/* Else */\012PUSHW[ ]	/* 2 values pushed */\01240 9 \012MIAP[0]	/* MoveIndirectAbsPt */\012EIF[ ]	/* EndIf */\012PUSHW[ ]	/* 1 value pushed */\0120 \012RCVT[ ]	/* ReadCVT */\012IF[ ]	/* If */\012PUSHW[ ]	/* 1 value pushed */\0120 \012MDAP[1]	/* MoveDirectAbsPt */\012ELSE[ ]	/* Else */\012PUSHW[ ]	/* 2 values pushed */\0120 5 \012MIAP[0]	/* MoveIndirectAbsPt */\012EIF[ ]	/* EndIf */\012PUSHW[ ]	/* 1 value pushed */\0120 \012RCVT[ ]	/* ReadCVT */\012IF[ ]	/* If */\012PUSHW[ ]	/* 1 value pushed */\0127 \012MDAP[1]	/* MoveDirectAbsPt */\012ELSE[ ]	/* Else */\012PUSHW[ ]	/* 2 values pushed */\0127 5 \012MIAP[0]	/* MoveIndirectAbsPt */\012EIF[ ]	/* EndIf */\012PUSHW[ ]	/* 1 value pushed */\0120 \012RCVT[ ]	/* ReadCVT */\012IF[ ]	/* If */\012PUSHW[ ]	/* 1 value pushed */\01229 \012MDAP[1]	/* MoveDirectAbsPt */\012ELSE[ ]	/* Else */\012PUSHW[ ]	/* 2 values pushed */\01229 5 \012MIAP[0]	/* MoveIndirectAbsPt */\012EIF[ ]	/* EndIf */\012PUSHW[ ]	/* 3 values pushed */\0122 7 22 \012SRP1[ ]	/* SetRefPoint1 */\012SRP2[ ]	/* SetRefPoint2 */\012IP[ ]	/* InterpolatePts */\012PUSHW[ ]	/* 3 values pushed */\01221 7 22 \012SRP1[ ]	/* SetRefPoint1 */\012SRP2[ ]	/* SetRefPoint2 */\012IP[ ]	/* InterpolatePts */\012IUP[0]	/* InterpolateUntPts */\012IUP[1]	/* InterpolateUntPts */";
};
width = 367;
}
);
leftKerningGroup = o;
leftMetricsKey = o;
note = a;
rightKerningGroup = n;
rightMetricsKey = u;
unicode = 0061;
},
{
glyphname = ae;
lastChange = "2022-04-20 13:36:57 +0000";
layers = (
{
anchors = (
{
name = bottom;
position = "{302, 0}";
},
{
name = top;
position = "{372, 495}";
}
);
layerId = "9AA098C0-EDBC-463F-BC21-AFCD07A070D0";
paths = (
{
closed = 1;
nodes = (
"202 -7 OFFCURVE",
"244 49 OFFCURVE",
"256 76 CURVE",
"247 0 LINE",
"264 0 LINE",
"269 37 LINE",
"281 11 OFFCURVE",
"308 -7 OFFCURVE",
"367 -7 CURVE SMOOTH",
"480 -7 OFFCURVE",
"496 62 OFFCURVE",
"505 124 CURVE SMOOTH",
"511 167 LINE",
"495 167 LINE",
"489 127 LINE SMOOTH",
"480 66 OFFCURVE",
"467 9 OFFCURVE",
"369 9 CURVE SMOOTH",
"294 9 OFFCURVE",
"278 42 OFFCURVE",
"278 84 CURVE SMOOTH",
"278 98 OFFCURVE",
"280 112 OFFCURVE",
"282 127 CURVE SMOOTH",
"282 128 LINE",
"296 228 LINE",
"412 241 OFFCURVE",
"523 263 OFFCURVE",
"539 372 CURVE SMOOTH",
"541 387 OFFCURVE",
"543 403 OFFCURVE",
"543 417 CURVE SMOOTH",
"543 465 OFFCURVE",
"524 503 OFFCURVE",
"439 503 CURVE SMOOTH",
"382 503 OFFCURVE",
"349 484 OFFCURVE",
"329 458 CURVE",
"334 494 LINE",
"318 494 LINE",
"314 466 LINE",
"304 490 OFFCURVE",
"259 503 OFFCURVE",
"216 503 CURVE SMOOTH",
"114 503 OFFCURVE",
"89 446 OFFCURVE",
"78 372 CURVE SMOOTH",
"42 124 LINE SMOOTH",
"40 108 OFFCURVE",
"38 92 OFFCURVE",
"38 78 CURVE SMOOTH",
"38 29 OFFCURVE",
"55 -7 OFFCURVE",
"118 -7 CURVE SMOOTH"
);
},
{
closed = 1;
nodes = (
"68 9 OFFCURVE",
"54 38 OFFCURVE",
"54 78 CURVE SMOOTH",
"54 93 OFFCURVE",
"56 110 OFFCURVE",
"59 127 CURVE SMOOTH",
"94 369 LINE SMOOTH",
"105 445 OFFCURVE",
"133 487 OFFCURVE",
"215 487 CURVE SMOOTH",
"294 487 OFFCURVE",
"307 451 OFFCURVE",
"310 439 CURVE",
"304 396 LINE",
"302 388 OFFCURVE",
"301 380 OFFCURVE",
"300 372 CURVE SMOOTH",
"288 282 LINE",
"274 186 LINE SMOOTH",
"265 124 OFFCURVE",
"237 9 OFFCURVE",
"123 9 CURVE SMOOTH"
);
},
{
closed = 1;
nodes = (
"318 381 LINE SMOOTH",
"330 446 OFFCURVE",
"355 487 OFFCURVE",
"437 487 CURVE SMOOTH",
"511 487 OFFCURVE",
"527 458 OFFCURVE",
"527 418 CURVE SMOOTH",
"527 403 OFFCURVE",
"525 388 OFFCURVE",
"523 372 CURVE SMOOTH",
"512 293 OFFCURVE",
"422 252 OFFCURVE",
"299 244 CURVE"
);
}
);
userData = {
assembly = "SVTCA[0]	/* SetFreedomAndProjectionVectorToAxis */\012PUSHW[ ]	/* 1 value pushed */\0120 \012RCVT[ ]	/* ReadCVT */\012IF[ ]	/* If */\012PUSHW[ ]	/* 1 value pushed */\01235 \012MDAP[1]	/* MoveDirectAbsPt */\012ELSE[ ]	/* Else */\012PUSHW[ ]	/* 2 values pushed */\01235 9 \012MIAP[0]	/* MoveIndirectAbsPt */\012EIF[ ]	/* EndIf */\012PUSHW[ ]	/* 1 value pushed */\0120 \012RCVT[ ]	/* ReadCVT */\012IF[ ]	/* If */\012PUSHW[ ]	/* 1 value pushed */\01240 \012MDAP[1]	/* MoveDirectAbsPt */\012ELSE[ ]	/* Else */\012PUSHW[ ]	/* 2 values pushed */\01240 9 \012MIAP[0]	/* MoveIndirectAbsPt */\012EIF[ ]	/* EndIf */\012PUSHW[ ]	/* 1 value pushed */\0120 \012RCVT[ ]	/* ReadCVT */\012IF[ ]	/* If */\012PUSHW[ ]	/* 1 value pushed */\01281 \012MDAP[1]	/* MoveDirectAbsPt */\012ELSE[ ]	/* Else */\012PUSHW[ ]	/* 2 values pushed */\01281 9 \012MIAP[0]	/* MoveIndirectAbsPt */\012EIF[ ]	/* EndIf */\012PUSHW[ ]	/* 1 value pushed */\0120 \012RCVT[ ]	/* ReadCVT */\012IF[ ]	/* If */\012PUSHW[ ]	/* 1 value pushed */\01210 \012MDAP[1]	/* MoveDirectAbsPt */\012ELSE[ ]	/* Else */\012PUSHW[ ]	/* 2 values pushed */\01210 5 \012MIAP[0]	/* MoveIndirectAbsPt */\012EIF[ ]	/* EndIf */\012PUSHW[ ]	/* 1 value pushed */\0120 \012RCVT[ ]	/* ReadCVT */\012IF[ ]	/* If */\012PUSHW[ ]	/* 1 value pushed */\01220 \012MDAP[1]	/* MoveDirectAbsPt */\012ELSE[ ]	/* Else */\012PUSHW[ ]	/* 2 values pushed */\01220 5 \012MIAP[0]	/* MoveIndirectAbsPt */\012EIF[ ]	/* EndIf */\012PUSHW[ ]	/* 1 value pushed */\0120 \012RCVT[ ]	/* ReadCVT */\012IF[ ]	/* If */\012PUSHW[ ]	/* 1 value pushed */\01258 \012MDAP[1]	/* MoveDirectAbsPt */\012ELSE[ ]	/* Else */\012PUSHW[ ]	/* 2 values pushed */\01258 5 \012MIAP[0]	/* MoveIndirectAbsPt */\012EIF[ ]	/* EndIf */\012PUSHW[ ]	/* 1 value pushed */\0120 \012RCVT[ ]	/* ReadCVT */\012IF[ ]	/* If */\012PUSHW[ ]	/* 1 value pushed */\01270 \012MDAP[1]	/* MoveDirectAbsPt */\012ELSE[ ]	/* Else */\012PUSHW[ ]	/* 2 values pushed */\01270 5 \012MIAP[0]	/* MoveIndirectAbsPt */\012EIF[ ]	/* EndIf */\012PUSHW[ ]	/* 3 values pushed */\0129 20 40 \012SRP1[ ]	/* SetRefPoint1 */\012SRP2[ ]	/* SetRefPoint2 */\012IP[ ]	/* InterpolatePts */\012PUSHW[ ]	/* 3 values pushed */\01215 20 40 \012SRP1[ ]	/* SetRefPoint1 */\012SRP2[ ]	/* SetRefPoint2 */\012IP[ ]	/* InterpolatePts */\012PUSHW[ ]	/* 3 values pushed */\01234 20 40 \012SRP1[ ]	/* SetRefPoint1 */\012SRP2[ ]	/* SetRefPoint2 */\012IP[ ]	/* InterpolatePts */\012PUSHW[ ]	/* 3 values pushed */\01237 20 40 \012SRP1[ ]	/* SetRefPoint1 */\012SRP2[ ]	/* SetRefPoint2 */\012IP[ ]	/* InterpolatePts */\012IUP[0]	/* InterpolateUntPts */\012IUP[1]	/* InterpolateUntPts */";
};
width = 577;
}
);
leftKerningGroup = o;
leftMetricsKey = a;
note = ae;
rightKerningGroup = e;
rightMetricsKey = e;
unicode = 00E6;
},
{
glyphname = b;
lastChange = "2022-04-20 11:58:30 +0000";
layers = (
{
layerId = "9AA098C0-EDBC-463F-BC21-AFCD07A070D0";
paths = (
{
closed = 1;
nodes = (
"254 -7 OFFCURVE",
"274 48 OFFCURVE",
"285 124 CURVE SMOOTH",
"321 372 LINE SMOOTH",
"323 387 OFFCURVE",
"325 401 OFFCURVE",
"325 414 CURVE SMOOTH",
"325 468 OFFCURVE",
"302 503 OFFCURVE",
"221 503 CURVE SMOOTH",
"154 503 OFFCURVE",
"124 477 OFFCURVE",
"109 451 CURVE",
"134 630 LINE",
"118 630 LINE",
"46 124 LINE SMOOTH",
"44 110 OFFCURVE",
"43 97 OFFCURVE",
"43 85 CURVE SMOOTH",
"43 29 OFFCURVE",
"66 -7 OFFCURVE",
"149 -7 CURVE SMOOTH"
);
},
{
closed = 1;
nodes = (
"75 9 OFFCURVE",
"59 43 OFFCURVE",
"59 84 CURVE SMOOTH",
"59 99 OFFCURVE",
"62 116 OFFCURVE",
"64 133 CURVE SMOOTH",
"97 366 LINE SMOOTH",
"107 434 OFFCURVE",
"137 487 OFFCURVE",
"218 487 CURVE SMOOTH",
"292 487 OFFCURVE",
"308 451 OFFCURVE",
"308 410 CURVE SMOOTH",
"308 397 OFFCURVE",
"306 383 OFFCURVE",
"304 369 CURVE SMOOTH",
"271 133 LINE SMOOTH",
"263 74 OFFCURVE",
"248 9 OFFCURVE",
"150 9 CURVE SMOOTH"
);
}
);
userData = {
assembly = "SVTCA[0]	/* SetFreedomAndProjectionVectorToAxis */\012PUSHW[ ]	/* 1 value pushed */\01238 \012MDAP[1]	/* MoveDirectAbsPt */\012IUP[0]	/* InterpolateUntPts */\012IUP[1]	/* InterpolateUntPts */";
};
width = 363;
}
);
leftKerningGroup = b;
note = b;
rightKerningGroup = o;
rightMetricsKey = o;
unicode = 0062;
},
{
glyphname = c;
lastChange = "2022-04-20 12:37:29 +0000";
layers = (
{
anchors = (
{
name = bottom;
position = "{140, 0}";
},
{
name = top;
position = "{211, 495}";
}
);
layerId = "9AA098C0-EDBC-463F-BC21-AFCD07A070D0";
paths = (
{
closed = 1;
nodes = (
"257 -7 OFFCURVE",
"273 62 OFFCURVE",
"282 124 CURVE SMOOTH",
"288 167 LINE",
"272 167 LINE",
"266 127 LINE SMOOTH",
"258 74 OFFCURVE",
"244 9 OFFCURVE",
"146 9 CURVE SMOOTH",
"71 9 OFFCURVE",
"55 43 OFFCURVE",
"55 84 CURVE SMOOTH",
"55 98 OFFCURVE",
"57 112 OFFCURVE",
"59 127 CURVE SMOOTH",
"93 369 LINE SMOOTH",
"100 422 OFFCURVE",
"115 487 OFFCURVE",
"214 487 CURVE SMOOTH",
"275 487 OFFCURVE",
"298 462 OFFCURVE",
"298 430 CURVE SMOOTH",
"298 409 OFFCURVE",
"288 385 OFFCURVE",
"273 363 CURVE SMOOTH",
"239 315 LINE",
"259 315 LINE",
"298 373 LINE SMOOTH",
"310 390 OFFCURVE",
"317 411 OFFCURVE",
"317 431 CURVE SMOOTH",
"317 468 OFFCURVE",
"290 503 OFFCURVE",
"216 503 CURVE SMOOTH",
"101 503 OFFCURVE",
"85 433 OFFCURVE",
"77 372 CURVE SMOOTH",
"43 124 LINE SMOOTH",
"41 109 OFFCURVE",
"39 93 OFFCURVE",
"39 78 CURVE SMOOTH",
"39 32 OFFCURVE",
"57 -7 OFFCURVE",
"145 -7 CURVE SMOOTH"
);
}
);
width = 346;
}
);
leftKerningGroup = o;
leftMetricsKey = o;
note = c;
rightKerningGroup = c;
unicode = 0063;
},
{
glyphname = d;
lastChange = "2022-04-20 13:27:09 +0000";
layers = (
{
anchors = (
{
name = bottom;
position = "{142, 0}";
},
{
name = center;
position = "{301, 553}";
},
{
name = top;
position = "{346, 630}";
},
{
name = topright;
position = "{389, 503}";
}
);
layerId = "9AA098C0-EDBC-463F-BC21-AFCD07A070D0";
paths = (
{
closed = 1;
nodes = (
"252 -7 OFFCURVE",
"271 48 OFFCURVE",
"282 124 CURVE SMOOTH",
"355 630 LINE",
"339 630 LINE",
"314 462 LINE",
"309 476 OFFCURVE",
"283 503 OFFCURVE",
"220 503 CURVE SMOOTH",
"118 503 OFFCURVE",
"90 447 OFFCURVE",
"79 372 CURVE SMOOTH",
"42 124 LINE SMOOTH",
"40 110 OFFCURVE",
"39 97 OFFCURVE",
"39 85 CURVE SMOOTH",
"39 29 OFFCURVE",
"65 -7 OFFCURVE",
"148 -7 CURVE SMOOTH"
);
},
{
closed = 1;
nodes = (
"75 9 OFFCURVE",
"57 40 OFFCURVE",
"57 88 CURVE SMOOTH",
"57 106 OFFCURVE",
"59 125 OFFCURVE",
"62 146 CURVE SMOOTH",
"92 354 LINE SMOOTH",
"102 422 OFFCURVE",
"118 487 OFFCURVE",
"213 487 CURVE SMOOTH",
"287 487 OFFCURVE",
"308 451 OFFCURVE",
"308 417 CURVE SMOOTH",
"308 414 OFFCURVE",
"308 410 OFFCURVE",
"307 406 CURVE SMOOTH",
"266 127 LINE SMOOTH",
"254 48 OFFCURVE",
"229 9 OFFCURVE",
"150 9 CURVE SMOOTH"
);
}
);
userData = {
assembly = "SVTCA[0]	/* SetFreedomAndProjectionVectorToAxis */\012PUSHW[ ]	/* 1 value pushed */\01227 \012MDAP[1]	/* MoveDirectAbsPt */\012IUP[0]	/* InterpolateUntPts */\012IUP[1]	/* InterpolateUntPts */";
};
width = 369;
}
);
leftKerningGroup = o;
leftMetricsKey = o;
note = d;
rightKerningGroup = d;
rightMetricsKey = "=|n";
unicode = 0064;
},
{
color = 0;
glyphname = eth;
lastChange = "2022-04-20 13:36:45 +0000";
layers = (
{
layerId = "9AA098C0-EDBC-463F-BC21-AFCD07A070D0";
paths = (
{
closed = 1;
nodes = (
"236 -7 OFFCURVE",
"270 39 OFFCURVE",
"281 123 CURVE SMOOTH",
"327 449 LINE SMOOTH",
"333 493 OFFCURVE",
"337 531 OFFCURVE",
"337 561 CURVE SMOOTH",
"337 576 OFFCURVE",
"336 588 OFFCURVE",
"334 599 CURVE SMOOTH",
"323 646 OFFCURVE",
"294 658 OFFCURVE",
"259 661 CURVE",
"291 707 LINE",
"279 707 LINE",
"248 661 LINE",
"209 660 OFFCURVE",
"177 653 OFFCURVE",
"158 646 CURVE",
"157 636 LINE",
"176 642 OFFCURVE",
"217 651 OFFCURVE",
"237 651 CURVE SMOOTH",
"241 651 LINE",
"202 591 LINE",
"214 591 LINE",
"253 650 LINE",
"309 646 OFFCURVE",
"324 613 OFFCURVE",
"324 557 CURVE SMOOTH",
"324 530 OFFCURVE",
"321 499 OFFCURVE",
"317 463 CURVE",
"300 486 OFFCURVE",
"269 503 OFFCURVE",
"214 503 CURVE SMOOTH",
"110 503 OFFCURVE",
"87 447 OFFCURVE",
"77 372 CURVE SMOOTH",
"42 124 LINE SMOOTH",
"40 109 OFFCURVE",
"39 94 OFFCURVE",
"39 81 CURVE SMOOTH",
"39 27 OFFCURVE",
"60 -7 OFFCURVE",
"143 -7 CURVE SMOOTH"
);
},
{
closed = 1;
nodes = (
"69 3 OFFCURVE",
"50 36 OFFCURVE",
"50 85 CURVE SMOOTH",
"50 98 OFFCURVE",
"51 112 OFFCURVE",
"53 127 CURVE SMOOTH",
"87 369 LINE SMOOTH",
"97 439 OFFCURVE",
"119 493 OFFCURVE",
"213 493 CURVE SMOOTH",
"279 493 OFFCURVE",
"285 475 OFFCURVE",
"315 445 CURVE",
"270 127 LINE SMOOTH",
"260 59 OFFCURVE",
"242 3 OFFCURVE",
"144 3 CURVE SMOOTH"
);
}
);
userData = {
assembly = "PUSHW[ ]	/* 3 values pushed */\01268 47 3 \012CALL[ ]	/* CallFunction */\012SVTCA[0]	/* SetFreedomAndProjectionVectorToAxis */\012PUSHW[ ]	/* 1 value pushed */\01252 \012MDAP[1]	/* MoveDirectAbsPt */\012IUP[0]	/* InterpolateUntPts */\012IUP[1]	/* InterpolateUntPts */";
};
width = 357;
}
);
leftKerningGroup = o;
note = eth;
rightKerningGroup = o;
unicode = 00F0;
},
{
glyphname = e;
lastChange = "2022-04-20 11:59:24 +0000";
layers = (
{
anchors = (
{
name = bottom;
position = "{145, 0}";
},
{
name = ogonek;
position = "{236, 10}";
},
{
name = top;
position = "{215, 495}";
}
);
layerId = "9AA098C0-EDBC-463F-BC21-AFCD07A070D0";
paths = (
{
closed = 1;
nodes = (
"257 -7 OFFCURVE",
"273 62 OFFCURVE",
"282 124 CURVE SMOOTH",
"288 167 LINE",
"272 167 LINE",
"266 127 LINE SMOOTH",
"257 66 OFFCURVE",
"244 9 OFFCURVE",
"146 9 CURVE SMOOTH",
"71 9 OFFCURVE",
"55 42 OFFCURVE",
"55 84 CURVE SMOOTH",
"55 98 OFFCURVE",
"57 112 OFFCURVE",
"59 127 CURVE SMOOTH",
"73 228 LINE",
"189 241 OFFCURVE",
"300 263 OFFCURVE",
"316 372 CURVE SMOOTH",
"318 387 OFFCURVE",
"320 403 OFFCURVE",
"320 417 CURVE SMOOTH",
"320 465 OFFCURVE",
"301 503 OFFCURVE",
"216 503 CURVE SMOOTH",
"105 503 OFFCURVE",
"85 433 OFFCURVE",
"77 372 CURVE SMOOTH",
"43 124 LINE SMOOTH",
"41 109 OFFCURVE",
"39 93 OFFCURVE",
"39 78 CURVE SMOOTH",
"39 32 OFFCURVE",
"57 -7 OFFCURVE",
"144 -7 CURVE SMOOTH"
);
},
{
closed = 1;
nodes = (
"92 363 LINE SMOOTH",
"103 438 OFFCURVE",
"125 487 OFFCURVE",
"214 487 CURVE SMOOTH",
"288 487 OFFCURVE",
"304 458 OFFCURVE",
"304 418 CURVE SMOOTH",
"304 403 OFFCURVE",
"302 388 OFFCURVE",
"300 372 CURVE SMOOTH",
"289 293 OFFCURVE",
"199 252 OFFCURVE",
"75 244 CURVE"
);
}
);
width = 354;
}
);
leftKerningGroup = o;
leftMetricsKey = o;
note = e;
rightKerningGroup = e;
unicode = 0065;
},
{
glyphname = f;
lastChange = "2022-04-20 12:00:30 +0000";
layers = (
{
background = {
paths = (
{
closed = 1;
nodes = (
"-56 -116 OFFCURVE",
"-52 -115 OFFCURVE",
"-48 -115 CURVE SMOOTH",
"-1 -112 OFFCURVE",
"36 -91 OFFCURVE",
"45 -31 CURVE SMOOTH",
"114 461 LINE",
"232 461 LINE",
"233 471 LINE",
"115 471 LINE",
"127 552 LINE SMOOTH",
"133 590 OFFCURVE",
"151 627 OFFCURVE",
"196 627 CURVE SMOOTH",
"213 627 OFFCURVE",
"228 626 OFFCURVE",
"239 625 CURVE SMOOTH",
"256 623 LINE",
"256 632 LINE",
"244 635 OFFCURVE",
"223 636 OFFCURVE",
"198 636 CURVE SMOOTH",
"146 636 OFFCURVE",
"123 603 OFFCURVE",
"115 547 CURVE SMOOTH",
"104 471 LINE",
"73 471 LINE",
"72 461 LINE",
"103 461 LINE",
"33 -32 LINE SMOOTH",
"26 -79 OFFCURVE",
"-5 -101 OFFCURVE",
"-46 -105 CURVE SMOOTH",
"-51 -106 OFFCURVE",
"-57 -106 OFFCURVE",
"-63 -106 CURVE SMOOTH",
"-69 -106 OFFCURVE",
"-75 -105 OFFCURVE",
"-82 -104 CURVE",
"-84 -114 LINE",
"-76 -115 OFFCURVE",
"-68 -116 OFFCURVE",
"-60 -116 CURVE SMOOTH"
);
}
);
};
layerId = "9AA098C0-EDBC-463F-BC21-AFCD07A070D0";
paths = (
{
closed = 1;
nodes = (
"20 -117 OFFCURVE",
"39 -86 OFFCURVE",
"51 0 CURVE SMOOTH",
"116 458 LINE",
"232 458 LINE",
"234 474 LINE",
"118 474 LINE",
"128 548 LINE SMOOTH",
"133 585 OFFCURVE",
"150 621 OFFCURVE",
"195 621 CURVE SMOOTH",
"214 621 OFFCURVE",
"230 619 OFFCURVE",
"254 616 CURVE",
"256 632 LINE",
"247 633 OFFCURVE",
"223 636 OFFCURVE",
"198 636 CURVE SMOOTH",
"146 636 OFFCURVE",
"120 605 OFFCURVE",
"112 543 CURVE SMOOTH",
"102 474 LINE",
"71 474 LINE",
"69 458 LINE",
"100 458 LINE",
"35 0 LINE SMOOTH",
"24 -73 OFFCURVE",
"13 -103 OFFCURVE",
"-36 -103 CURVE SMOOTH",
"-55 -103 OFFCURVE",
"-76 -101 OFFCURVE",
"-82 -100 CURVE",
"-84 -114 LINE",
"-78 -115 OFFCURVE",
"-64 -118 OFFCURVE",
"-39 -118 CURVE SMOOTH"
);
}
);
userData = {
assembly = "SVTCA[0]	/* SetFreedomAndProjectionVectorToAxis */\012PUSHW[ ]	/* 4 values pushed */\0127 3 21 4 \012CALL[ ]	/* CallFunction */\012IUP[0]	/* InterpolateUntPts */\012IUP[1]	/* InterpolateUntPts */";
};
width = 184;
}
);
note = f;
unicode = 0066;
},
{
glyphname = g;
lastChange = "2022-04-20 10:57:09 +0000";
layers = (
{
anchors = (
{
name = bottom;
position = "{127, -116}";
},
{
name = top;
position = "{213, 495}";
}
);
layerId = "9AA098C0-EDBC-463F-BC21-AFCD07A070D0";
paths = (
{
closed = 1;
nodes = (
"208 -115 OFFCURVE",
"252 -71 OFFCURVE",
"263 5 CURVE SMOOTH",
"332 495 LINE",
"319 495 LINE",
"312 466 LINE",
"305 474 OFFCURVE",
"282 503 OFFCURVE",
"213 503 CURVE SMOOTH",
"100 503 OFFCURVE",
"85 433 OFFCURVE",
"76 372 CURVE SMOOTH",
"46 155 LINE SMOOTH",
"44 140 OFFCURVE",
"42 125 OFFCURVE",
"42 111 CURVE SMOOTH",
"42 64 OFFCURVE",
"61 24 OFFCURVE",
"147 24 CURVE SMOOTH",
"201 24 OFFCURVE",
"244 51 OFFCURVE",
"258 78 CURVE",
"247 3 LINE SMOOTH",
"236 -78 OFFCURVE",
"181 -99 OFFCURVE",
"127 -99 CURVE SMOOTH",
"97 -99 OFFCURVE",
"55 -99 OFFCURVE",
"50 -65 CURVE",
"34 -65 LINE",
"33 -104 OFFCURVE",
"71 -115 OFFCURVE",
"125 -115 CURVE SMOOTH"
);
},
{
closed = 1;
nodes = (
"74 40 OFFCURVE",
"59 74 OFFCURVE",
"59 113 CURVE SMOOTH",
"59 128 OFFCURVE",
"61 144 OFFCURVE",
"63 158 CURVE SMOOTH",
"92 369 LINE SMOOTH",
"99 422 OFFCURVE",
"108 487 OFFCURVE",
"211 487 CURVE SMOOTH",
"293 487 OFFCURVE",
"304 450 OFFCURVE",
"308 437 CURVE",
"270 158 LINE SMOOTH",
"261 96 OFFCURVE",
"233 40 OFFCURVE",
"149 40 CURVE SMOOTH"
);
}
);
userData = {
assembly = "SVTCA[0]	/* SetFreedomAndProjectionVectorToAxis */\012PUSHW[ ]	/* 1 value pushed */\0120 \012RCVT[ ]	/* ReadCVT */\012IF[ ]	/* If */\012PUSHW[ ]	/* 1 value pushed */\01238 \012MDAP[1]	/* MoveDirectAbsPt */\012ELSE[ ]	/* Else */\012PUSHW[ ]	/* 2 values pushed */\01238 9 \012MIAP[0]	/* MoveIndirectAbsPt */\012EIF[ ]	/* EndIf */\012PUSHW[ ]	/* 1 value pushed */\0120 \012RCVT[ ]	/* ReadCVT */\012IF[ ]	/* If */\012PUSHW[ ]	/* 1 value pushed */\01256 \012MDAP[1]	/* MoveDirectAbsPt */\012ELSE[ ]	/* Else */\012PUSHW[ ]	/* 2 values pushed */\01256 9 \012MIAP[0]	/* MoveIndirectAbsPt */\012EIF[ ]	/* EndIf */\012PUSHW[ ]	/* 1 value pushed */\0120 \012RCVT[ ]	/* ReadCVT */\012IF[ ]	/* If */\012PUSHW[ ]	/* 1 value pushed */\0120 \012MDAP[1]	/* MoveDirectAbsPt */\012ELSE[ ]	/* Else */\012PUSHW[ ]	/* 2 values pushed */\0120 5 \012MIAP[0]	/* MoveIndirectAbsPt */\012EIF[ ]	/* EndIf */\012PUSHW[ ]	/* 3 values pushed */\01220 0 38 \012SRP1[ ]	/* SetRefPoint1 */\012SRP2[ ]	/* SetRefPoint2 */\012IP[ ]	/* InterpolatePts */\012PUSHW[ ]	/* 3 values pushed */\01237 0 38 \012SRP1[ ]	/* SetRefPoint1 */\012SRP2[ ]	/* SetRefPoint2 */\012IP[ ]	/* InterpolatePts */\012IUP[0]	/* InterpolateUntPts */\012IUP[1]	/* InterpolateUntPts */";
};
width = 365;
}
);
leftKerningGroup = o;
leftMetricsKey = o;
note = g;
rightKerningGroup = g;
rightMetricsKey = "=|n";
unicode = 0067;
},
{
glyphname = h;
lastChange = "2022-04-20 12:01:28 +0000";
layers = (
{
anchors = (
{
name = bottom;
position = "{153, 0}";
},
{
name = center;
position = "{157, 560}";
},
{
name = top;
position = "{129, 630}";
}
);
layerId = "9AA098C0-EDBC-463F-BC21-AFCD07A070D0";
paths = (
{
closed = 1;
nodes = (
"50 0 LINE",
"98 348 LINE",
"109 409 OFFCURVE",
"149 487 OFFCURVE",
"227 487 CURVE SMOOTH",
"301 487 OFFCURVE",
"317 451 OFFCURVE",
"317 409 CURVE SMOOTH",
"317 394 OFFCURVE",
"315 378 OFFCURVE",
"313 363 CURVE SMOOTH",
"262 0 LINE",
"278 0 LINE",
"330 372 LINE SMOOTH",
"332 386 OFFCURVE",
"334 401 OFFCURVE",
"334 416 CURVE SMOOTH",
"334 462 OFFCURVE",
"315 503 OFFCURVE",
"229 503 CURVE SMOOTH",
"166 503 OFFCURVE",
"131 465 OFFCURVE",
"110 426 CURVE",
"138 630 LINE",
"122 630 LINE",
"34 0 LINE"
);
}
);
userData = {
assembly = "SVTCA[0]	/* SetFreedomAndProjectionVectorToAxis */\012PUSHW[ ]	/* 1 value pushed */\0120 \012RCVT[ ]	/* ReadCVT */\012IF[ ]	/* If */\012PUSHW[ ]	/* 1 value pushed */\01212 \012MDAP[1]	/* MoveDirectAbsPt */\012ELSE[ ]	/* Else */\012PUSHW[ ]	/* 2 values pushed */\01212 5 \012MIAP[0]	/* MoveIndirectAbsPt */\012EIF[ ]	/* EndIf */\012PUSHW[ ]	/* 1 value pushed */\0120 \012RCVT[ ]	/* ReadCVT */\012IF[ ]	/* If */\012PUSHW[ ]	/* 1 value pushed */\01225 \012MDAP[1]	/* MoveDirectAbsPt */\012ELSE[ ]	/* Else */\012PUSHW[ ]	/* 2 values pushed */\01225 5 \012MIAP[0]	/* MoveIndirectAbsPt */\012EIF[ ]	/* EndIf */\012IUP[0]	/* InterpolateUntPts */\012IUP[1]	/* InterpolateUntPts */";
};
width = 374;
}
);
leftKerningGroup = n;
leftMetricsKey = n;
note = h;
rightKerningGroup = n;
rightMetricsKey = n;
unicode = 0068;
},
{
glyphname = idotless;
lastChange = "2022-04-20 13:36:45 +0000";
layers = (
{
anchors = (
{
name = bottom;
position = "{48, 0}";
},
{
name = ogonek;
position = "{60, 0}";
},
{
name = top;
position = "{113, 495}";
}
);
layerId = "9AA098C0-EDBC-463F-BC21-AFCD07A070D0";
paths = (
{
closed = 1;
nodes = (
"50 0 LINE",
"119 495 LINE",
"103 495 LINE",
"34 0 LINE"
);
}
);
userData = {
assembly = "SVTCA[0]	/* SetFreedomAndProjectionVectorToAxis */\012PUSHW[ ]	/* 1 value pushed */\0120 \012RCVT[ ]	/* ReadCVT */\012IF[ ]	/* If */\012PUSHW[ ]	/* 1 value pushed */\0121 \012MDAP[1]	/* MoveDirectAbsPt */\012ELSE[ ]	/* Else */\012PUSHW[ ]	/* 2 values pushed */\0121 9 \012MIAP[0]	/* MoveIndirectAbsPt */\012EIF[ ]	/* EndIf */\012PUSHW[ ]	/* 1 value pushed */\0120 \012RCVT[ ]	/* ReadCVT */\012IF[ ]	/* If */\012PUSHW[ ]	/* 1 value pushed */\0120 \012MDAP[1]	/* MoveDirectAbsPt */\012ELSE[ ]	/* Else */\012PUSHW[ ]	/* 2 values pushed */\0120 5 \012MIAP[0]	/* MoveIndirectAbsPt */\012EIF[ ]	/* EndIf */\012IUP[0]	/* InterpolateUntPts */\012IUP[1]	/* InterpolateUntPts */";
};
width = 153;
}
);
leftKerningGroup = n;
leftMetricsKey = n;
note = dotlessi;
rightKerningGroup = u;
rightMetricsKey = "=|n";
unicode = 0131;
},
{
glyphname = jdotless;
lastChange = "2022-04-20 10:56:50 +0000";
layers = (
{
anchors = (
{
name = bottom;
position = "{22, -116}";
},
{
name = top;
position = "{112, 495}";
}
);
layerId = "9AA098C0-EDBC-463F-BC21-AFCD07A070D0";
paths = (
{
closed = 1;
nodes = (
"11 -116 OFFCURVE",
"39 -86 OFFCURVE",
"47 -33 CURVE SMOOTH",
"121 495 LINE",
"105 495 LINE",
"31 -32 LINE SMOOTH",
"26 -68 OFFCURVE",
"8 -101 OFFCURVE",
"-35 -101 CURVE SMOOTH",
"-54 -101 OFFCURVE",
"-71 -99 OFFCURVE",
"-84 -97 CURVE",
"-87 -113 LINE",
"-88 -113 OFFCURVE",
"-63 -116 OFFCURVE",
"-38 -116 CURVE SMOOTH"
);
}
);
width = 154;
}
);
leftKerningGroup = j;
rightKerningGroup = j;
rightMetricsKey = "=|n";
unicode = 0237;
},
{
glyphname = k;
lastChange = "2022-04-20 12:00:59 +0000";
layers = (
{
anchors = (
{
name = bottom;
position = "{141, 0}";
},
{
name = top;
position = "{208, 630}";
}
);
layerId = "9AA098C0-EDBC-463F-BC21-AFCD07A070D0";
paths = (
{
closed = 1;
nodes = (
"50 0 LINE",
"89 280 LINE",
"112 280 LINE SMOOTH",
"157 280 OFFCURVE",
"220 103 OFFCURVE",
"233 0 CURVE",
"250 0 LINE",
"240 75 OFFCURVE",
"211 210 OFFCURVE",
"141 287 CURVE",
"169 290 OFFCURVE",
"277 392 OFFCURVE",
"312 495 CURVE",
"296 495 LINE",
"262 404 OFFCURVE",
"159 296 OFFCURVE",
"115 296 CURVE SMOOTH",
"91 296 LINE",
"138 630 LINE",
"122 630 LINE",
"34 0 LINE"
);
}
);
userData = {
assembly = "SVTCA[0]	/* SetFreedomAndProjectionVectorToAxis */\012PUSHW[ ]	/* 1 value pushed */\0120 \012RCVT[ ]	/* ReadCVT */\012IF[ ]	/* If */\012PUSHW[ ]	/* 1 value pushed */\0129 \012MDAP[1]	/* MoveDirectAbsPt */\012ELSE[ ]	/* Else */\012PUSHW[ ]	/* 2 values pushed */\0129 9 \012MIAP[0]	/* MoveIndirectAbsPt */\012EIF[ ]	/* EndIf */\012PUSHW[ ]	/* 1 value pushed */\0120 \012RCVT[ ]	/* ReadCVT */\012IF[ ]	/* If */\012PUSHW[ ]	/* 1 value pushed */\0120 \012MDAP[1]	/* MoveDirectAbsPt */\012ELSE[ ]	/* Else */\012PUSHW[ ]	/* 2 values pushed */\0120 5 \012MIAP[0]	/* MoveIndirectAbsPt */\012EIF[ ]	/* EndIf */\012PUSHW[ ]	/* 1 value pushed */\0120 \012RCVT[ ]	/* ReadCVT */\012IF[ ]	/* If */\012PUSHW[ ]	/* 1 value pushed */\01220 \012MDAP[1]	/* MoveDirectAbsPt */\012ELSE[ ]	/* Else */\012PUSHW[ ]	/* 2 values pushed */\01220 5 \012MIAP[0]	/* MoveIndirectAbsPt */\012EIF[ ]	/* EndIf */\012PUSHW[ ]	/* 3 values pushed */\01215 0 9 \012SRP1[ ]	/* SetRefPoint1 */\012SRP2[ ]	/* SetRefPoint2 */\012IP[ ]	/* InterpolatePts */\012IUP[0]	/* InterpolateUntPts */\012IUP[1]	/* InterpolateUntPts */";
};
width = 302;
}
);
leftKerningGroup = b;
leftMetricsKey = n;
note = k;
rightKerningGroup = k;
unicode = 006B;
},
{
glyphname = kgreenlandic;
lastChange = "2022-04-20 10:57:10 +0000";
layers = (
{
layerId = "9AA098C0-EDBC-463F-BC21-AFCD07A070D0";
paths = (
{
closed = 1;
nodes = (
"50 0 LINE",
"79 208 LINE",
"92 232 OFFCURVE",
"110 262 OFFCURVE",
"133 293 CURVE",
"243 0 LINE",
"260 0 LINE",
"146 309 LINE",
"197 376 OFFCURVE",
"265 444 OFFCURVE",
"329 467 CURVE",
"332 483 LINE",
"239 453 OFFCURVE",
"133 328 OFFCURVE",
"84 244 CURVE",
"138 630 LINE",
"122 630 LINE",
"34 0 LINE"
);
}
);
userData = {
assembly = "SVTCA[0]	/* SetFreedomAndProjectionVectorToAxis */\012PUSHW[ ]	/* 1 value pushed */\0120 \012RCVT[ ]	/* ReadCVT */\012IF[ ]	/* If */\012PUSHW[ ]	/* 1 value pushed */\0120 \012MDAP[1]	/* MoveDirectAbsPt */\012ELSE[ ]	/* Else */\012PUSHW[ ]	/* 2 values pushed */\0120 5 \012MIAP[0]	/* MoveIndirectAbsPt */\012EIF[ ]	/* EndIf */\012PUSHW[ ]	/* 1 value pushed */\0120 \012RCVT[ ]	/* ReadCVT */\012IF[ ]	/* If */\012PUSHW[ ]	/* 1 value pushed */\01215 \012MDAP[1]	/* MoveDirectAbsPt */\012ELSE[ ]	/* Else */\012PUSHW[ ]	/* 2 values pushed */\01215 5 \012MIAP[0]	/* MoveIndirectAbsPt */\012EIF[ ]	/* EndIf */\012IUP[0]	/* InterpolateUntPts */\012IUP[1]	/* InterpolateUntPts */";
};
width = 316;
}
);
leftKerningGroup = b;
leftMetricsKey = n;
note = kgreenlandic;
rightKerningGroup = k;
unicode = 0138;
},
{
glyphname = l;
lastChange = "2022-04-20 10:57:09 +0000";
layers = (
{
anchors = (
{
name = bottom;
position = "{41, 0}";
},
{
name = center;
position = "{85, 315}";
},
{
name = top;
position = "{130, 630}";
},
{
name = topright;
position = "{157, 514}";
}
);
layerId = "9AA098C0-EDBC-463F-BC21-AFCD07A070D0";
paths = (
{
closed = 1;
nodes = (
"50 0 LINE",
"138 630 LINE",
"122 630 LINE",
"34 0 LINE"
);
}
);
userData = {
assembly = "SVTCA[0]	/* SetFreedomAndProjectionVectorToAxis */\012PUSHW[ ]	/* 1 value pushed */\0120 \012RCVT[ ]	/* ReadCVT */\012IF[ ]	/* If */\012PUSHW[ ]	/* 1 value pushed */\0120 \012MDAP[1]	/* MoveDirectAbsPt */\012ELSE[ ]	/* Else */\012PUSHW[ ]	/* 2 values pushed */\0120 5 \012MIAP[0]	/* MoveIndirectAbsPt */\012EIF[ ]	/* EndIf */\012IUP[0]	/* InterpolateUntPts */\012IUP[1]	/* InterpolateUntPts */";
};
width = 153;
}
);
leftKerningGroup = b;
leftMetricsKey = n;
note = l;
rightKerningGroup = d;
rightMetricsKey = "=|n";
unicode = 006C;
},
{
color = 0;
glyphname = lslash;
lastChange = "2022-04-20 13:36:45 +0000";
layers = (
{
layerId = "9AA098C0-EDBC-463F-BC21-AFCD07A070D0";
paths = (
{
closed = 1;
nodes = (
"103 0 LINE",
"131 200 LINE",
"216 237 LINE",
"217 247 LINE",
"132 211 LINE",
"191 630 LINE",
"180 630 LINE",
"120 206 LINE",
"39 171 LINE",
"37 160 LINE",
"119 195 LINE",
"92 0 LINE"
);
}
);
userData = {
assembly = "SVTCA[0]	/* SetFreedomAndProjectionVectorToAxis */\012PUSHW[ ]	/* 1 value pushed */\0120 \012RCVT[ ]	/* ReadCVT */\012IF[ ]	/* If */\012PUSHW[ ]	/* 1 value pushed */\0120 \012MDAP[1]	/* MoveDirectAbsPt */\012ELSE[ ]	/* Else */\012PUSHW[ ]	/* 2 values pushed */\0120 5 \012MIAP[0]	/* MoveIndirectAbsPt */\012EIF[ ]	/* EndIf */\012IUP[0]	/* InterpolateUntPts */\012IUP[1]	/* InterpolateUntPts */";
};
width = 266;
}
);
leftKerningGroup = b;
note = lslash;
rightKerningGroup = d;
unicode = 0142;
},
{
glyphname = m;
lastChange = "2022-04-20 12:15:48 +0000";
layers = (
{
layerId = "9AA098C0-EDBC-463F-BC21-AFCD07A070D0";
paths = (
{
closed = 1;
nodes = (
"50 0 LINE",
"90 293 LINE SMOOTH",
"104 392 OFFCURVE",
"170 487 OFFCURVE",
"247 487 CURVE SMOOTH",
"304 487 OFFCURVE",
"317 455 OFFCURVE",
"317 416 CURVE SMOOTH",
"317 400 OFFCURVE",
"315 384 OFFCURVE",
"313 367 CURVE SMOOTH",
"262 0 LINE",
"278 0 LINE",
"321 301 LINE SMOOTH",
"336 407 OFFCURVE",
"403 487 OFFCURVE",
"473 487 CURVE SMOOTH",
"532 487 OFFCURVE",
"545 454 OFFCURVE",
"545 413 CURVE SMOOTH",
"545 397 OFFCURVE",
"543 380 OFFCURVE",
"541 363 CURVE SMOOTH",
"490 0 LINE",
"506 0 LINE",
"558 372 LINE SMOOTH",
"560 388 OFFCURVE",
"562 404 OFFCURVE",
"562 419 CURVE SMOOTH",
"562 464 OFFCURVE",
"546 503 OFFCURVE",
"476 503 CURVE SMOOTH",
"407 503 OFFCURVE",
"354 449 OFFCURVE",
"333 394 CURVE",
"334 402 OFFCURVE",
"334 410 OFFCURVE",
"334 418 CURVE SMOOTH",
"334 463 OFFCURVE",
"319 503 OFFCURVE",
"252 503 CURVE SMOOTH",
"181 503 OFFCURVE",
"132 449 OFFCURVE",
"107 395 CURVE",
"119 495 LINE",
"103 495 LINE",
"34 0 LINE"
);
}
);
userData = {
assembly = "SVTCA[0]	/* SetFreedomAndProjectionVectorToAxis */\012PUSHW[ ]	/* 1 value pushed */\0120 \012RCVT[ ]	/* ReadCVT */\012IF[ ]	/* If */\012PUSHW[ ]	/* 1 value pushed */\01222 \012MDAP[1]	/* MoveDirectAbsPt */\012ELSE[ ]	/* Else */\012PUSHW[ ]	/* 2 values pushed */\01222 5 \012MIAP[0]	/* MoveIndirectAbsPt */\012EIF[ ]	/* EndIf */\012PUSHW[ ]	/* 1 value pushed */\0120 \012RCVT[ ]	/* ReadCVT */\012IF[ ]	/* If */\012PUSHW[ ]	/* 1 value pushed */\01235 \012MDAP[1]	/* MoveDirectAbsPt */\012ELSE[ ]	/* Else */\012PUSHW[ ]	/* 2 values pushed */\01235 5 \012MIAP[0]	/* MoveIndirectAbsPt */\012EIF[ ]	/* EndIf */\012PUSHW[ ]	/* 1 value pushed */\0120 \012RCVT[ ]	/* ReadCVT */\012IF[ ]	/* If */\012PUSHW[ ]	/* 1 value pushed */\01248 \012MDAP[1]	/* MoveDirectAbsPt */\012ELSE[ ]	/* Else */\012PUSHW[ ]	/* 2 values pushed */\01248 5 \012MIAP[0]	/* MoveIndirectAbsPt */\012EIF[ ]	/* EndIf */\012IUP[0]	/* InterpolateUntPts */\012IUP[1]	/* InterpolateUntPts */";
};
width = 602;
}
);
leftKerningGroup = n;
leftMetricsKey = n;
note = m;
rightKerningGroup = n;
rightMetricsKey = n;
unicode = 006D;
},
{
glyphname = n;
lastChange = "2022-04-20 12:01:17 +0000";
layers = (
{
anchors = (
{
name = bottom;
position = "{151, 0}";
},
{
name = top;
position = "{222, 495}";
}
);
background = {
paths = (
{
closed = 1;
nodes = (
"34 0 LINE",
"50 0 LINE",
"90 293 LINE SMOOTH",
"104 392 OFFCURVE",
"170 487 OFFCURVE",
"241 487 CURVE SMOOTH",
"303 487 OFFCURVE",
"317 453 OFFCURVE",
"317 412 CURVE SMOOTH",
"317 396 OFFCURVE",
"315 379 OFFCURVE",
"313 363 CURVE SMOOTH",
"262 0 LINE",
"278 0 LINE",
"330 372 LINE SMOOTH",
"332 387 OFFCURVE",
"334 403 OFFCURVE",
"334 419 CURVE SMOOTH",
"334 464 OFFCURVE",
"318 503 OFFCURVE",
"245 503 CURVE SMOOTH",
"181 503 OFFCURVE",
"127 452 OFFCURVE",
"107 395 CURVE",
"119 495 LINE",
"103 495 LINE"
);
}
);
};
layerId = "9AA098C0-EDBC-463F-BC21-AFCD07A070D0";
paths = (
{
closed = 1;
nodes = (
"50 0 LINE",
"92 305 LINE SMOOTH",
"104 392 OFFCURVE",
"170 487 OFFCURVE",
"244 487 CURVE SMOOTH",
"297 487 OFFCURVE",
"317 460 OFFCURVE",
"317 412 CURVE SMOOTH",
"317 396 OFFCURVE",
"315 379 OFFCURVE",
"313 363 CURVE SMOOTH",
"262 0 LINE",
"278 0 LINE",
"330 372 LINE SMOOTH",
"332 387 OFFCURVE",
"334 403 OFFCURVE",
"334 419 CURVE SMOOTH",
"334 472 OFFCURVE",
"309 503 OFFCURVE",
"245 503 CURVE SMOOTH",
"181 503 OFFCURVE",
"130 452 OFFCURVE",
"107 395 CURVE",
"119 495 LINE",
"103 495 LINE",
"34 0 LINE"
);
}
);
userData = {
assembly = "SVTCA[0]	/* SetFreedomAndProjectionVectorToAxis */\012PUSHW[ ]	/* 1 value pushed */\0120 \012RCVT[ ]	/* ReadCVT */\012IF[ ]	/* If */\012PUSHW[ ]	/* 1 value pushed */\01212 \012MDAP[1]	/* MoveDirectAbsPt */\012ELSE[ ]	/* Else */\012PUSHW[ ]	/* 2 values pushed */\01212 5 \012MIAP[0]	/* MoveIndirectAbsPt */\012EIF[ ]	/* EndIf */\012PUSHW[ ]	/* 1 value pushed */\0120 \012RCVT[ ]	/* ReadCVT */\012IF[ ]	/* If */\012PUSHW[ ]	/* 1 value pushed */\01225 \012MDAP[1]	/* MoveDirectAbsPt */\012ELSE[ ]	/* Else */\012PUSHW[ ]	/* 2 values pushed */\01225 5 \012MIAP[0]	/* MoveIndirectAbsPt */\012EIF[ ]	/* EndIf */\012IUP[0]	/* InterpolateUntPts */\012IUP[1]	/* InterpolateUntPts */";
};
width = 374;
}
);
leftKerningGroup = n;
note = n;
rightKerningGroup = n;
unicode = 006E;
},
{
glyphname = eng;
lastChange = "2022-04-20 12:15:48 +0000";
layers = (
{
layerId = "9AA098C0-EDBC-463F-BC21-AFCD07A070D0";
paths = (
{
closed = 1;
nodes = (
"167 -116 OFFCURVE",
"170 -115 OFFCURVE",
"174 -115 CURVE SMOOTH",
"223 -112 OFFCURVE",
"261 -91 OFFCURVE",
"269 -31 CURVE SMOOTH",
"326 372 LINE SMOOTH",
"328 387 OFFCURVE",
"329 401 OFFCURVE",
"329 414 CURVE SMOOTH",
"329 467 OFFCURVE",
"308 503 OFFCURVE",
"225 503 CURVE SMOOTH",
"162 503 OFFCURVE",
"127 476 OFFCURVE",
"108 445 CURVE",
"112 495 LINE",
"103 495 LINE",
"34 0 LINE",
"46 0 LINE",
"104 417 LINE",
"117 458 OFFCURVE",
"158 493 OFFCURVE",
"224 493 CURVE SMOOTH",
"299 493 OFFCURVE",
"318 461 OFFCURVE",
"318 413 CURVE SMOOTH",
"318 399 OFFCURVE",
"316 385 OFFCURVE",
"314 369 CURVE SMOOTH",
"257 -32 LINE SMOOTH",
"250 -84 OFFCURVE",
"213 -106 OFFCURVE",
"161 -106 CURVE SMOOTH",
"154 -106 OFFCURVE",
"146 -105 OFFCURVE",
"139 -104 CURVE",
"138 -114 LINE",
"146 -115 OFFCURVE",
"155 -116 OFFCURVE",
"163 -116 CURVE SMOOTH"
);
}
);
userData = {
assembly = "SVTCA[0]	/* SetFreedomAndProjectionVectorToAxis */\012PUSHW[ ]	/* 1 value pushed */\0120 \012RCVT[ ]	/* ReadCVT */\012IF[ ]	/* If */\012PUSHW[ ]	/* 1 value pushed */\01218 \012MDAP[1]	/* MoveDirectAbsPt */\012ELSE[ ]	/* Else */\012PUSHW[ ]	/* 2 values pushed */\01218 9 \012MIAP[0]	/* MoveIndirectAbsPt */\012EIF[ ]	/* EndIf */\012PUSHW[ ]	/* 1 value pushed */\0120 \012RCVT[ ]	/* ReadCVT */\012IF[ ]	/* If */\012PUSHW[ ]	/* 1 value pushed */\01226 \012MDAP[1]	/* MoveDirectAbsPt */\012ELSE[ ]	/* Else */\012PUSHW[ ]	/* 2 values pushed */\01226 9 \012MIAP[0]	/* MoveIndirectAbsPt */\012EIF[ ]	/* EndIf */\012PUSHW[ ]	/* 1 value pushed */\0120 \012RCVT[ ]	/* ReadCVT */\012IF[ ]	/* If */\012PUSHW[ ]	/* 1 value pushed */\01224 \012MDAP[1]	/* MoveDirectAbsPt */\012ELSE[ ]	/* Else */\012PUSHW[ ]	/* 2 values pushed */\01224 5 \012MIAP[0]	/* MoveIndirectAbsPt */\012EIF[ ]	/* EndIf */\012PUSHW[ ]	/* 4 values pushed */\01231 3 23 4 \012CALL[ ]	/* CallFunction */\012PUSHW[ ]	/* 3 values pushed */\01228 23 31 \012SRP1[ ]	/* SetRefPoint1 */\012SRP2[ ]	/* SetRefPoint2 */\012IP[ ]	/* InterpolatePts */\012IUP[0]	/* InterpolateUntPts */\012IUP[1]	/* InterpolateUntPts */";
};
width = 370;
}
);
leftKerningGroup = n;
leftMetricsKey = n;
note = eng;
rightKerningGroup = n;
rightMetricsKey = n;
unicode = 014B;
},
{
glyphname = o;
lastChange = "2022-04-20 10:56:50 +0000";
layers = (
{
anchors = (
{
name = bottom;
position = "{143, 0}";
},
{
name = center;
position = "{178, 248}";
},
{
name = ogonek;
position = "{172, 0}";
},
{
name = top;
position = "{216, 495}";
},
{
name = topright;
position = "{246, 495}";
}
);
layerId = "9AA098C0-EDBC-463F-BC21-AFCD07A070D0";
paths = (
{
closed = 1;
nodes = (
"256 -7 OFFCURVE",
"277 62 OFFCURVE",
"286 124 CURVE SMOOTH",
"320 372 LINE SMOOTH",
"322 385 OFFCURVE",
"323 399 OFFCURVE",
"323 412 CURVE SMOOTH",
"323 460 OFFCURVE",
"304 503 OFFCURVE",
"219 503 CURVE SMOOTH",
"100 503 OFFCURVE",
"85 433 OFFCURVE",
"76 372 CURVE SMOOTH",
"42 124 LINE SMOOTH",
"40 109 OFFCURVE",
"38 93 OFFCURVE",
"38 78 CURVE SMOOTH",
"38 32 OFFCURVE",
"56 -7 OFFCURVE",
"143 -7 CURVE SMOOTH"
);
},
{
closed = 1;
nodes = (
"69 9 OFFCURVE",
"54 43 OFFCURVE",
"54 83 CURVE SMOOTH",
"54 97 OFFCURVE",
"56 113 OFFCURVE",
"58 127 CURVE SMOOTH",
"92 369 LINE SMOOTH",
"99 422 OFFCURVE",
"109 487 OFFCURVE",
"217 487 CURVE SMOOTH",
"292 487 OFFCURVE",
"307 450 OFFCURVE",
"307 409 CURVE SMOOTH",
"307 395 OFFCURVE",
"306 382 OFFCURVE",
"304 369 CURVE SMOOTH",
"270 127 LINE SMOOTH",
"263 74 OFFCURVE",
"248 9 OFFCURVE",
"145 9 CURVE SMOOTH"
);
}
);
width = 362;
}
);
leftKerningGroup = o;
note = o;
rightKerningGroup = o;
rightMetricsKey = "=|";
unicode = 006F;
},
{
glyphname = oslash;
lastChange = "2022-04-20 10:57:10 +0000";
layers = (
{
anchors = (
{
name = top;
position = "{212, 495}";
}
);
layerId = "9AA098C0-EDBC-463F-BC21-AFCD07A070D0";
paths = (
{
closed = 1;
nodes = (
"-3 -46 LINE",
"46 31 LINE",
"60 8 OFFCURVE",
"87 -7 OFFCURVE",
"141 -7 CURVE SMOOTH",
"254 -7 OFFCURVE",
"275 62 OFFCURVE",
"284 124 CURVE SMOOTH",
"318 372 LINE SMOOTH",
"320 385 OFFCURVE",
"321 398 OFFCURVE",
"321 411 CURVE SMOOTH",
"321 424 OFFCURVE",
"320 437 OFFCURVE",
"316 448 CURVE",
"381 548 LINE",
"362 548 LINE",
"309 465 LINE",
"295 488 OFFCURVE",
"268 503 OFFCURVE",
"217 503 CURVE SMOOTH",
"98 503 OFFCURVE",
"82 433 OFFCURVE",
"74 372 CURVE SMOOTH",
"40 124 LINE SMOOTH",
"38 109 OFFCURVE",
"36 93 OFFCURVE",
"36 78 CURVE SMOOTH",
"36 68 OFFCURVE",
"37 58 OFFCURVE",
"39 49 CURVE",
"-22 -46 LINE"
);
},
{
closed = 1;
nodes = (
"91 9 OFFCURVE",
"67 25 OFFCURVE",
"58 48 CURVE",
"304 429 LINE",
"305 422 OFFCURVE",
"305 416 OFFCURVE",
"305 409 CURVE SMOOTH",
"305 395 OFFCURVE",
"304 382 OFFCURVE",
"302 369 CURVE SMOOTH",
"268 127 LINE SMOOTH",
"261 74 OFFCURVE",
"246 9 OFFCURVE",
"143 9 CURVE SMOOTH"
);
},
{
closed = 1;
nodes = (
"51 88 OFFCURVE",
"54 108 OFFCURVE",
"56 127 CURVE SMOOTH",
"90 369 LINE SMOOTH",
"97 422 OFFCURVE",
"107 487 OFFCURVE",
"215 487 CURVE SMOOTH",
"264 487 OFFCURVE",
"287 471 OFFCURVE",
"298 449 CURVE",
"53 69 LINE"
);
}
);
userData = {
assembly = "PUSHW[ ]	/* 4 values pushed */\01213 4 9 4 \012CALL[ ]	/* CallFunction */\012PUSHW[ ]	/* 3 values pushed */\01233 9 13 \012SRP1[ ]	/* SetRefPoint1 */\012SRP2[ ]	/* SetRefPoint2 */\012IP[ ]	/* InterpolatePts */\012PUSHW[ ]	/* 1 value pushed */\01213 \012SRP0[ ]	/* SetRefPoint0 */\012PUSHW[ ]	/* 1 value pushed */\01259 \012MDRP[11100]	/* MoveDirectRelPt */\012SVTCA[0]	/* SetFreedomAndProjectionVectorToAxis */\012PUSHW[ ]	/* 3 values pushed */\01213 28 3 \012CALL[ ]	/* CallFunction */\012PUSHW[ ]	/* 3 values pushed */\01233 28 13 \012SRP1[ ]	/* SetRefPoint1 */\012SRP2[ ]	/* SetRefPoint2 */\012IP[ ]	/* InterpolatePts */\012PUSHW[ ]	/* 3 values pushed */\01248 28 13 \012SRP1[ ]	/* SetRefPoint1 */\012SRP2[ ]	/* SetRefPoint2 */\012IP[ ]	/* InterpolatePts */\012IUP[0]	/* InterpolateUntPts */\012IUP[1]	/* InterpolateUntPts */";
};
width = 362;
}
);
leftKerningGroup = o;
note = oslash;
rightKerningGroup = o;
unicode = 00F8;
},
{
glyphname = oe;
lastChange = "2022-04-20 12:01:42 +0000";
layers = (
{
anchors = (
{
name = bottom;
position = "{372, 0}";
},
{
name = center;
position = "{178, 248}";
},
{
name = ogonek;
position = "{463, 10}";
},
{
name = top;
position = "{442, 495}";
},
{
name = topright;
position = "{246, 495}";
}
);
background = {
paths = (
{
closed = 1;
nodes = (
"220 -7 OFFCURVE",
"252 25 OFFCURVE",
"267 64 CURVE",
"273 18 OFFCURVE",
"304 -7 OFFCURVE",
"373 -7 CURVE SMOOTH",
"477 -7 OFFCURVE",
"499 48 OFFCURVE",
"509 124 CURVE SMOOTH",
"515 167 LINE",
"504 167 LINE",
"499 127 LINE SMOOTH",
"489 57 OFFCURVE",
"469 3 OFFCURVE",
"374 3 CURVE SMOOTH",
"298 3 OFFCURVE",
"278 35 OFFCURVE",
"278 84 CURVE SMOOTH",
"278 97 OFFCURVE",
"280 112 OFFCURVE",
"282 127 CURVE SMOOTH",
"296 228 LINE",
"339 231 OFFCURVE",
"378 239 OFFCURVE",
"413 251 CURVE SMOOTH",
"475 271 OFFCURVE",
"535 309 OFFCURVE",
"545 372 CURVE SMOOTH",
"547 388 OFFCURVE",
"549 403 OFFCURVE",
"549 417 CURVE SMOOTH",
"549 469 OFFCURVE",
"528 503 OFFCURVE",
"445 503 CURVE SMOOTH",
"366 503 OFFCURVE",
"334 469 OFFCURVE",
"319 428 CURVE",
"313 476 OFFCURVE",
"288 503 OFFCURVE",
"215 503 CURVE SMOOTH",
"111 503 OFFCURVE",
"87 446 OFFCURVE",
"77 372 CURVE SMOOTH",
"42 124 LINE SMOOTH",
"40 109 OFFCURVE",
"39 94 OFFCURVE",
"39 81 CURVE SMOOTH",
"39 27 OFFCURVE",
"60 -7 OFFCURVE",
"144 -7 CURVE SMOOTH"
);
},
{
closed = 1;
nodes = (
"70 3 OFFCURVE",
"50 36 OFFCURVE",
"50 86 CURVE SMOOTH",
"50 98 OFFCURVE",
"51 112 OFFCURVE",
"53 127 CURVE SMOOTH",
"87 369 LINE SMOOTH",
"97 440 OFFCURVE",
"120 493 OFFCURVE",
"214 493 CURVE SMOOTH",
"289 493 OFFCURVE",
"308 461 OFFCURVE",
"308 413 CURVE SMOOTH",
"308 399 OFFCURVE",
"306 385 OFFCURVE",
"304 369 CURVE SMOOTH",
"270 127 LINE SMOOTH",
"260 57 OFFCURVE",
"240 3 OFFCURVE",
"145 3 CURVE SMOOTH"
);
},
{
closed = 1;
nodes = (
"316 369 LINE SMOOTH",
"326 439 OFFCURVE",
"350 493 OFFCURVE",
"444 493 CURVE SMOOTH",
"518 493 OFFCURVE",
"538 461 OFFCURVE",
"538 415 CURVE SMOOTH",
"538 402 OFFCURVE",
"536 388 OFFCURVE",
"534 374 CURVE SMOOTH",
"526 314 OFFCURVE",
"466 279 OFFCURVE",
"409 260 CURVE SMOOTH",
"376 249 OFFCURVE",
"339 241 OFFCURVE",
"298 238 CURVE"
);
}
);
};
layerId = "9AA098C0-EDBC-463F-BC21-AFCD07A070D0";
paths = (
{
closed = 1;
nodes = (
"215 -7 OFFCURVE",
"249 21 OFFCURVE",
"267 57 CURVE",
"273 21 OFFCURVE",
"298 -7 OFFCURVE",
"371 -7 CURVE SMOOTH",
"484 -7 OFFCURVE",
"500 62 OFFCURVE",
"509 124 CURVE SMOOTH",
"515 167 LINE",
"499 167 LINE",
"493 127 LINE SMOOTH",
"484 66 OFFCURVE",
"471 9 OFFCURVE",
"373 9 CURVE SMOOTH",
"298 9 OFFCURVE",
"282 43 OFFCURVE",
"282 84 CURVE SMOOTH",
"282 93 OFFCURVE",
"283 103 OFFCURVE",
"284 112 CURVE SMOOTH",
"285 116 OFFCURVE",
"285 120 OFFCURVE",
"286 124 CURVE SMOOTH",
"300 228 LINE",
"416 241 OFFCURVE",
"527 263 OFFCURVE",
"543 372 CURVE SMOOTH",
"545 387 OFFCURVE",
"547 403 OFFCURVE",
"547 417 CURVE SMOOTH",
"547 465 OFFCURVE",
"528 503 OFFCURVE",
"443 503 CURVE SMOOTH",
"372 503 OFFCURVE",
"338 475 OFFCURVE",
"321 438 CURVE",
"314 475 OFFCURVE",
"289 503 OFFCURVE",
"219 503 CURVE SMOOTH",
"100 503 OFFCURVE",
"85 433 OFFCURVE",
"76 372 CURVE SMOOTH",
"42 124 LINE SMOOTH",
"40 109 OFFCURVE",
"38 93 OFFCURVE",
"38 78 CURVE SMOOTH",
"38 32 OFFCURVE",
"56 -7 OFFCURVE",
"143 -7 CURVE SMOOTH"
);
},
{
closed = 1;
nodes = (
"69 9 OFFCURVE",
"54 43 OFFCURVE",
"54 83 CURVE SMOOTH",
"54 97 OFFCURVE",
"56 113 OFFCURVE",
"58 127 CURVE SMOOTH",
"92 369 LINE SMOOTH",
"99 422 OFFCURVE",
"109 487 OFFCURVE",
"217 487 CURVE SMOOTH",
"292 487 OFFCURVE",
"307 449 OFFCURVE",
"307 408 CURVE SMOOTH",
"307 401 OFFCURVE",
"307 393 OFFCURVE",
"306 385 CURVE SMOOTH",
"305 381 OFFCURVE",
"305 376 OFFCURVE",
"304 372 CURVE SMOOTH",
"287 248 LINE",
"270 127 LINE SMOOTH",
"263 74 OFFCURVE",
"248 9 OFFCURVE",
"145 9 CURVE SMOOTH"
);
},
{
closed = 1;
nodes = (
"313 322 LINE",
"319 363 LINE SMOOTH",
"330 438 OFFCURVE",
"352 487 OFFCURVE",
"441 487 CURVE SMOOTH",
"515 487 OFFCURVE",
"531 458 OFFCURVE",
"531 418 CURVE SMOOTH",
"531 403 OFFCURVE",
"529 388 OFFCURVE",
"527 372 CURVE SMOOTH",
"516 293 OFFCURVE",
"426 252 OFFCURVE",
"302 244 CURVE"
);
}
);
userData = {
assembly = "SVTCA[0]	/* SetFreedomAndProjectionVectorToAxis */\012PUSHW[ ]	/* 4 values pushed */\01225 1 30 4 \012CALL[ ]	/* CallFunction */\012PUSHW[ ]	/* 1 value pushed */\01225 \012SRP0[ ]	/* SetRefPoint0 */\012PUSHW[ ]	/* 1 value pushed */\01233 \012MDRP[10000]	/* MoveDirectRelPt */\012IUP[0]	/* InterpolateUntPts */\012IUP[1]	/* InterpolateUntPts */";
};
width = 581;
}
);
leftKerningGroup = o;
leftMetricsKey = o;
note = oe;
rightKerningGroup = e;
rightMetricsKey = e;
unicode = 0153;
},
{
glyphname = p;
lastChange = "2022-04-20 10:57:09 +0000";
layers = (
{
layerId = "9AA098C0-EDBC-463F-BC21-AFCD07A070D0";
paths = (
{
closed = 1;
nodes = (
"34 -116 LINE",
"56 39 LINE",
"63 20 OFFCURVE",
"86 -7 OFFCURVE",
"153 -7 CURVE SMOOTH",
"266 -7 OFFCURVE",
"281 62 OFFCURVE",
"290 124 CURVE SMOOTH",
"325 372 LINE SMOOTH",
"327 386 OFFCURVE",
"329 401 OFFCURVE",
"329 416 CURVE SMOOTH",
"329 462 OFFCURVE",
"310 503 OFFCURVE",
"224 503 CURVE SMOOTH",
"155 503 OFFCURVE",
"123 471 OFFCURVE",
"112 449 CURVE",
"117 495 LINE",
"103 495 LINE",
"18 -116 LINE"
);
},
{
closed = 1;
nodes = (
"79 9 OFFCURVE",
"64 43 OFFCURVE",
"64 83 CURVE SMOOTH",
"64 97 OFFCURVE",
"66 113 OFFCURVE",
"68 127 CURVE SMOOTH",
"101 363 LINE SMOOTH",
"110 428 OFFCURVE",
"126 487 OFFCURVE",
"222 487 CURVE SMOOTH",
"297 487 OFFCURVE",
"313 455 OFFCURVE",
"313 415 CURVE SMOOTH",
"313 401 OFFCURVE",
"311 385 OFFCURVE",
"309 369 CURVE SMOOTH",
"275 127 LINE SMOOTH",
"268 74 OFFCURVE",
"258 9 OFFCURVE",
"155 9 CURVE SMOOTH"
);
}
);
userData = {
assembly = "SVTCA[0]	/* SetFreedomAndProjectionVectorToAxis */\012PUSHW[ ]	/* 1 value pushed */\01238 \012MDAP[1]	/* MoveDirectAbsPt */\012IUP[0]	/* InterpolateUntPts */\012IUP[1]	/* InterpolateUntPts */";
};
width = 367;
}
);
leftKerningGroup = n;
leftMetricsKey = n;
note = p;
rightKerningGroup = o;
rightMetricsKey = o;
unicode = 0070;
},
{
glyphname = thorn;
lastChange = "2022-04-20 13:36:45 +0000";
layers = (
{
layerId = "9AA098C0-EDBC-463F-BC21-AFCD07A070D0";
paths = (
{
closed = 1;
nodes = (
"34 -116 LINE",
"55 38 LINE",
"60 16 OFFCURVE",
"86 -7 OFFCURVE",
"153 -7 CURVE SMOOTH",
"266 -7 OFFCURVE",
"282 62 OFFCURVE",
"290 124 CURVE SMOOTH",
"325 372 LINE SMOOTH",
"327 387 OFFCURVE",
"329 402 OFFCURVE",
"329 417 CURVE SMOOTH",
"329 463 OFFCURVE",
"311 503 OFFCURVE",
"225 503 CURVE SMOOTH",
"156 503 OFFCURVE",
"123 471 OFFCURVE",
"112 445 CURVE",
"138 630 LINE",
"122 630 LINE",
"18 -116 LINE"
);
},
{
closed = 1;
nodes = (
"79 9 OFFCURVE",
"64 43 OFFCURVE",
"64 82 CURVE SMOOTH",
"64 97 OFFCURVE",
"66 112 OFFCURVE",
"68 127 CURVE SMOOTH",
"101 363 LINE SMOOTH",
"110 428 OFFCURVE",
"126 487 OFFCURVE",
"222 487 CURVE SMOOTH",
"297 487 OFFCURVE",
"313 455 OFFCURVE",
"313 415 CURVE SMOOTH",
"313 401 OFFCURVE",
"311 385 OFFCURVE",
"309 369 CURVE SMOOTH",
"275 127 LINE SMOOTH",
"267 74 OFFCURVE",
"258 9 OFFCURVE",
"155 9 CURVE SMOOTH"
);
}
);
userData = {
assembly = "SVTCA[0]	/* SetFreedomAndProjectionVectorToAxis */\012PUSHW[ ]	/* 1 value pushed */\01238 \012MDAP[1]	/* MoveDirectAbsPt */\012IUP[0]	/* InterpolateUntPts */\012IUP[1]	/* InterpolateUntPts */";
};
width = 367;
}
);
leftMetricsKey = n;
note = thorn;
rightKerningGroup = o;
rightMetricsKey = o;
unicode = 00FE;
},
{
glyphname = q;
lastChange = "2022-04-20 13:36:45 +0000";
layers = (
{
layerId = "9AA098C0-EDBC-463F-BC21-AFCD07A070D0";
paths = (
{
closed = 1;
nodes = (
"248 -116 LINE",
"333 495 LINE",
"319 495 LINE",
"310 445 LINE",
"307 471 OFFCURVE",
"283 503 OFFCURVE",
"214 503 CURVE SMOOTH",
"101 503 OFFCURVE",
"86 433 OFFCURVE",
"77 372 CURVE SMOOTH",
"42 124 LINE SMOOTH",
"40 110 OFFCURVE",
"38 95 OFFCURVE",
"38 80 CURVE SMOOTH",
"38 34 OFFCURVE",
"56 -7 OFFCURVE",
"143 -7 CURVE SMOOTH",
"210 -7 OFFCURVE",
"242 16 OFFCURVE",
"253 38 CURVE",
"232 -116 LINE"
);
},
{
closed = 1;
nodes = (
"70 9 OFFCURVE",
"55 43 OFFCURVE",
"55 82 CURVE SMOOTH",
"55 97 OFFCURVE",
"57 112 OFFCURVE",
"59 127 CURVE SMOOTH",
"93 369 LINE SMOOTH",
"101 428 OFFCURVE",
"109 487 OFFCURVE",
"212 487 CURVE SMOOTH",
"285 487 OFFCURVE",
"303 452 OFFCURVE",
"303 407 CURVE SMOOTH",
"303 393 OFFCURVE",
"301 378 OFFCURVE",
"299 363 CURVE SMOOTH",
"266 127 LINE SMOOTH",
"258 74 OFFCURVE",
"249 9 OFFCURVE",
"145 9 CURVE SMOOTH"
);
}
);
userData = {
assembly = "SVTCA[0]	/* SetFreedomAndProjectionVectorToAxis */\012PUSHW[ ]	/* 1 value pushed */\01216 \012MDAP[1]	/* MoveDirectAbsPt */\012PUSHW[ ]	/* 1 value pushed */\01227 \012MDAP[1]	/* MoveDirectAbsPt */\012PUSHW[ ]	/* 3 values pushed */\0122 27 16 \012SRP1[ ]	/* SetRefPoint1 */\012SRP2[ ]	/* SetRefPoint2 */\012IP[ ]	/* InterpolatePts */\012PUSHW[ ]	/* 3 values pushed */\01219 27 16 \012SRP1[ ]	/* SetRefPoint1 */\012SRP2[ ]	/* SetRefPoint2 */\012IP[ ]	/* InterpolatePts */\012IUP[0]	/* InterpolateUntPts */\012IUP[1]	/* InterpolateUntPts */";
};
width = 367;
}
);
leftKerningGroup = o;
leftMetricsKey = o;
note = q;
rightKerningGroup = u;
rightMetricsKey = "=|n";
unicode = 0071;
},
{
glyphname = r;
lastChange = "2022-04-20 12:01:57 +0000";
layers = (
{
anchors = (
{
name = bottom;
position = "{40, 0}";
},
{
name = top;
position = "{174, 495}";
}
);
layerId = "9AA098C0-EDBC-463F-BC21-AFCD07A070D0";
paths = (
{
closed = 1;
nodes = (
"50 0 LINE",
"81 224 LINE SMOOTH",
"95 326 OFFCURVE",
"138 400 OFFCURVE",
"171 438 CURVE SMOOTH",
"200 472 OFFCURVE",
"232 488 OFFCURVE",
"264 485 CURVE",
"266 500 LINE",
"239 503 OFFCURVE",
"203 495 OFFCURVE",
"164 454 CURVE SMOOTH",
"145 435 OFFCURVE",
"116 395 OFFCURVE",
"99 348 CURVE",
"118 495 LINE",
"103 495 LINE",
"34 0 LINE"
);
}
);
userData = {
assembly = "SVTCA[0]	/* SetFreedomAndProjectionVectorToAxis */\012PUSHW[ ]	/* 1 value pushed */\0120 \012RCVT[ ]	/* ReadCVT */\012IF[ ]	/* If */\012PUSHW[ ]	/* 1 value pushed */\01211 \012MDAP[1]	/* MoveDirectAbsPt */\012ELSE[ ]	/* Else */\012PUSHW[ ]	/* 2 values pushed */\01211 5 \012MIAP[0]	/* MoveIndirectAbsPt */\012EIF[ ]	/* EndIf */\012IUP[0]	/* InterpolateUntPts */\012IUP[1]	/* InterpolateUntPts */";
};
width = 229;
}
);
leftKerningGroup = n;
leftMetricsKey = n;
note = r;
rightKerningGroup = r;
unicode = 0072;
},
{
glyphname = s;
lastChange = "2022-04-20 14:59:06 +0000";
layers = (
{
anchors = (
{
name = bottom;
position = "{123, 0}";
},
{
name = top;
position = "{202, 495}";
}
);
layerId = "9AA098C0-EDBC-463F-BC21-AFCD07A070D0";
paths = (
{
closed = 1;
nodes = (
"188 -6 OFFCURVE",
"253 19 OFFCURVE",
"265 96 CURVE SMOOTH",
"271 134 LINE SMOOTH",
"272 141 OFFCURVE",
"273 148 OFFCURVE",
"273 155 CURVE SMOOTH",
"273 221 OFFCURVE",
"214 244 OFFCURVE",
"164 269 CURVE SMOOTH",
"123 290 OFFCURVE",
"75 302 OFFCURVE",
"75 361 CURVE SMOOTH",
"75 368 OFFCURVE",
"75 375 OFFCURVE",
"77 384 CURVE SMOOTH",
"79 395 LINE SMOOTH",
"89 449 OFFCURVE",
"129 486 OFFCURVE",
"196 486 CURVE SMOOTH",
"248 486 OFFCURVE",
"289 468 OFFCURVE",
"289 423 CURVE SMOOTH",
"289 410 OFFCURVE",
"285 394 OFFCURVE",
"277 376 CURVE SMOOTH",
"263 344 LINE",
"281 344 LINE",
"299 386 LINE SMOOTH",
"305 401 OFFCURVE",
"308 415 OFFCURVE",
"308 427 CURVE SMOOTH",
"308 478 OFFCURVE",
"255 502 OFFCURVE",
"199 502 CURVE SMOOTH",
"123 502 OFFCURVE",
"73 460 OFFCURVE",
"64 404 CURVE SMOOTH",
"60 380 LINE SMOOTH",
"59 372 OFFCURVE",
"58 364 OFFCURVE",
"58 357 CURVE SMOOTH",
"58 299 OFFCURVE",
"104 279 OFFCURVE",
"157 254 CURVE SMOOTH",
"202 233 OFFCURVE",
"258 214 OFFCURVE",
"258 152 CURVE SMOOTH",
"258 144 OFFCURVE",
"257 136 OFFCURVE",
"255 127 CURVE SMOOTH",
"249 96 LINE SMOOTH",
"239 43 OFFCURVE",
"194 10 OFFCURVE",
"128 10 CURVE SMOOTH",
"73 10 OFFCURVE",
"36 32 OFFCURVE",
"36 77 CURVE SMOOTH",
"36 82 OFFCURVE",
"36 86 OFFCURVE",
"37 91 CURVE SMOOTH",
"42 122 OFFCURVE",
"68 153 OFFCURVE",
"79 166 CURVE",
"59 166 LINE",
"50 153 OFFCURVE",
"27 124 OFFCURVE",
"22 99 CURVE SMOOTH",
"21 91 OFFCURVE",
"20 84 OFFCURVE",
"20 76 CURVE SMOOTH",
"20 21 OFFCURVE",
"64 -6 OFFCURVE",
"125 -6 CURVE SMOOTH"
);
}
);
userData = {
assembly = "SVTCA[0]	/* SetFreedomAndProjectionVectorToAxis */\012PUSHW[ ]	/* 1 value pushed */\01236 \012MDAP[1]	/* MoveDirectAbsPt */\012PUSHW[ ]	/* 1 value pushed */\0125 \012MDAP[1]	/* MoveDirectAbsPt */\012PUSHW[ ]	/* 3 values pushed */\0120 36 5 \012SRP1[ ]	/* SetRefPoint1 */\012SRP2[ ]	/* SetRefPoint2 */\012IP[ ]	/* InterpolatePts */\012PUSHW[ ]	/* 3 values pushed */\01231 36 5 \012SRP1[ ]	/* SetRefPoint1 */\012SRP2[ ]	/* SetRefPoint2 */\012IP[ ]	/* InterpolatePts */\012IUP[0]	/* InterpolateUntPts */\012IUP[1]	/* InterpolateUntPts */";
};
width = 328;
}
);
leftKerningGroup = s;
note = s;
rightKerningGroup = s;
unicode = 0073;
},
{
glyphname = germandbls;
lastChange = "2022-04-20 13:36:45 +0000";
layers = (
{
layerId = "9AA098C0-EDBC-463F-BC21-AFCD07A070D0";
paths = (
{
closed = 1;
nodes = (
"11 -146 OFFCURVE",
"35 -115 OFFCURVE",
"42 -60 CURVE SMOOTH",
"125 528 LINE SMOOTH",
"132 575 OFFCURVE",
"146 617 OFFCURVE",
"241 617 CURVE SMOOTH",
"305 617 OFFCURVE",
"336 597 OFFCURVE",
"336 551 CURVE SMOOTH",
"336 545 OFFCURVE",
"335 538 OFFCURVE",
"334 531 CURVE SMOOTH",
"321 433 LINE SMOOTH",
"314 385 OFFCURVE",
"277 349 OFFCURVE",
"218 349 CURVE SMOOTH",
"164 349 LINE",
"162 333 LINE",
"205 333 LINE SMOOTH",
"260 333 OFFCURVE",
"306 313 OFFCURVE",
"306 256 CURVE SMOOTH",
"306 251 OFFCURVE",
"306 245 OFFCURVE",
"305 239 CURVE SMOOTH",
"289 123 LINE SMOOTH",
"276 31 OFFCURVE",
"233 16 OFFCURVE",
"174 16 CURVE SMOOTH",
"97 16 LINE",
"95 0 LINE",
"172 0 LINE SMOOTH",
"237 0 OFFCURVE",
"290 15 OFFCURVE",
"305 119 CURVE SMOOTH",
"322 244 LINE SMOOTH",
"323 249 OFFCURVE",
"323 254 OFFCURVE",
"323 259 CURVE SMOOTH",
"323 306 OFFCURVE",
"290 336 OFFCURVE",
"249 341 CURVE",
"249 342 LINE",
"292 346 OFFCURVE",
"331 385 OFFCURVE",
"337 429 CURVE SMOOTH",
"352 538 LINE SMOOTH",
"353 545 OFFCURVE",
"354 552 OFFCURVE",
"354 559 CURVE SMOOTH",
"354 614 OFFCURVE",
"311 633 OFFCURVE",
"244 633 CURVE SMOOTH",
"147 633 OFFCURVE",
"119 599 OFFCURVE",
"109 527 CURVE SMOOTH",
"99 457 LINE",
"68 457 LINE",
"66 441 LINE",
"97 441 LINE",
"27 -55 LINE SMOOTH",
"20 -104 OFFCURVE",
"6 -131 OFFCURVE",
"-46 -131 CURVE SMOOTH",
"-58 -131 OFFCURVE",
"-73 -131 OFFCURVE",
"-85 -130 CURVE SMOOTH",
"-107 -128 LINE",
"-109 -143 LINE",
"-98 -144 OFFCURVE",
"-66 -146 OFFCURVE",
"-42 -146 CURVE SMOOTH"
);
}
);
width = 381;
}
);
leftKerningGroup = long;
note = germandbls;
unicode = 00DF;
},
{
glyphname = longs;
lastChange = "2022-04-20 13:36:45 +0000";
layers = (
{
layerId = "9AA098C0-EDBC-463F-BC21-AFCD07A070D0";
paths = (
{
closed = 1;
nodes = (
"9 -147 OFFCURVE",
"37 -114 OFFCURVE",
"44 -58 CURVE SMOOTH",
"130 552 LINE SMOOTH",
"135 584 OFFCURVE",
"148 621 OFFCURVE",
"201 621 CURVE SMOOTH",
"208 621 OFFCURVE",
"242 620 OFFCURVE",
"254 617 CURVE",
"256 632 LINE",
"250 633 OFFCURVE",
"228 636 OFFCURVE",
"198 636 CURVE SMOOTH",
"146 636 OFFCURVE",
"120 603 OFFCURVE",
"113 547 CURVE SMOOTH",
"98 441 LINE",
"67 441 LINE",
"64 425 LINE",
"95 425 LINE",
"28 -63 LINE SMOOTH",
"23 -98 OFFCURVE",
"-1 -132 OFFCURVE",
"-38 -132 CURVE SMOOTH",
"-58 -132 OFFCURVE",
"-87 -130 OFFCURVE",
"-97 -128 CURVE",
"-99 -143 LINE",
"-86 -145 OFFCURVE",
"-66 -147 OFFCURVE",
"-39 -147 CURVE SMOOTH"
);
}
);
userData = {
assembly = "PUSHW[ ]	/* 4 values pushed */\01236 4 30 4 \012CALL[ ]	/* CallFunction */\012PUSHW[ ]	/* 1 value pushed */\01236 \012SRP0[ ]	/* SetRefPoint0 */\012PUSHW[ ]	/* 1 value pushed */\01239 \012MDRP[10000]	/* MoveDirectRelPt */\012PUSHW[ ]	/* 1 value pushed */\01239 \012MDAP[1]	/* MoveDirectAbsPt */\012SVTCA[0]	/* SetFreedomAndProjectionVectorToAxis */\012PUSHW[ ]	/* 4 values pushed */\0123 3 17 4 \012CALL[ ]	/* CallFunction */\012IUP[0]	/* InterpolateUntPts */\012IUP[1]	/* InterpolateUntPts */";
};
width = 185;
}
);
leftKerningGroup = long;
note = longs;
rightKerningGroup = long;
unicode = 017F;
},
{
glyphname = t;
lastChange = "2022-04-20 10:56:50 +0000";
layers = (
{
anchors = (
{
name = bottom;
position = "{106, 0}";
},
{
name = center;
position = "{123, 334}";
},
{
name = top;
position = "{147, 495}";
},
{
name = topright;
position = "{194, 540}";
}
);
layerId = "9AA098C0-EDBC-463F-BC21-AFCD07A070D0";
paths = (
{
closed = 1;
nodes = (
"131 0 OFFCURVE",
"157 3 OFFCURVE",
"166 4 CURVE",
"168 20 LINE",
"144 17 OFFCURVE",
"127 15 OFFCURVE",
"108 15 CURVE SMOOTH",
"71 15 OFFCURVE",
"61 39 OFFCURVE",
"61 68 CURVE SMOOTH",
"61 74 OFFCURVE",
"61 81 OFFCURVE",
"62 88 CURVE SMOOTH",
"117 479 LINE",
"233 479 LINE",
"235 495 LINE",
"119 495 LINE",
"133 592 LINE",
"120 592 LINE",
"103 495 LINE",
"65 493 LINE",
"63 479 LINE",
"101 479 LINE",
"46 93 LINE SMOOTH",
"45 83 OFFCURVE",
"44 74 OFFCURVE",
"44 66 CURVE SMOOTH",
"44 22 OFFCURVE",
"62 0 OFFCURVE",
"106 0 CURVE SMOOTH"
);
}
);
userData = {
assembly = "SVTCA[0]	/* SetFreedomAndProjectionVectorToAxis */\012PUSHW[ ]	/* 1 value pushed */\0120 \012RCVT[ ]	/* ReadCVT */\012IF[ ]	/* If */\012PUSHW[ ]	/* 1 value pushed */\01213 \012MDAP[1]	/* MoveDirectAbsPt */\012ELSE[ ]	/* Else */\012PUSHW[ ]	/* 2 values pushed */\01213 5 \012MIAP[0]	/* MoveIndirectAbsPt */\012EIF[ ]	/* EndIf */\012PUSHW[ ]	/* 1 value pushed */\0120 \012RCVT[ ]	/* ReadCVT */\012IF[ ]	/* If */\012PUSHW[ ]	/* 1 value pushed */\01219 \012MDAP[1]	/* MoveDirectAbsPt */\012ELSE[ ]	/* Else */\012PUSHW[ ]	/* 2 values pushed */\01219 5 \012MIAP[0]	/* MoveIndirectAbsPt */\012EIF[ ]	/* EndIf */\012PUSHW[ ]	/* 1 value pushed */\0120 \012RCVT[ ]	/* ReadCVT */\012IF[ ]	/* If */\012PUSHW[ ]	/* 1 value pushed */\01221 \012MDAP[1]	/* MoveDirectAbsPt */\012ELSE[ ]	/* Else */\012PUSHW[ ]	/* 2 values pushed */\01221 5 \012MIAP[0]	/* MoveIndirectAbsPt */\012EIF[ ]	/* EndIf */\012PUSHW[ ]	/* 1 value pushed */\0120 \012RCVT[ ]	/* ReadCVT */\012IF[ ]	/* If */\012PUSHW[ ]	/* 1 value pushed */\01223 \012MDAP[1]	/* MoveDirectAbsPt */\012ELSE[ ]	/* Else */\012PUSHW[ ]	/* 2 values pushed */\01223 5 \012MIAP[0]	/* MoveIndirectAbsPt */\012EIF[ ]	/* EndIf */\012IUP[0]	/* InterpolateUntPts */\012IUP[1]	/* InterpolateUntPts */";
};
width = 212;
}
);
leftKerningGroup = t;
note = t;
rightKerningGroup = t;
unicode = 0074;
},
{
glyphname = u;
lastChange = "2022-04-20 10:57:09 +0000";
layers = (
{
anchors = (
{
name = bottom;
position = "{158, 0}";
},
{
name = ogonek;
position = "{285, 0}";
},
{
name = top;
position = "{228, 495}";
},
{
name = topright;
position = "{313, 495}";
}
);
layerId = "9AA098C0-EDBC-463F-BC21-AFCD07A070D0";
paths = (
{
closed = 1;
nodes = (
"200 -8 OFFCURVE",
"254 43 OFFCURVE",
"274 100 CURVE",
"262 0 LINE",
"278 0 LINE",
"347 495 LINE",
"331 495 LINE",
"291 202 LINE SMOOTH",
"277 103 OFFCURVE",
"211 8 OFFCURVE",
"140 8 CURVE SMOOTH",
"78 8 OFFCURVE",
"64 42 OFFCURVE",
"64 83 CURVE SMOOTH",
"64 99 OFFCURVE",
"66 116 OFFCURVE",
"68 132 CURVE SMOOTH",
"119 495 LINE",
"103 495 LINE",
"51 123 LINE SMOOTH",
"49 108 OFFCURVE",
"47 92 OFFCURVE",
"47 76 CURVE SMOOTH",
"47 31 OFFCURVE",
"63 -8 OFFCURVE",
"136 -8 CURVE SMOOTH"
);
}
);
userData = {
assembly = "SVTCA[0]	/* SetFreedomAndProjectionVectorToAxis */\012PUSHW[ ]	/* 1 value pushed */\0120 \012RCVT[ ]	/* ReadCVT */\012IF[ ]	/* If */\012PUSHW[ ]	/* 1 value pushed */\01212 \012MDAP[1]	/* MoveDirectAbsPt */\012ELSE[ ]	/* Else */\012PUSHW[ ]	/* 2 values pushed */\01212 9 \012MIAP[0]	/* MoveIndirectAbsPt */\012EIF[ ]	/* EndIf */\012PUSHW[ ]	/* 1 value pushed */\0120 \012RCVT[ ]	/* ReadCVT */\012IF[ ]	/* If */\012PUSHW[ ]	/* 1 value pushed */\01225 \012MDAP[1]	/* MoveDirectAbsPt */\012ELSE[ ]	/* Else */\012PUSHW[ ]	/* 2 values pushed */\01225 9 \012MIAP[0]	/* MoveIndirectAbsPt */\012EIF[ ]	/* EndIf */\012PUSHW[ ]	/* 1 value pushed */\0120 \012RCVT[ ]	/* ReadCVT */\012IF[ ]	/* If */\012PUSHW[ ]	/* 1 value pushed */\0120 \012MDAP[1]	/* MoveDirectAbsPt */\012ELSE[ ]	/* Else */\012PUSHW[ ]	/* 2 values pushed */\0120 5 \012MIAP[0]	/* MoveIndirectAbsPt */\012EIF[ ]	/* EndIf */\012PUSHW[ ]	/* 1 value pushed */\0120 \012RCVT[ ]	/* ReadCVT */\012IF[ ]	/* If */\012PUSHW[ ]	/* 1 value pushed */\01219 \012MDAP[1]	/* MoveDirectAbsPt */\012ELSE[ ]	/* Else */\012PUSHW[ ]	/* 2 values pushed */\01219 5 \012MIAP[0]	/* MoveIndirectAbsPt */\012EIF[ ]	/* EndIf */\012PUSHW[ ]	/* 3 values pushed */\0121 0 12 \012SRP1[ ]	/* SetRefPoint1 */\012SRP2[ ]	/* SetRefPoint2 */\012IP[ ]	/* InterpolatePts */\012IUP[0]	/* InterpolateUntPts */\012IUP[1]	/* InterpolateUntPts */";
};
width = 381;
}
);
leftKerningGroup = u;
leftMetricsKey = n;
note = u;
rightKerningGroup = u;
rightMetricsKey = "=|n";
unicode = 0075;
},
{
glyphname = v;
lastChange = "2022-04-20 15:06:06 +0000";
layers = (
{
layerId = "9AA098C0-EDBC-463F-BC21-AFCD07A070D0";
paths = (
{
closed = 1;
nodes = (
"123 0 LINE",
"167 57 OFFCURVE",
"207 115 OFFCURVE",
"234 173 CURVE SMOOTH",
"264 234 OFFCURVE",
"286 308 OFFCURVE",
"286 378 CURVE SMOOTH",
"286 419 OFFCURVE",
"278 459 OFFCURVE",
"260 495 CURVE",
"244 495 LINE",
"262 457 OFFCURVE",
"269 418 OFFCURVE",
"269 377 CURVE SMOOTH",
"269 309 OFFCURVE",
"248 240 OFFCURVE",
"219 178 CURVE SMOOTH",
"192 122 OFFCURVE",
"161 71 OFFCURVE",
"120 18 CURVE",
"70 495 LINE",
"54 495 LINE",
"106 0 LINE"
);
}
);
userData = {
assembly = "SVTCA[0]	/* SetFreedomAndProjectionVectorToAxis */\012PUSHW[ ]	/* 1 value pushed */\0120 \012RCVT[ ]	/* ReadCVT */\012IF[ ]	/* If */\012PUSHW[ ]	/* 1 value pushed */\0120 \012MDAP[1]	/* MoveDirectAbsPt */\012ELSE[ ]	/* Else */\012PUSHW[ ]	/* 2 values pushed */\0120 9 \012MIAP[0]	/* MoveIndirectAbsPt */\012EIF[ ]	/* EndIf */\012PUSHW[ ]	/* 1 value pushed */\0120 \012RCVT[ ]	/* ReadCVT */\012IF[ ]	/* If */\012PUSHW[ ]	/* 1 value pushed */\0128 \012MDAP[1]	/* MoveDirectAbsPt */\012ELSE[ ]	/* Else */\012PUSHW[ ]	/* 2 values pushed */\0128 9 \012MIAP[0]	/* MoveIndirectAbsPt */\012EIF[ ]	/* EndIf */\012PUSHW[ ]	/* 1 value pushed */\0120 \012RCVT[ ]	/* ReadCVT */\012IF[ ]	/* If */\012PUSHW[ ]	/* 1 value pushed */\01216 \012MDAP[1]	/* MoveDirectAbsPt */\012ELSE[ ]	/* Else */\012PUSHW[ ]	/* 2 values pushed */\01216 5 \012MIAP[0]	/* MoveIndirectAbsPt */\012EIF[ ]	/* EndIf */\012PUSHW[ ]	/* 3 values pushed */\0121 16 0 \012SRP1[ ]	/* SetRefPoint1 */\012SRP2[ ]	/* SetRefPoint2 */\012IP[ ]	/* InterpolatePts */\012IUP[0]	/* InterpolateUntPts */\012IUP[1]	/* InterpolateUntPts */";
};
width = 336;
}
);
leftKerningGroup = v;
note = v;
rightKerningGroup = y;
unicode = 0076;
},
{
glyphname = w;
lastChange = "2022-04-20 15:01:36 +0000";
layers = (
{
anchors = (
{
name = bottom;
position = "{248, 0}";
},
{
name = top;
position = "{309, 495}";
}
);
layerId = "9AA098C0-EDBC-463F-BC21-AFCD07A070D0";
paths = (
{
closed = 1;
nodes = (
"122 0 LINE",
"301 460 LINE",
"350 0 LINE",
"367 0 LINE",
"423 65 OFFCURVE",
"459 119 OFFCURVE",
"484 173 CURVE SMOOTH",
"514 234 OFFCURVE",
"536 308 OFFCURVE",
"536 378 CURVE SMOOTH",
"536 419 OFFCURVE",
"528 459 OFFCURVE",
"510 495 CURVE",
"494 495 LINE",
"512 457 OFFCURVE",
"519 418 OFFCURVE",
"519 377 CURVE SMOOTH",
"519 309 OFFCURVE",
"498 240 OFFCURVE",
"469 178 CURVE SMOOTH",
"443 125 OFFCURVE",
"414 76 OFFCURVE",
"365 18 CURVE",
"313 495 LINE",
"297 495 LINE",
"117 27 LINE",
"70 495 LINE",
"54 495 LINE",
"104 0 LINE"
);
}
);
userData = {
assembly = "SVTCA[0]	/* SetFreedomAndProjectionVectorToAxis */\012PUSHW[ ]	/* 1 value pushed */\0120 \012RCVT[ ]	/* ReadCVT */\012IF[ ]	/* If */\012PUSHW[ ]	/* 1 value pushed */\0124 \012MDAP[1]	/* MoveDirectAbsPt */\012ELSE[ ]	/* Else */\012PUSHW[ ]	/* 2 values pushed */\0124 9 \012MIAP[0]	/* MoveIndirectAbsPt */\012EIF[ ]	/* EndIf */\012PUSHW[ ]	/* 1 value pushed */\0120 \012RCVT[ ]	/* ReadCVT */\012IF[ ]	/* If */\012PUSHW[ ]	/* 1 value pushed */\0127 \012MDAP[1]	/* MoveDirectAbsPt */\012ELSE[ ]	/* Else */\012PUSHW[ ]	/* 2 values pushed */\0127 9 \012MIAP[0]	/* MoveIndirectAbsPt */\012EIF[ ]	/* EndIf */\012PUSHW[ ]	/* 1 value pushed */\0120 \012RCVT[ ]	/* ReadCVT */\012IF[ ]	/* If */\012PUSHW[ ]	/* 1 value pushed */\01216 \012MDAP[1]	/* MoveDirectAbsPt */\012ELSE[ ]	/* Else */\012PUSHW[ ]	/* 2 values pushed */\01216 9 \012MIAP[0]	/* MoveIndirectAbsPt */\012EIF[ ]	/* EndIf */\012PUSHW[ ]	/* 1 value pushed */\0120 \012RCVT[ ]	/* ReadCVT */\012IF[ ]	/* If */\012PUSHW[ ]	/* 1 value pushed */\0120 \012MDAP[1]	/* MoveDirectAbsPt */\012ELSE[ ]	/* Else */\012PUSHW[ ]	/* 2 values pushed */\0120 5 \012MIAP[0]	/* MoveIndirectAbsPt */\012EIF[ ]	/* EndIf */\012PUSHW[ ]	/* 1 value pushed */\0120 \012RCVT[ ]	/* ReadCVT */\012IF[ ]	/* If */\012PUSHW[ ]	/* 1 value pushed */\0122 \012MDAP[1]	/* MoveDirectAbsPt */\012ELSE[ ]	/* Else */\012PUSHW[ ]	/* 2 values pushed */\0122 5 \012MIAP[0]	/* MoveIndirectAbsPt */\012EIF[ ]	/* EndIf */\012PUSHW[ ]	/* 3 values pushed */\0121 0 4 \012SRP1[ ]	/* SetRefPoint1 */\012SRP2[ ]	/* SetRefPoint2 */\012IP[ ]	/* InterpolatePts */\012PUSHW[ ]	/* 3 values pushed */\0126 0 4 \012SRP1[ ]	/* SetRefPoint1 */\012SRP2[ ]	/* SetRefPoint2 */\012IP[ ]	/* InterpolatePts */\012IUP[0]	/* InterpolateUntPts */\012IUP[1]	/* InterpolateUntPts */";
};
width = 567;
}
);
leftKerningGroup = v;
leftMetricsKey = v;
note = w;
rightKerningGroup = y;
rightMetricsKey = v;
unicode = 0077;
},
{
glyphname = x;
lastChange = "2022-04-20 14:59:13 +0000";
layers = (
{
layerId = "9AA098C0-EDBC-463F-BC21-AFCD07A070D0";
paths = (
{
closed = 1;
nodes = (
"6 0 LINE",
"6 38 OFFCURVE",
"74 180 OFFCURVE",
"143 255 CURVE",
"170 255 LINE",
"223 185 OFFCURVE",
"236 71 OFFCURVE",
"236 0 CURVE",
"253 0 LINE",
"253 119 OFFCURVE",
"224 218 OFFCURVE",
"188 263 CURVE",
"274 337 OFFCURVE",
"297 446 OFFCURVE",
"309 495 CURVE",
"292 495 LINE",
"267 399 OFFCURVE",
"235 321 OFFCURVE",
"172 271 CURVE",
"143 271 LINE",
"115 338 OFFCURVE",
"95 410 OFFCURVE",
"91 495 CURVE",
"74 495 LINE",
"74 423 OFFCURVE",
"92 345 OFFCURVE",
"127 263 CURVE",
"55 185 OFFCURVE",
"-12 38 OFFCURVE",
"-12 0 CURVE"
);
}
);
userData = {
assembly = "SVTCA[0]	/* SetFreedomAndProjectionVectorToAxis */\012PUSHW[ ]	/* 1 value pushed */\0120 \012RCVT[ ]	/* ReadCVT */\012IF[ ]	/* If */\012PUSHW[ ]	/* 1 value pushed */\01210 \012MDAP[1]	/* MoveDirectAbsPt */\012ELSE[ ]	/* Else */\012PUSHW[ ]	/* 2 values pushed */\01210 9 \012MIAP[0]	/* MoveIndirectAbsPt */\012EIF[ ]	/* EndIf */\012PUSHW[ ]	/* 1 value pushed */\0120 \012RCVT[ ]	/* ReadCVT */\012IF[ ]	/* If */\012PUSHW[ ]	/* 1 value pushed */\01220 \012MDAP[1]	/* MoveDirectAbsPt */\012ELSE[ ]	/* Else */\012PUSHW[ ]	/* 2 values pushed */\01220 9 \012MIAP[0]	/* MoveIndirectAbsPt */\012EIF[ ]	/* EndIf */\012PUSHW[ ]	/* 1 value pushed */\0120 \012RCVT[ ]	/* ReadCVT */\012IF[ ]	/* If */\012PUSHW[ ]	/* 1 value pushed */\0120 \012MDAP[1]	/* MoveDirectAbsPt */\012ELSE[ ]	/* Else */\012PUSHW[ ]	/* 2 values pushed */\0120 5 \012MIAP[0]	/* MoveIndirectAbsPt */\012EIF[ ]	/* EndIf */\012PUSHW[ ]	/* 1 value pushed */\0120 \012RCVT[ ]	/* ReadCVT */\012IF[ ]	/* If */\012PUSHW[ ]	/* 1 value pushed */\01229 \012MDAP[1]	/* MoveDirectAbsPt */\012ELSE[ ]	/* Else */\012PUSHW[ ]	/* 2 values pushed */\01229 5 \012MIAP[0]	/* MoveIndirectAbsPt */\012EIF[ ]	/* EndIf */\012IUP[0]	/* InterpolateUntPts */\012IUP[1]	/* InterpolateUntPts */";
};
width = 310;
}
);
leftKerningGroup = x;
note = x;
rightKerningGroup = k;
unicode = 0078;
},
{
glyphname = y;
lastChange = "2022-04-20 15:06:08 +0000";
layers = (
{
anchors = (
{
name = bottom;
position = "{212, 0}";
},
{
name = top;
position = "{167, 495}";
}
);
layerId = "9AA098C0-EDBC-463F-BC21-AFCD07A070D0";
paths = (
{
closed = 1;
nodes = (
"53 -118 OFFCURVE",
"105 -94 OFFCURVE",
"140 -46 CURVE SMOOTH",
"188 22 OFFCURVE",
"220 81 OFFCURVE",
"242 138 CURVE SMOOTH",
"271 206 OFFCURVE",
"291 288 OFFCURVE",
"291 365 CURVE SMOOTH",
"291 411 OFFCURVE",
"284 455 OFFCURVE",
"267 495 CURVE",
"250 495 LINE",
"267 453 OFFCURVE",
"274 409 OFFCURVE",
"274 364 CURVE SMOOTH",
"274 289 OFFCURVE",
"254 212 OFFCURVE",
"226 144 CURVE SMOOTH",
"203 88 OFFCURVE",
"178 33 OFFCURVE",
"136 -26 CURVE",
"135 -18 LINE",
"57 495 LINE",
"41 495 LINE",
"120 -40 LINE",
"95 -79 OFFCURVE",
"45 -102 OFFCURVE",
"0 -102 CURVE SMOOTH",
"-17 -102 OFFCURVE",
"-34 -99 OFFCURVE",
"-49 -92 CURVE",
"-52 -109 LINE",
"-35 -115 OFFCURVE",
"-16 -118 OFFCURVE",
"2 -118 CURVE SMOOTH"
);
}
);
userData = {
assembly = "SVTCA[0]	/* SetFreedomAndProjectionVectorToAxis */\012PUSHW[ ]	/* 1 value pushed */\0120 \012RCVT[ ]	/* ReadCVT */\012IF[ ]	/* If */\012PUSHW[ ]	/* 1 value pushed */\0120 \012MDAP[1]	/* MoveDirectAbsPt */\012ELSE[ ]	/* Else */\012PUSHW[ ]	/* 2 values pushed */\0120 9 \012MIAP[0]	/* MoveIndirectAbsPt */\012EIF[ ]	/* EndIf */\012PUSHW[ ]	/* 1 value pushed */\0120 \012RCVT[ ]	/* ReadCVT */\012IF[ ]	/* If */\012PUSHW[ ]	/* 1 value pushed */\0129 \012MDAP[1]	/* MoveDirectAbsPt */\012ELSE[ ]	/* Else */\012PUSHW[ ]	/* 2 values pushed */\0129 9 \012MIAP[0]	/* MoveIndirectAbsPt */\012EIF[ ]	/* EndIf */\012IUP[0]	/* InterpolateUntPts */\012IUP[1]	/* InterpolateUntPts */";
};
width = 344;
}
);
leftKerningGroup = y;
note = y;
rightKerningGroup = y;
rightMetricsKey = v;
unicode = 0079;
},
{
glyphname = z;
lastChange = "2022-04-20 14:59:22 +0000";
layers = (
{
anchors = (
{
name = bottom;
position = "{87, 0}";
},
{
name = center;
position = "{122, 248}";
},
{
name = top;
position = "{157, 495}";
}
);
layerId = "9AA098C0-EDBC-463F-BC21-AFCD07A070D0";
paths = (
{
closed = 1;
nodes = (
"191 0 LINE",
"193 16 LINE",
"10 16 LINE",
"52 116 OFFCURVE",
"221 368 OFFCURVE",
"260 479 CURVE SMOOTH",
"261 483 OFFCURVE",
"261 491 OFFCURVE",
"261 495 CURVE",
"68 495 LINE",
"66 479 LINE",
"243 479 LINE",
"202 364 OFFCURVE",
"36 131 OFFCURVE",
"-14 7 CURVE",
"-14 0 LINE"
);
}
);
width = 250;
}
);
leftKerningGroup = z;
note = z;
rightKerningGroup = z;
unicode = 007A;
},
{
color = 0;
glyphname = f_f;
lastChange = "2022-04-20 13:36:45 +0000";
layers = (
{
anchors = (
{
name = caret_1;
position = "{239, 0}";
}
);
background = {
paths = (
{
closed = 1;
nodes = (
"391 621 OFFCURVE",
"407 619 OFFCURVE",
"431 616 CURVE",
"433 632 LINE",
"424 633 OFFCURVE",
"400 636 OFFCURVE",
"375 636 CURVE SMOOTH",
"323 636 OFFCURVE",
"298 605 OFFCURVE",
"289 543 CURVE SMOOTH",
"279 474 LINE",
"219 474 LINE",
"217 459 LINE",
"277 459 LINE",
"212 0 LINE SMOOTH",
"202 -73 OFFCURVE",
"190 -103 OFFCURVE",
"141 -103 CURVE SMOOTH",
"122 -103 OFFCURVE",
"101 -101 OFFCURVE",
"95 -100 CURVE",
"93 -114 LINE",
"99 -115 OFFCURVE",
"113 -118 OFFCURVE",
"138 -118 CURVE SMOOTH",
"197 -117 OFFCURVE",
"216 -86 OFFCURVE",
"228 0 CURVE SMOOTH",
"293 459 LINE",
"409 459 LINE",
"411 474 LINE",
"295 474 LINE",
"305 548 LINE SMOOTH",
"310 585 OFFCURVE",
"327 621 OFFCURVE",
"372 621 CURVE SMOOTH"
);
},
{
closed = 1;
nodes = (
"281 634 OFFCURVE",
"245 636 OFFCURVE",
"217 636 CURVE SMOOTH",
"146 636 OFFCURVE",
"121 605 OFFCURVE",
"112 543 CURVE SMOOTH",
"102 474 LINE",
"71 474 LINE",
"69 459 LINE",
"100 459 LINE",
"35 0 LINE SMOOTH",
"25 -73 OFFCURVE",
"13 -103 OFFCURVE",
"-36 -103 CURVE SMOOTH",
"-55 -103 OFFCURVE",
"-76 -101 OFFCURVE",
"-82 -100 CURVE",
"-84 -114 LINE",
"-78 -115 OFFCURVE",
"-64 -118 OFFCURVE",
"-39 -118 CURVE SMOOTH",
"20 -117 OFFCURVE",
"39 -86 OFFCURVE",
"51 0 CURVE SMOOTH",
"116 459 LINE",
"287 459 LINE",
"289 474 LINE",
"118 474 LINE",
"128 548 LINE SMOOTH",
"133 585 OFFCURVE",
"150 621 OFFCURVE",
"211 621 CURVE SMOOTH",
"240 621 OFFCURVE",
"268 619 OFFCURVE",
"303 614 CURVE",
"314 628 LINE"
);
}
);
};
layerId = "9AA098C0-EDBC-463F-BC21-AFCD07A070D0";
paths = (
{
closed = 1;
nodes = (
"20 -117 OFFCURVE",
"39 -86 OFFCURVE",
"51 0 CURVE SMOOTH",
"116 459 LINE",
"287 459 LINE",
"289 474 LINE",
"118 474 LINE",
"128 548 LINE SMOOTH",
"133 585 OFFCURVE",
"150 621 OFFCURVE",
"211 621 CURVE SMOOTH",
"240 621 OFFCURVE",
"268 619 OFFCURVE",
"303 614 CURVE",
"314 628 LINE",
"281 634 OFFCURVE",
"245 636 OFFCURVE",
"217 636 CURVE SMOOTH",
"146 636 OFFCURVE",
"121 605 OFFCURVE",
"112 543 CURVE SMOOTH",
"102 474 LINE",
"71 474 LINE",
"69 459 LINE",
"100 459 LINE",
"35 0 LINE SMOOTH",
"25 -73 OFFCURVE",
"13 -103 OFFCURVE",
"-36 -103 CURVE SMOOTH",
"-55 -103 OFFCURVE",
"-76 -101 OFFCURVE",
"-82 -100 CURVE",
"-84 -114 LINE",
"-78 -115 OFFCURVE",
"-64 -118 OFFCURVE",
"-39 -118 CURVE SMOOTH"
);
},
{
closed = 1;
nodes = (
"197 -117 OFFCURVE",
"216 -86 OFFCURVE",
"228 0 CURVE SMOOTH",
"293 459 LINE",
"409 459 LINE",
"411 474 LINE",
"295 474 LINE",
"305 548 LINE SMOOTH",
"310 585 OFFCURVE",
"327 621 OFFCURVE",
"372 621 CURVE SMOOTH",
"391 621 OFFCURVE",
"407 619 OFFCURVE",
"431 616 CURVE",
"433 632 LINE",
"424 633 OFFCURVE",
"400 636 OFFCURVE",
"375 636 CURVE SMOOTH",
"323 636 OFFCURVE",
"298 605 OFFCURVE",
"289 543 CURVE SMOOTH",
"279 474 LINE",
"219 474 LINE",
"217 459 LINE",
"277 459 LINE",
"212 0 LINE SMOOTH",
"202 -73 OFFCURVE",
"190 -103 OFFCURVE",
"141 -103 CURVE SMOOTH",
"122 -103 OFFCURVE",
"101 -101 OFFCURVE",
"95 -100 CURVE",
"93 -114 LINE",
"99 -115 OFFCURVE",
"113 -118 OFFCURVE",
"138 -118 CURVE SMOOTH"
);
}
);
userData = {
assembly = "SVTCA[0]	/* SetFreedomAndProjectionVectorToAxis */\012PUSHW[ ]	/* 4 values pushed */\01271 3 8 4 \012CALL[ ]	/* CallFunction */\012PUSHW[ ]	/* 1 value pushed */\01271 \012SRP0[ ]	/* SetRefPoint0 */\012PUSHW[ ]	/* 1 value pushed */\01214 \012MDRP[10000]	/* MoveDirectRelPt */\012PUSHW[ ]	/* 3 values pushed */\01276 8 71 \012SRP1[ ]	/* SetRefPoint1 */\012SRP2[ ]	/* SetRefPoint2 */\012IP[ ]	/* InterpolatePts */\012IUP[0]	/* InterpolateUntPts */\012IUP[1]	/* InterpolateUntPts */";
};
width = 361;
}
);
leftKerningGroup = f;
leftMetricsKey = f;
note = f_f;
rightKerningGroup = f;
rightMetricsKey = f;
},
{
color = 0;
glyphname = f_f_i;
lastChange = "2022-04-20 13:36:45 +0000";
layers = (
{
anchors = (
{
name = caret_1;
position = "{277, 0}";
},
{
name = caret_2;
position = "{453, 0}";
}
);
background = {
paths = (
{
closed = 1;
nodes = (
"478 474 LINE",
"462 474 LINE",
"396 0 LINE",
"412 0 LINE"
);
},
{
closed = 1;
nodes = (
"288 633 OFFCURVE",
"247 636 OFFCURVE",
"217 636 CURVE SMOOTH",
"146 636 OFFCURVE",
"121 605 OFFCURVE",
"112 543 CURVE SMOOTH",
"102 474 LINE",
"71 474 LINE",
"69 459 LINE",
"100 459 LINE",
"35 0 LINE SMOOTH",
"25 -73 OFFCURVE",
"13 -103 OFFCURVE",
"-36 -103 CURVE SMOOTH",
"-55 -103 OFFCURVE",
"-76 -101 OFFCURVE",
"-82 -100 CURVE",
"-84 -114 LINE",
"-78 -115 OFFCURVE",
"-64 -118 OFFCURVE",
"-39 -118 CURVE SMOOTH",
"20 -117 OFFCURVE",
"39 -86 OFFCURVE",
"51 0 CURVE SMOOTH",
"116 459 LINE",
"287 459 LINE",
"289 474 LINE",
"118 474 LINE",
"128 548 LINE SMOOTH",
"133 585 OFFCURVE",
"150 621 OFFCURVE",
"211 621 CURVE SMOOTH",
"243 621 OFFCURVE",
"275 619 OFFCURVE",
"304 614 CURVE",
"314 627 LINE"
);
},
{
closed = 1;
nodes = (
"465 633 OFFCURVE",
"423 636 OFFCURVE",
"393 636 CURVE SMOOTH",
"322 636 OFFCURVE",
"297 605 OFFCURVE",
"288 543 CURVE SMOOTH",
"278 474 LINE",
"204 474 LINE",
"202 459 LINE",
"276 459 LINE",
"211 0 LINE SMOOTH",
"201 -73 OFFCURVE",
"189 -103 OFFCURVE",
"140 -103 CURVE SMOOTH",
"121 -103 OFFCURVE",
"100 -101 OFFCURVE",
"94 -100 CURVE",
"92 -114 LINE",
"98 -115 OFFCURVE",
"112 -118 OFFCURVE",
"137 -118 CURVE SMOOTH",
"196 -117 OFFCURVE",
"215 -86 OFFCURVE",
"227 0 CURVE SMOOTH",
"292 459 LINE",
"469 459 LINE",
"471 474 LINE",
"294 474 LINE",
"304 548 LINE SMOOTH",
"309 585 OFFCURVE",
"326 621 OFFCURVE",
"387 621 CURVE SMOOTH",
"421 621 OFFCURVE",
"454 619 OFFCURVE",
"500 610 CURVE",
"500 626 LINE"
);
}
);
};
layerId = "9AA098C0-EDBC-463F-BC21-AFCD07A070D0";
paths = (
{
closed = 1;
nodes = (
"196 -117 OFFCURVE",
"215 -86 OFFCURVE",
"227 0 CURVE SMOOTH",
"292 459 LINE",
"469 459 LINE",
"471 474 LINE",
"294 474 LINE",
"304 548 LINE SMOOTH",
"309 585 OFFCURVE",
"326 621 OFFCURVE",
"387 621 CURVE SMOOTH",
"421 621 OFFCURVE",
"454 619 OFFCURVE",
"500 610 CURVE",
"500 626 LINE",
"465 633 OFFCURVE",
"423 636 OFFCURVE",
"393 636 CURVE SMOOTH",
"322 636 OFFCURVE",
"297 605 OFFCURVE",
"288 543 CURVE SMOOTH",
"278 474 LINE",
"204 474 LINE",
"202 459 LINE",
"276 459 LINE",
"211 0 LINE SMOOTH",
"201 -73 OFFCURVE",
"189 -103 OFFCURVE",
"140 -103 CURVE SMOOTH",
"121 -103 OFFCURVE",
"100 -101 OFFCURVE",
"94 -100 CURVE",
"92 -114 LINE",
"98 -115 OFFCURVE",
"112 -118 OFFCURVE",
"137 -118 CURVE SMOOTH"
);
},
{
closed = 1;
nodes = (
"20 -117 OFFCURVE",
"39 -86 OFFCURVE",
"51 0 CURVE SMOOTH",
"116 459 LINE",
"287 459 LINE",
"289 474 LINE",
"118 474 LINE",
"128 548 LINE SMOOTH",
"133 585 OFFCURVE",
"150 621 OFFCURVE",
"211 621 CURVE SMOOTH",
"243 621 OFFCURVE",
"275 619 OFFCURVE",
"304 614 CURVE",
"314 627 LINE",
"288 633 OFFCURVE",
"247 636 OFFCURVE",
"217 636 CURVE SMOOTH",
"146 636 OFFCURVE",
"121 605 OFFCURVE",
"112 543 CURVE SMOOTH",
"102 474 LINE",
"71 474 LINE",
"69 459 LINE",
"100 459 LINE",
"35 0 LINE SMOOTH",
"25 -73 OFFCURVE",
"13 -103 OFFCURVE",
"-36 -103 CURVE SMOOTH",
"-55 -103 OFFCURVE",
"-76 -101 OFFCURVE",
"-82 -100 CURVE",
"-84 -114 LINE",
"-78 -115 OFFCURVE",
"-64 -118 OFFCURVE",
"-39 -118 CURVE SMOOTH"
);
},
{
closed = 1;
nodes = (
"412 0 LINE",
"478 474 LINE",
"462 474 LINE",
"396 0 LINE"
);
}
);
userData = {
assembly = "SVTCA[0]	/* SetFreedomAndProjectionVectorToAxis */\012PUSHW[ ]	/* 1 value pushed */\0120 \012RCVT[ ]	/* ReadCVT */\012IF[ ]	/* If */\012PUSHW[ ]	/* 1 value pushed */\0120 \012MDAP[1]	/* MoveDirectAbsPt */\012ELSE[ ]	/* Else */\012PUSHW[ ]	/* 2 values pushed */\0120 5 \012MIAP[0]	/* MoveIndirectAbsPt */\012EIF[ ]	/* EndIf */\012PUSHW[ ]	/* 4 values pushed */\01240 3 54 4 \012CALL[ ]	/* CallFunction */\012PUSHW[ ]	/* 3 values pushed */\01245 54 40 \012SRP1[ ]	/* SetRefPoint1 */\012SRP2[ ]	/* SetRefPoint2 */\012IP[ ]	/* InterpolatePts */\012PUSHW[ ]	/* 1 value pushed */\01240 \012SRP0[ ]	/* SetRefPoint0 */\012PUSHW[ ]	/* 1 value pushed */\01262 \012MDRP[10000]	/* MoveDirectRelPt */\012IUP[0]	/* InterpolateUntPts */\012IUP[1]	/* InterpolateUntPts */";
};
width = 510;
}
);
leftKerningGroup = f;
leftMetricsKey = f;
note = f_f_i;
rightKerningGroup = i;
rightMetricsKey = i;
},
{
color = 0;
glyphname = f_f_l;
lastChange = "2022-04-20 13:36:45 +0000";
layers = (
{
anchors = (
{
name = caret_1;
position = "{278, 0}";
},
{
name = caret_2;
position = "{453, 0}";
}
);
layerId = "9AA098C0-EDBC-463F-BC21-AFCD07A070D0";
paths = (
{
closed = 1;
nodes = (
"196 -117 OFFCURVE",
"215 -86 OFFCURVE",
"227 0 CURVE SMOOTH",
"292 459 LINE",
"409 459 LINE",
"411 474 LINE",
"294 474 LINE",
"304 548 LINE SMOOTH",
"309 585 OFFCURVE",
"326 621 OFFCURVE",
"387 621 CURVE SMOOTH",
"421 621 OFFCURVE",
"454 619 OFFCURVE",
"493 610 CURVE",
"500 626 LINE",
"465 633 OFFCURVE",
"423 636 OFFCURVE",
"393 636 CURVE SMOOTH",
"322 636 OFFCURVE",
"297 605 OFFCURVE",
"288 543 CURVE SMOOTH",
"278 474 LINE",
"204 474 LINE",
"202 459 LINE",
"276 459 LINE",
"211 0 LINE SMOOTH",
"201 -73 OFFCURVE",
"189 -103 OFFCURVE",
"140 -103 CURVE SMOOTH",
"121 -103 OFFCURVE",
"100 -101 OFFCURVE",
"94 -100 CURVE",
"92 -114 LINE",
"98 -115 OFFCURVE",
"112 -118 OFFCURVE",
"137 -118 CURVE SMOOTH"
);
},
{
closed = 1;
nodes = (
"20 -117 OFFCURVE",
"39 -86 OFFCURVE",
"51 0 CURVE SMOOTH",
"116 459 LINE",
"287 459 LINE",
"289 474 LINE",
"118 474 LINE",
"128 548 LINE SMOOTH",
"133 585 OFFCURVE",
"150 621 OFFCURVE",
"211 621 CURVE SMOOTH",
"243 621 OFFCURVE",
"275 619 OFFCURVE",
"304 614 CURVE",
"314 627 LINE",
"288 633 OFFCURVE",
"247 636 OFFCURVE",
"217 636 CURVE SMOOTH",
"146 636 OFFCURVE",
"121 605 OFFCURVE",
"112 543 CURVE SMOOTH",
"102 474 LINE",
"71 474 LINE",
"69 459 LINE",
"100 459 LINE",
"35 0 LINE SMOOTH",
"25 -73 OFFCURVE",
"13 -103 OFFCURVE",
"-36 -103 CURVE SMOOTH",
"-55 -103 OFFCURVE",
"-76 -101 OFFCURVE",
"-82 -100 CURVE",
"-84 -114 LINE",
"-78 -115 OFFCURVE",
"-64 -118 OFFCURVE",
"-39 -118 CURVE SMOOTH"
);
},
{
closed = 1;
nodes = (
"412 0 LINE",
"500 626 LINE",
"484 626 LINE",
"396 0 LINE"
);
}
);
userData = {
assembly = "SVTCA[0]	/* SetFreedomAndProjectionVectorToAxis */\012PUSHW[ ]	/* 1 value pushed */\0120 \012RCVT[ ]	/* ReadCVT */\012IF[ ]	/* If */\012PUSHW[ ]	/* 1 value pushed */\01252 \012MDAP[1]	/* MoveDirectAbsPt */\012ELSE[ ]	/* Else */\012PUSHW[ ]	/* 2 values pushed */\01252 5 \012MIAP[0]	/* MoveIndirectAbsPt */\012EIF[ ]	/* EndIf */\012PUSHW[ ]	/* 4 values pushed */\01224 3 38 4 \012CALL[ ]	/* CallFunction */\012PUSHW[ ]	/* 3 values pushed */\01229 38 24 \012SRP1[ ]	/* SetRefPoint1 */\012SRP2[ ]	/* SetRefPoint2 */\012IP[ ]	/* InterpolatePts */\012PUSHW[ ]	/* 1 value pushed */\01224 \012SRP0[ ]	/* SetRefPoint0 */\012PUSHW[ ]	/* 1 value pushed */\01246 \012MDRP[10000]	/* MoveDirectRelPt */\012IUP[0]	/* InterpolateUntPts */\012IUP[1]	/* InterpolateUntPts */";
};
width = 515;
}
);
leftKerningGroup = f;
leftMetricsKey = f;
note = f_f_l;
rightKerningGroup = l;
rightMetricsKey = l;
},
{
color = 0;
glyphname = fi;
lastChange = "2022-04-20 13:36:45 +0000";
layers = (
{
layerId = "9AA098C0-EDBC-463F-BC21-AFCD07A070D0";
paths = (
{
closed = 1;
nodes = (
"20 -117 OFFCURVE",
"39 -86 OFFCURVE",
"51 0 CURVE SMOOTH",
"116 459 LINE",
"293 459 LINE",
"295 474 LINE",
"118 474 LINE",
"128 548 LINE SMOOTH",
"133 585 OFFCURVE",
"150 621 OFFCURVE",
"211 621 CURVE SMOOTH",
"245 621 OFFCURVE",
"278 619 OFFCURVE",
"324 610 CURVE",
"324 626 LINE",
"289 633 OFFCURVE",
"247 636 OFFCURVE",
"217 636 CURVE SMOOTH",
"146 636 OFFCURVE",
"121 605 OFFCURVE",
"112 543 CURVE SMOOTH",
"102 474 LINE",
"63 474 LINE",
"61 459 LINE",
"100 459 LINE",
"35 0 LINE SMOOTH",
"25 -73 OFFCURVE",
"13 -103 OFFCURVE",
"-36 -103 CURVE SMOOTH",
"-55 -103 OFFCURVE",
"-76 -101 OFFCURVE",
"-82 -100 CURVE",
"-84 -114 LINE",
"-78 -115 OFFCURVE",
"-64 -118 OFFCURVE",
"-39 -118 CURVE SMOOTH"
);
},
{
closed = 1;
nodes = (
"236 0 LINE",
"302 474 LINE",
"286 474 LINE",
"220 0 LINE"
);
}
);
userData = {
assembly = "SVTCA[0]	/* SetFreedomAndProjectionVectorToAxis */\012PUSHW[ ]	/* 1 value pushed */\0120 \012RCVT[ ]	/* ReadCVT */\012IF[ ]	/* If */\012PUSHW[ ]	/* 1 value pushed */\0120 \012MDAP[1]	/* MoveDirectAbsPt */\012ELSE[ ]	/* Else */\012PUSHW[ ]	/* 2 values pushed */\0120 5 \012MIAP[0]	/* MoveIndirectAbsPt */\012EIF[ ]	/* EndIf */\012PUSHW[ ]	/* 4 values pushed */\01225 3 41 4 \012CALL[ ]	/* CallFunction */\012IUP[0]	/* InterpolateUntPts */\012IUP[1]	/* InterpolateUntPts */";
};
width = 334;
}
);
leftKerningGroup = f;
leftMetricsKey = f;
note = fi;
rightKerningGroup = i;
rightMetricsKey = i;
unicode = FB01;
},
{
color = 0;
glyphname = fl;
lastChange = "2022-04-20 13:36:45 +0000";
layers = (
{
layerId = "9AA098C0-EDBC-463F-BC21-AFCD07A070D0";
paths = (
{
closed = 1;
nodes = (
"20 -117 OFFCURVE",
"39 -86 OFFCURVE",
"51 0 CURVE SMOOTH",
"116 459 LINE",
"233 459 LINE",
"235 474 LINE",
"118 474 LINE",
"128 548 LINE SMOOTH",
"133 585 OFFCURVE",
"150 621 OFFCURVE",
"211 621 CURVE SMOOTH",
"245 621 OFFCURVE",
"278 619 OFFCURVE",
"317 610 CURVE",
"324 626 LINE",
"289 633 OFFCURVE",
"247 636 OFFCURVE",
"217 636 CURVE SMOOTH",
"146 636 OFFCURVE",
"121 605 OFFCURVE",
"112 543 CURVE SMOOTH",
"102 474 LINE",
"73 474 LINE",
"71 459 LINE",
"100 459 LINE",
"35 0 LINE SMOOTH",
"25 -73 OFFCURVE",
"13 -103 OFFCURVE",
"-36 -103 CURVE SMOOTH",
"-55 -103 OFFCURVE",
"-76 -101 OFFCURVE",
"-82 -100 CURVE",
"-84 -114 LINE",
"-78 -115 OFFCURVE",
"-64 -118 OFFCURVE",
"-39 -118 CURVE SMOOTH"
);
},
{
closed = 1;
nodes = (
"236 0 LINE",
"324 626 LINE",
"308 626 LINE",
"220 0 LINE"
);
}
);
userData = {
assembly = "SVTCA[0]	/* SetFreedomAndProjectionVectorToAxis */\012PUSHW[ ]	/* 1 value pushed */\0120 \012RCVT[ ]	/* ReadCVT */\012IF[ ]	/* If */\012PUSHW[ ]	/* 1 value pushed */\0120 \012MDAP[1]	/* MoveDirectAbsPt */\012ELSE[ ]	/* Else */\012PUSHW[ ]	/* 2 values pushed */\0120 5 \012MIAP[0]	/* MoveIndirectAbsPt */\012EIF[ ]	/* EndIf */\012IUP[0]	/* InterpolateUntPts */\012IUP[1]	/* InterpolateUntPts */";
};
width = 339;
}
);
leftKerningGroup = f;
leftMetricsKey = f;
note = fl;
rightKerningGroup = l;
rightMetricsKey = l;
unicode = FB02;
},
{
color = 0;
glyphname = longs_t;
lastChange = "2022-04-20 13:36:45 +0000";
layers = (
{
anchors = (
{
name = caret_1;
position = "{273, 0}";
}
);
layerId = "9AA098C0-EDBC-463F-BC21-AFCD07A070D0";
paths = (
{
closed = 1;
nodes = (
"9 -117 OFFCURVE",
"28 -86 OFFCURVE",
"40 0 CURVE SMOOTH",
"102 438 LINE",
"117 548 LINE SMOOTH",
"122 585 OFFCURVE",
"139 621 OFFCURVE",
"200 621 CURVE SMOOTH",
"238 621 OFFCURVE",
"289 614 OFFCURVE",
"303 610 CURVE",
"309 622 LINE",
"299 627 OFFCURVE",
"242 636 OFFCURVE",
"206 636 CURVE SMOOTH",
"135 636 OFFCURVE",
"110 605 OFFCURVE",
"101 543 CURVE SMOOTH",
"87 443 LINE",
"56 443 LINE",
"54 428 LINE",
"85 428 LINE",
"24 0 LINE SMOOTH",
"14 -73 OFFCURVE",
"2 -103 OFFCURVE",
"-47 -103 CURVE SMOOTH",
"-66 -103 OFFCURVE",
"-87 -101 OFFCURVE",
"-93 -100 CURVE",
"-95 -114 LINE",
"-89 -115 OFFCURVE",
"-75 -118 OFFCURVE",
"-50 -118 CURVE SMOOTH"
);
},
{
closed = 1;
nodes = (
"303 0 OFFCURVE",
"329 3 OFFCURVE",
"338 4 CURVE",
"340 20 LINE",
"316 17 OFFCURVE",
"299 15 OFFCURVE",
"280 15 CURVE SMOOTH",
"243 15 OFFCURVE",
"233 39 OFFCURVE",
"233 68 CURVE SMOOTH",
"233 74 OFFCURVE",
"233 81 OFFCURVE",
"234 88 CURVE SMOOTH",
"289 479 LINE",
"405 479 LINE",
"407 495 LINE",
"291 495 LINE",
"309 622 LINE",
"296 622 LINE",
"275 495 LINE",
"237 493 LINE",
"235 479 LINE",
"273 479 LINE",
"218 93 LINE SMOOTH",
"217 83 OFFCURVE",
"216 74 OFFCURVE",
"216 66 CURVE SMOOTH",
"216 22 OFFCURVE",
"234 0 OFFCURVE",
"278 0 CURVE SMOOTH"
);
}
);
userData = {
assembly = "PUSHW[ ]	/* 4 values pushed */\01251 4 36 4 \012CALL[ ]	/* CallFunction */\012PUSHW[ ]	/* 4 values pushed */\01220 4 32 4 \012CALL[ ]	/* CallFunction */\012PUSHW[ ]	/* 1 value pushed */\01251 \012SRP0[ ]	/* SetRefPoint0 */\012PUSHW[ ]	/* 1 value pushed */\01254 \012MDRP[10000]	/* MoveDirectRelPt */\012PUSHW[ ]	/* 1 value pushed */\01254 \012MDAP[1]	/* MoveDirectAbsPt */\012SVTCA[0]	/* SetFreedomAndProjectionVectorToAxis */\012PUSHW[ ]	/* 1 value pushed */\0120 \012RCVT[ ]	/* ReadCVT */\012IF[ ]	/* If */\012PUSHW[ ]	/* 1 value pushed */\01211 \012MDAP[1]	/* MoveDirectAbsPt */\012ELSE[ ]	/* Else */\012PUSHW[ ]	/* 2 values pushed */\01211 5 \012MIAP[0]	/* MoveIndirectAbsPt */\012EIF[ ]	/* EndIf */\012PUSHW[ ]	/* 1 value pushed */\0120 \012RCVT[ ]	/* ReadCVT */\012IF[ ]	/* If */\012PUSHW[ ]	/* 1 value pushed */\01214 \012MDAP[1]	/* MoveDirectAbsPt */\012ELSE[ ]	/* Else */\012PUSHW[ ]	/* 2 values pushed */\01214 5 \012MIAP[0]	/* MoveIndirectAbsPt */\012EIF[ ]	/* EndIf */\012PUSHW[ ]	/* 4 values pushed */\01258 3 32 4 \012CALL[ ]	/* CallFunction */\012IUP[0]	/* InterpolateUntPts */\012IUP[1]	/* InterpolateUntPts */";
};
width = 384;
}
);
leftKerningGroup = long;
leftMetricsKey = longs;
note = longs_t;
rightMetricsKey = t;
},
{
color = 0;
glyphname = s_t;
lastChange = "2022-04-20 13:36:45 +0000";
layers = (
{
anchors = (
{
name = caret_1;
position = "{315, 0}";
}
);
layerId = "9AA098C0-EDBC-463F-BC21-AFCD07A070D0";
paths = (
{
closed = 1;
nodes = (
"188 -6 OFFCURVE",
"253 19 OFFCURVE",
"265 96 CURVE SMOOTH",
"271 134 LINE SMOOTH",
"272 141 OFFCURVE",
"273 148 OFFCURVE",
"273 155 CURVE SMOOTH",
"273 221 OFFCURVE",
"214 244 OFFCURVE",
"164 269 CURVE SMOOTH",
"123 290 OFFCURVE",
"75 302 OFFCURVE",
"75 361 CURVE SMOOTH",
"75 368 OFFCURVE",
"75 375 OFFCURVE",
"77 384 CURVE SMOOTH",
"79 395 LINE SMOOTH",
"89 449 OFFCURVE",
"129 486 OFFCURVE",
"196 486 CURVE SMOOTH",
"248 486 OFFCURVE",
"289 468 OFFCURVE",
"289 423 CURVE SMOOTH",
"289 410 OFFCURVE",
"285 394 OFFCURVE",
"277 376 CURVE SMOOTH",
"263 344 LINE",
"281 344 LINE",
"299 386 LINE SMOOTH",
"304 398 OFFCURVE",
"307 409 OFFCURVE",
"308 419 CURVE SMOOTH",
"323 548 LINE SMOOTH",
"328 585 OFFCURVE",
"345 618 OFFCURVE",
"398 618 CURVE SMOOTH",
"413 618 OFFCURVE",
"425 616 OFFCURVE",
"436 612 CURVE",
"416 495 LINE",
"378 493 LINE",
"376 479 LINE",
"414 479 LINE",
"359 93 LINE SMOOTH",
"358 83 OFFCURVE",
"357 74 OFFCURVE",
"357 66 CURVE SMOOTH",
"357 22 OFFCURVE",
"375 0 OFFCURVE",
"419 0 CURVE SMOOTH",
"444 0 OFFCURVE",
"470 3 OFFCURVE",
"479 4 CURVE",
"481 20 LINE",
"457 17 OFFCURVE",
"440 15 OFFCURVE",
"421 15 CURVE SMOOTH",
"384 15 OFFCURVE",
"374 39 OFFCURVE",
"374 68 CURVE SMOOTH",
"374 74 OFFCURVE",
"374 81 OFFCURVE",
"375 88 CURVE SMOOTH",
"430 479 LINE",
"546 479 LINE",
"548 495 LINE",
"432 495 LINE",
"450 621 LINE",
"436 628 OFFCURVE",
"418 633 OFFCURVE",
"398 633 CURVE SMOOTH",
"341 633 OFFCURVE",
"314 605 OFFCURVE",
"307 543 CURVE SMOOTH",
"298 462 LINE",
"280 489 OFFCURVE",
"240 502 OFFCURVE",
"199 502 CURVE SMOOTH",
"123 502 OFFCURVE",
"73 460 OFFCURVE",
"64 404 CURVE SMOOTH",
"60 380 LINE SMOOTH",
"59 372 OFFCURVE",
"58 364 OFFCURVE",
"58 357 CURVE SMOOTH",
"58 299 OFFCURVE",
"104 279 OFFCURVE",
"157 254 CURVE SMOOTH",
"202 233 OFFCURVE",
"258 214 OFFCURVE",
"258 152 CURVE SMOOTH",
"258 144 OFFCURVE",
"257 136 OFFCURVE",
"255 127 CURVE SMOOTH",
"249 96 LINE SMOOTH",
"239 43 OFFCURVE",
"194 10 OFFCURVE",
"128 10 CURVE SMOOTH",
"73 10 OFFCURVE",
"36 32 OFFCURVE",
"36 77 CURVE SMOOTH",
"36 112 OFFCURVE",
"65 151 OFFCURVE",
"79 166 CURVE",
"59 166 LINE",
"50 153 OFFCURVE",
"27 124 OFFCURVE",
"22 99 CURVE SMOOTH",
"21 91 OFFCURVE",
"20 84 OFFCURVE",
"20 76 CURVE SMOOTH",
"20 21 OFFCURVE",
"64 -6 OFFCURVE",
"125 -6 CURVE SMOOTH"
);
}
);
userData = {
assembly = "SVTCA[0]	/* SetFreedomAndProjectionVectorToAxis */\012PUSHW[ ]	/* 1 value pushed */\0120 \012RCVT[ ]	/* ReadCVT */\012IF[ ]	/* If */\012PUSHW[ ]	/* 1 value pushed */\0128 \012MDAP[1]	/* MoveDirectAbsPt */\012ELSE[ ]	/* Else */\012PUSHW[ ]	/* 2 values pushed */\0128 9 \012MIAP[0]	/* MoveIndirectAbsPt */\012EIF[ ]	/* EndIf */\012PUSHW[ ]	/* 1 value pushed */\0120 \012RCVT[ ]	/* ReadCVT */\012IF[ ]	/* If */\012PUSHW[ ]	/* 1 value pushed */\01255 \012MDAP[1]	/* MoveDirectAbsPt */\012ELSE[ ]	/* Else */\012PUSHW[ ]	/* 2 values pushed */\01255 9 \012MIAP[0]	/* MoveIndirectAbsPt */\012EIF[ ]	/* EndIf */\012PUSHW[ ]	/* 1 value pushed */\0120 \012RCVT[ ]	/* ReadCVT */\012IF[ ]	/* If */\012PUSHW[ ]	/* 1 value pushed */\01268 \012MDAP[1]	/* MoveDirectAbsPt */\012ELSE[ ]	/* Else */\012PUSHW[ ]	/* 2 values pushed */\01268 9 \012MIAP[0]	/* MoveIndirectAbsPt */\012EIF[ ]	/* EndIf */\012PUSHW[ ]	/* 1 value pushed */\0120 \012RCVT[ ]	/* ReadCVT */\012IF[ ]	/* If */\012PUSHW[ ]	/* 1 value pushed */\01295 \012MDAP[1]	/* MoveDirectAbsPt */\012ELSE[ ]	/* Else */\012PUSHW[ ]	/* 2 values pushed */\01295 9 \012MIAP[0]	/* MoveIndirectAbsPt */\012EIF[ ]	/* EndIf */\012PUSHW[ ]	/* 1 value pushed */\0120 \012RCVT[ ]	/* ReadCVT */\012IF[ ]	/* If */\012PUSHW[ ]	/* 1 value pushed */\01239 \012MDAP[1]	/* MoveDirectAbsPt */\012ELSE[ ]	/* Else */\012PUSHW[ ]	/* 2 values pushed */\01239 5 \012MIAP[0]	/* MoveIndirectAbsPt */\012EIF[ ]	/* EndIf */\012PUSHW[ ]	/* 1 value pushed */\0120 \012RCVT[ ]	/* ReadCVT */\012IF[ ]	/* If */\012PUSHW[ ]	/* 1 value pushed */\01277 \012MDAP[1]	/* MoveDirectAbsPt */\012ELSE[ ]	/* Else */\012PUSHW[ ]	/* 2 values pushed */\01277 5 \012MIAP[0]	/* MoveIndirectAbsPt */\012EIF[ ]	/* EndIf */\012PUSHW[ ]	/* 1 value pushed */\0120 \012RCVT[ ]	/* ReadCVT */\012IF[ ]	/* If */\012PUSHW[ ]	/* 1 value pushed */\01283 \012MDAP[1]	/* MoveDirectAbsPt */\012ELSE[ ]	/* Else */\012PUSHW[ ]	/* 2 values pushed */\01283 5 \012MIAP[0]	/* MoveIndirectAbsPt */\012EIF[ ]	/* EndIf */\012PUSHW[ ]	/* 1 value pushed */\0120 \012RCVT[ ]	/* ReadCVT */\012IF[ ]	/* If */\012PUSHW[ ]	/* 1 value pushed */\01285 \012MDAP[1]	/* MoveDirectAbsPt */\012ELSE[ ]	/* Else */\012PUSHW[ ]	/* 2 values pushed */\01285 5 \012MIAP[0]	/* MoveIndirectAbsPt */\012EIF[ ]	/* EndIf */\012PUSHW[ ]	/* 1 value pushed */\0120 \012RCVT[ ]	/* ReadCVT */\012IF[ ]	/* If */\012PUSHW[ ]	/* 1 value pushed */\01287 \012MDAP[1]	/* MoveDirectAbsPt */\012ELSE[ ]	/* Else */\012PUSHW[ ]	/* 2 values pushed */\01287 5 \012MIAP[0]	/* MoveIndirectAbsPt */\012EIF[ ]	/* EndIf */\012PUSHW[ ]	/* 3 values pushed */\0120 87 55 \012SRP1[ ]	/* SetRefPoint1 */\012SRP2[ ]	/* SetRefPoint2 */\012IP[ ]	/* InterpolatePts */\012PUSHW[ ]	/* 3 values pushed */\01234 87 55 \012SRP1[ ]	/* SetRefPoint1 */\012SRP2[ ]	/* SetRefPoint2 */\012IP[ ]	/* InterpolatePts */\012PUSHW[ ]	/* 3 values pushed */\01258 87 55 \012SRP1[ ]	/* SetRefPoint1 */\012SRP2[ ]	/* SetRefPoint2 */\012IP[ ]	/* InterpolatePts */\012PUSHW[ ]	/* 3 values pushed */\01282 87 55 \012SRP1[ ]	/* SetRefPoint1 */\012SRP2[ ]	/* SetRefPoint2 */\012IP[ ]	/* InterpolatePts */\012IUP[0]	/* InterpolateUntPts */\012IUP[1]	/* InterpolateUntPts */";
};
width = 525;
}
);
leftKerningGroup = s;
leftMetricsKey = s;
note = s_t;
rightKerningGroup = t;
rightMetricsKey = t;
},
{
color = 0;
glyphname = t_i;
lastChange = "2022-04-20 13:36:45 +0000";
layers = (
{
anchors = (
{
name = caret_1;
position = "{211, 0}";
}
);
layerId = "9AA098C0-EDBC-463F-BC21-AFCD07A070D0";
paths = (
{
closed = 1;
nodes = (
"131 0 OFFCURVE",
"157 3 OFFCURVE",
"166 4 CURVE",
"168 20 LINE",
"144 17 OFFCURVE",
"127 15 OFFCURVE",
"108 15 CURVE SMOOTH",
"71 15 OFFCURVE",
"61 39 OFFCURVE",
"61 68 CURVE SMOOTH",
"61 74 OFFCURVE",
"61 81 OFFCURVE",
"62 88 CURVE SMOOTH",
"117 479 LINE",
"315 480 LINE",
"320 495 LINE",
"119 495 LINE",
"133 592 LINE",
"120 592 LINE",
"103 495 LINE",
"65 493 LINE",
"63 479 LINE",
"101 479 LINE",
"46 93 LINE SMOOTH",
"45 83 OFFCURVE",
"44 74 OFFCURVE",
"44 66 CURVE SMOOTH",
"44 22 OFFCURVE",
"62 0 OFFCURVE",
"106 0 CURVE SMOOTH"
);
},
{
closed = 1;
nodes = (
"251 0 LINE",
"320 495 LINE",
"304 495 LINE",
"235 0 LINE"
);
},
{
closed = 1;
nodes = (
"339 619 OFFCURVE",
"344 624 OFFCURVE",
"344 635 CURVE SMOOTH",
"344 640 OFFCURVE",
"339 643 OFFCURVE",
"332 643 CURVE SMOOTH",
"322 643 OFFCURVE",
"317 638 OFFCURVE",
"317 629 CURVE SMOOTH",
"317 622 OFFCURVE",
"321 619 OFFCURVE",
"329 619 CURVE SMOOTH"
);
}
);
userData = {
assembly = "SVTCA[0]	/* SetFreedomAndProjectionVectorToAxis */\012PUSHW[ ]	/* 1 value pushed */\0120 \012RCVT[ ]	/* ReadCVT */\012IF[ ]	/* If */\012PUSHW[ ]	/* 1 value pushed */\01227 \012MDAP[1]	/* MoveDirectAbsPt */\012ELSE[ ]	/* Else */\012PUSHW[ ]	/* 2 values pushed */\01227 9 \012MIAP[0]	/* MoveIndirectAbsPt */\012EIF[ ]	/* EndIf */\012PUSHW[ ]	/* 1 value pushed */\0120 \012RCVT[ ]	/* ReadCVT */\012IF[ ]	/* If */\012PUSHW[ ]	/* 1 value pushed */\01230 \012MDAP[1]	/* MoveDirectAbsPt */\012ELSE[ ]	/* Else */\012PUSHW[ ]	/* 2 values pushed */\01230 9 \012MIAP[0]	/* MoveIndirectAbsPt */\012EIF[ ]	/* EndIf */\012PUSHW[ ]	/* 1 value pushed */\0120 \012RCVT[ ]	/* ReadCVT */\012IF[ ]	/* If */\012PUSHW[ ]	/* 1 value pushed */\0120 \012MDAP[1]	/* MoveDirectAbsPt */\012ELSE[ ]	/* Else */\012PUSHW[ ]	/* 2 values pushed */\0120 5 \012MIAP[0]	/* MoveIndirectAbsPt */\012EIF[ ]	/* EndIf */\012PUSHW[ ]	/* 1 value pushed */\0120 \012RCVT[ ]	/* ReadCVT */\012IF[ ]	/* If */\012PUSHW[ ]	/* 1 value pushed */\01214 \012MDAP[1]	/* MoveDirectAbsPt */\012ELSE[ ]	/* Else */\012PUSHW[ ]	/* 2 values pushed */\01214 5 \012MIAP[0]	/* MoveIndirectAbsPt */\012EIF[ ]	/* EndIf */\012PUSHW[ ]	/* 1 value pushed */\0120 \012RCVT[ ]	/* ReadCVT */\012IF[ ]	/* If */\012PUSHW[ ]	/* 1 value pushed */\01216 \012MDAP[1]	/* MoveDirectAbsPt */\012ELSE[ ]	/* Else */\012PUSHW[ ]	/* 2 values pushed */\01216 5 \012MIAP[0]	/* MoveIndirectAbsPt */\012EIF[ ]	/* EndIf */\012PUSHW[ ]	/* 1 value pushed */\0120 \012RCVT[ ]	/* ReadCVT */\012IF[ ]	/* If */\012PUSHW[ ]	/* 1 value pushed */\01218 \012MDAP[1]	/* MoveDirectAbsPt */\012ELSE[ ]	/* Else */\012PUSHW[ ]	/* 2 values pushed */\01218 5 \012MIAP[0]	/* MoveIndirectAbsPt */\012EIF[ ]	/* EndIf */\012PUSHW[ ]	/* 3 values pushed */\01213 18 27 \012SRP1[ ]	/* SetRefPoint1 */\012SRP2[ ]	/* SetRefPoint2 */\012IP[ ]	/* InterpolatePts */\012IUP[0]	/* InterpolateUntPts */\012IUP[1]	/* InterpolateUntPts */";
};
width = 351;
}
);
leftKerningGroup = t;
leftMetricsKey = t;
note = t_i;
rightKerningGroup = i;
rightMetricsKey = i;
},
{
color = 0;
glyphname = t_u;
lastChange = "2022-04-20 13:36:45 +0000";
layers = (
{
anchors = (
{
name = caret_1;
position = "{211, 0}";
},
{
name = topright_2;
position = "{587, 495}";
}
);
layerId = "9AA098C0-EDBC-463F-BC21-AFCD07A070D0";
paths = (
{
closed = 1;
nodes = (
"131 0 OFFCURVE",
"157 3 OFFCURVE",
"166 4 CURVE",
"168 20 LINE",
"144 17 OFFCURVE",
"127 15 OFFCURVE",
"108 15 CURVE SMOOTH",
"71 15 OFFCURVE",
"61 39 OFFCURVE",
"61 68 CURVE SMOOTH",
"61 74 OFFCURVE",
"61 81 OFFCURVE",
"62 88 CURVE SMOOTH",
"117 479 LINE",
"303 479 LINE",
"315 495 LINE",
"119 495 LINE",
"133 592 LINE",
"120 592 LINE",
"103 495 LINE",
"65 493 LINE",
"63 479 LINE",
"101 479 LINE",
"46 93 LINE SMOOTH",
"45 83 OFFCURVE",
"44 74 OFFCURVE",
"44 66 CURVE SMOOTH",
"44 22 OFFCURVE",
"62 0 OFFCURVE",
"106 0 CURVE SMOOTH"
);
},
{
closed = 1;
nodes = (
"396 -8 OFFCURVE",
"450 43 OFFCURVE",
"470 100 CURVE",
"458 0 LINE",
"474 0 LINE",
"543 495 LINE",
"527 495 LINE",
"487 202 LINE SMOOTH",
"473 103 OFFCURVE",
"407 8 OFFCURVE",
"336 8 CURVE SMOOTH",
"274 8 OFFCURVE",
"260 42 OFFCURVE",
"260 83 CURVE SMOOTH",
"260 99 OFFCURVE",
"262 116 OFFCURVE",
"264 132 CURVE SMOOTH",
"315 495 LINE",
"299 495 LINE",
"247 123 LINE SMOOTH",
"245 108 OFFCURVE",
"243 92 OFFCURVE",
"243 76 CURVE SMOOTH",
"243 31 OFFCURVE",
"259 -8 OFFCURVE",
"332 -8 CURVE SMOOTH"
);
}
);
userData = {
assembly = "SVTCA[0]	/* SetFreedomAndProjectionVectorToAxis */\012PUSHW[ ]	/* 1 value pushed */\0120 \012RCVT[ ]	/* ReadCVT */\012IF[ ]	/* If */\012PUSHW[ ]	/* 1 value pushed */\01238 \012MDAP[1]	/* MoveDirectAbsPt */\012ELSE[ ]	/* Else */\012PUSHW[ ]	/* 2 values pushed */\01238 9 \012MIAP[0]	/* MoveIndirectAbsPt */\012EIF[ ]	/* EndIf */\012PUSHW[ ]	/* 1 value pushed */\0120 \012RCVT[ ]	/* ReadCVT */\012IF[ ]	/* If */\012PUSHW[ ]	/* 1 value pushed */\01241 \012MDAP[1]	/* MoveDirectAbsPt */\012ELSE[ ]	/* Else */\012PUSHW[ ]	/* 2 values pushed */\01241 9 \012MIAP[0]	/* MoveIndirectAbsPt */\012EIF[ ]	/* EndIf */\012PUSHW[ ]	/* 1 value pushed */\0120 \012RCVT[ ]	/* ReadCVT */\012IF[ ]	/* If */\012PUSHW[ ]	/* 1 value pushed */\01254 \012MDAP[1]	/* MoveDirectAbsPt */\012ELSE[ ]	/* Else */\012PUSHW[ ]	/* 2 values pushed */\01254 9 \012MIAP[0]	/* MoveIndirectAbsPt */\012EIF[ ]	/* EndIf */\012PUSHW[ ]	/* 1 value pushed */\0120 \012RCVT[ ]	/* ReadCVT */\012IF[ ]	/* If */\012PUSHW[ ]	/* 1 value pushed */\0120 \012MDAP[1]	/* MoveDirectAbsPt */\012ELSE[ ]	/* Else */\012PUSHW[ ]	/* 2 values pushed */\0120 5 \012MIAP[0]	/* MoveIndirectAbsPt */\012EIF[ ]	/* EndIf */\012PUSHW[ ]	/* 1 value pushed */\0120 \012RCVT[ ]	/* ReadCVT */\012IF[ ]	/* If */\012PUSHW[ ]	/* 1 value pushed */\01225 \012MDAP[1]	/* MoveDirectAbsPt */\012ELSE[ ]	/* Else */\012PUSHW[ ]	/* 2 values pushed */\01225 5 \012MIAP[0]	/* MoveIndirectAbsPt */\012EIF[ ]	/* EndIf */\012PUSHW[ ]	/* 1 value pushed */\0120 \012RCVT[ ]	/* ReadCVT */\012IF[ ]	/* If */\012PUSHW[ ]	/* 1 value pushed */\01227 \012MDAP[1]	/* MoveDirectAbsPt */\012ELSE[ ]	/* Else */\012PUSHW[ ]	/* 2 values pushed */\01227 5 \012MIAP[0]	/* MoveIndirectAbsPt */\012EIF[ ]	/* EndIf */\012PUSHW[ ]	/* 1 value pushed */\0120 \012RCVT[ ]	/* ReadCVT */\012IF[ ]	/* If */\012PUSHW[ ]	/* 1 value pushed */\01229 \012MDAP[1]	/* MoveDirectAbsPt */\012ELSE[ ]	/* Else */\012PUSHW[ ]	/* 2 values pushed */\01229 5 \012MIAP[0]	/* MoveIndirectAbsPt */\012EIF[ ]	/* EndIf */\012PUSHW[ ]	/* 1 value pushed */\0120 \012RCVT[ ]	/* ReadCVT */\012IF[ ]	/* If */\012PUSHW[ ]	/* 1 value pushed */\01248 \012MDAP[1]	/* MoveDirectAbsPt */\012ELSE[ ]	/* Else */\012PUSHW[ ]	/* 2 values pushed */\01248 5 \012MIAP[0]	/* MoveIndirectAbsPt */\012EIF[ ]	/* EndIf */\012PUSHW[ ]	/* 3 values pushed */\0121 29 38 \012SRP1[ ]	/* SetRefPoint1 */\012SRP2[ ]	/* SetRefPoint2 */\012IP[ ]	/* InterpolatePts */\012PUSHW[ ]	/* 3 values pushed */\01224 29 38 \012SRP1[ ]	/* SetRefPoint1 */\012SRP2[ ]	/* SetRefPoint2 */\012IP[ ]	/* InterpolatePts */\012IUP[0]	/* InterpolateUntPts */\012IUP[1]	/* InterpolateUntPts */";
};
width = 577;
}
);
leftKerningGroup = t;
leftMetricsKey = t;
note = t_u;
rightKerningGroup = u;
rightMetricsKey = u;
},
{
color = 6;
glyphname = ordfeminine;
lastChange = "2022-04-20 13:17:52 +0000";
layers = (
{
layerId = "9AA098C0-EDBC-463F-BC21-AFCD07A070D0";
paths = (
{
closed = 1;
nodes = (
"172 285 OFFCURVE",
"198 320 OFFCURVE",
"200 326 CURVE",
"197 289 LINE",
"211 289 LINE",
"255 598 LINE",
"241 598 LINE",
"238 584 LINE",
"226 599 OFFCURVE",
"208 603 OFFCURVE",
"181 603 CURVE SMOOTH",
"117 603 OFFCURVE",
"102 568 OFFCURVE",
"95 522 CURVE SMOOTH",
"72 367 LINE SMOOTH",
"71 358 OFFCURVE",
"70 349 OFFCURVE",
"70 341 CURVE SMOOTH",
"70 309 OFFCURVE",
"83 285 OFFCURVE",
"126 285 CURVE SMOOTH"
);
},
{
closed = 1;
nodes = (
"94 300 OFFCURVE",
"87 318 OFFCURVE",
"87 341 CURVE SMOOTH",
"87 352 OFFCURVE",
"88 364 OFFCURVE",
"90 375 CURVE SMOOTH",
"113 528 LINE SMOOTH",
"119 571 OFFCURVE",
"134 590 OFFCURVE",
"180 590 CURVE SMOOTH",
"225 590 OFFCURVE",
"234 574 OFFCURVE",
"232 552 CURVE SMOOTH",
"211 409 LINE SMOOTH",
"206 374 OFFCURVE",
"191 300 OFFCURVE",
"126 300 CURVE SMOOTH"
);
}
);
userData = {
assembly = "SVTCA[0]	/* SetFreedomAndProjectionVectorToAxis */\012PUSHW[ ]	/* 3 values pushed */\01240 43 3 \012CALL[ ]	/* CallFunction */\012PUSHW[ ]	/* 1 value pushed */\01243 \012SRP0[ ]	/* SetRefPoint0 */\012PUSHW[ ]	/* 1 value pushed */\01237 \012MDRP[10000]	/* MoveDirectRelPt */\012PUSHW[ ]	/* 1 value pushed */\01237 \012MDAP[1]	/* MoveDirectAbsPt */\012IUP[0]	/* InterpolateUntPts */\012IUP[1]	/* InterpolateUntPts */";
};
width = 261;
}
);
note = ordfeminine;
unicode = 00AA;
},
{
color = 6;
glyphname = ordmasculine;
lastChange = "2022-04-20 10:56:50 +0000";
layers = (
{
layerId = "9AA098C0-EDBC-463F-BC21-AFCD07A070D0";
paths = (
{
closed = 1;
nodes = (
"192 291 OFFCURVE",
"211 308 OFFCURVE",
"219 370 CURVE SMOOTH",
"242 529 LINE SMOOTH",
"243 538 OFFCURVE",
"244 545 OFFCURVE",
"244 552 CURVE SMOOTH",
"244 591 OFFCURVE",
"226 603 OFFCURVE",
"179 603 CURVE SMOOTH",
"122 603 OFFCURVE",
"102 586 OFFCURVE",
"95 529 CURVE SMOOTH",
"72 370 LINE SMOOTH",
"71 360 OFFCURVE",
"70 351 OFFCURVE",
"70 343 CURVE SMOOTH",
"70 304 OFFCURVE",
"88 291 OFFCURVE",
"136 291 CURVE SMOOTH"
);
},
{
closed = 1;
nodes = (
"99 306 OFFCURVE",
"86 315 OFFCURVE",
"86 346 CURVE SMOOTH",
"86 353 OFFCURVE",
"87 361 OFFCURVE",
"88 370 CURVE SMOOTH",
"111 529 LINE SMOOTH",
"118 571 OFFCURVE",
"131 590 OFFCURVE",
"178 590 CURVE SMOOTH",
"214 590 OFFCURVE",
"228 579 OFFCURVE",
"228 551 CURVE SMOOTH",
"228 544 OFFCURVE",
"227 537 OFFCURVE",
"226 529 CURVE SMOOTH",
"203 370 LINE SMOOTH",
"196 321 OFFCURVE",
"181 306 OFFCURVE",
"136 306 CURVE SMOOTH"
);
}
);
width = 257;
}
);
note = ordmasculine;
unicode = 00BA;
},
{
color = 6;
glyphname = "Be-cy";
lastChange = "2022-04-20 13:36:45 +0000";
layers = (
{
layerId = "9AA098C0-EDBC-463F-BC21-AFCD07A070D0";
paths = (
{
closed = 1;
nodes = (
"161 0 LINE SMOOTH",
"274 0 OFFCURVE",
"290 69 OFFCURVE",
"299 131 CURVE SMOOTH",
"323 304 LINE SMOOTH",
"325 319 OFFCURVE",
"327 334 OFFCURVE",
"327 349 CURVE SMOOTH",
"327 395 OFFCURVE",
"309 435 OFFCURVE",
"223 435 CURVE SMOOTH",
"119 435 LINE",
"138 575 LINE",
"363 575 LINE",
"366 591 LINE",
"125 591 LINE",
"41 0 LINE"
);
},
{
closed = 1;
nodes = (
"116 419 LINE",
"220 419 LINE SMOOTH",
"294 419 OFFCURVE",
"310 382 OFFCURVE",
"310 339 CURVE SMOOTH",
"310 325 OFFCURVE",
"308 310 OFFCURVE",
"306 295 CURVE SMOOTH",
"284 140 LINE SMOOTH",
"276 81 OFFCURVE",
"262 16 OFFCURVE",
"164 16 CURVE SMOOTH",
"60 16 LINE"
);
}
);
width = 379;
}
);
leftKerningGroup = H;
leftMetricsKey = H;
note = uni0411;
unicode = 0411;
},
{
color = 6;
glyphname = "Ge-cy";
lastChange = "2022-04-20 13:36:45 +0000";
layers = (
{
layerId = "9AA098C0-EDBC-463F-BC21-AFCD07A070D0";
paths = (
{
closed = 1;
nodes = (
"57 0 LINE",
"138 575 LINE",
"363 575 LINE",
"366 591 LINE",
"125 591 LINE",
"41 0 LINE"
);
}
);
width = 328;
}
);
leftKerningGroup = H;
leftMetricsKey = H;
note = uni0413;
rightKerningGroup = T;
unicode = 0413;
},
{
color = 6;
glyphname = "De-cy";
lastChange = "2022-04-20 13:36:45 +0000";
layers = (
{
layerId = "9AA098C0-EDBC-463F-BC21-AFCD07A070D0";
paths = (
{
closed = 1;
nodes = (
"-16 -99 LINE",
"-3 -5 LINE",
"379 -5 LINE",
"366 -99 LINE",
"382 -99 LINE",
"397 11 LINE",
"321 11 LINE",
"402 591 LINE",
"200 591 LINE",
"95 92 LINE SMOOTH",
"84 40 OFFCURVE",
"66 13 OFFCURVE",
"33 11 CURVE SMOOTH",
"-17 11 LINE",
"-32 -99 LINE"
);
},
{
closed = 1;
nodes = (
"98 32 OFFCURVE",
"108 80 OFFCURVE",
"110 92 CURVE SMOOTH",
"213 575 LINE",
"384 575 LINE",
"305 11 LINE",
"71 11 LINE"
);
}
);
width = 444;
}
);
leftKerningGroup = De;
note = uni0414;
rightKerningGroup = De;
unicode = 0414;
},
{
color = 6;
glyphname = "Zhe-cy";
lastChange = "2022-04-20 13:36:45 +0000";
layers = (
{
layerId = "9AA098C0-EDBC-463F-BC21-AFCD07A070D0";
paths = (
{
closed = 1;
nodes = (
"-3 0 LINE",
"218 296 LINE",
"249 296 LINE",
"207 0 LINE",
"223 0 LINE",
"264 295 LINE",
"296 295 LINE",
"433 0 LINE",
"452 0 LINE",
"309 306 LINE",
"531 591 LINE",
"513 591 LINE",
"294 310 LINE",
"267 310 LINE",
"307 591 LINE",
"291 591 LINE",
"251 310 LINE",
"223 310 LINE",
"85 591 LINE",
"67 591 LINE",
"207 306 LINE",
"-22 0 LINE"
);
}
);
width = 500;
}
);
leftKerningGroup = Zhe;
note = uni0416;
rightKerningGroup = K;
unicode = 0416;
},
{
glyphname = "Iigrave-cy";
lastChange = "2022-04-20 13:36:45 +0000";
layers = (
{
associatedMasterId = "9AA098C0-EDBC-463F-BC21-AFCD07A070D0";
background = {
components = (
{
name = breve;
transform = "{1, 0, 0, 1, 3, 0}";
}
);
paths = (
{
closed = 1;
nodes = (
"149 0 LINE",
"177 85 OFFCURVE",
"204 170 OFFCURVE",
"232 255 CURVE",
"232 0 LINE",
"368 0 LINE",
"368 495 LINE",
"233 495 LINE",
"161 278 LINE",
"161 495 LINE",
"25 495 LINE",
"25 0 LINE"
);
}
);
};
components = (
{
name = "Ii-cy";
},
{
name = gravecomb.case;
transform = "{1, 0, 0, 1, 67, 0}";
}
);
layerId = "84C7F3DB-6EB7-40E5-AF1F-D22350FC6E40";
name = Black;
width = 434;
},
{
components = (
{
name = "Ii-cy";
},
{
name = gravecomb.case;
transform = "{1, 0, 0, 1, 172, 0}";
}
);
layerId = "9AA098C0-EDBC-463F-BC21-AFCD07A070D0";
width = 434;
}
);
leftKerningGroup = H;
note = uni0439;
rightKerningGroup = H;
unicode = 040D;
},
{
color = 0;
glyphname = "Ka-cy";
lastChange = "2022-04-20 13:36:45 +0000";
layers = (
{
layerId = "9AA098C0-EDBC-463F-BC21-AFCD07A070D0";
paths = (
{
closed = 1;
nodes = (
"57 0 LINE",
"99 296 LINE",
"130 296 LINE",
"265 0 LINE",
"284 0 LINE",
"143 306 LINE",
"363 591 LINE",
"345 591 LINE",
"130 312 LINE",
"101 312 LINE",
"141 591 LINE",
"125 591 LINE",
"41 0 LINE"
);
}
);
width = 330;
}
);
leftKerningGroup = H;
leftMetricsKey = H;
note = uni041A;
rightKerningGroup = K;
rightMetricsKey = K;
unicode = 041A;
},
{
color = 6;
glyphname = "El-cy";
lastChange = "2022-04-20 13:36:45 +0000";
layers = (
{
layerId = "9AA098C0-EDBC-463F-BC21-AFCD07A070D0";
paths = (
{
closed = 1;
nodes = (
"75 0 OFFCURVE",
"92 77 OFFCURVE",
"94 92 CURVE",
"197 575 LINE",
"369 575 LINE",
"289 1 LINE",
"305 1 LINE",
"388 591 LINE",
"184 591 LINE",
"78 92 LINE SMOOTH",
"67 41 OFFCURVE",
"50 16 OFFCURVE",
"23 16 CURVE",
"20 0 LINE"
);
}
);
width = 416;
}
);
leftKerningGroup = El;
note = uni041B;
rightKerningGroup = H;
rightMetricsKey = H;
unicode = 041B;
},
{
color = 6;
glyphname = "Pe-cy";
lastChange = "2022-04-20 13:36:45 +0000";
layers = (
{
layerId = "9AA098C0-EDBC-463F-BC21-AFCD07A070D0";
paths = (
{
closed = 1;
nodes = (
"57 0 LINE",
"138 575 LINE",
"347 575 LINE",
"266 0 LINE",
"282 0 LINE",
"366 591 LINE",
"125 591 LINE",
"41 0 LINE"
);
}
);
width = 394;
}
);
leftKerningGroup = H;
leftMetricsKey = H;
note = uni041F;
rightKerningGroup = H;
rightMetricsKey = H;
unicode = 041F;
},
{
color = 6;
glyphname = "U-cy";
lastChange = "2022-04-20 13:36:46 +0000";
layers = (
{
layerId = "9AA098C0-EDBC-463F-BC21-AFCD07A070D0";
paths = (
{
closed = 1;
nodes = (
"83 -19 OFFCURVE",
"117 22 OFFCURVE",
"145 95 CURVE SMOOTH",
"335 591 LINE",
"319 591 LINE",
"139 123 LINE",
"92 591 LINE",
"76 591 LINE",
"126 98 LINE",
"103 21 OFFCURVE",
"56 -5 OFFCURVE",
"25 -5 CURVE SMOOTH",
"2 -5 OFFCURVE",
"-20 0 OFFCURVE",
"-23 1 CURVE",
"-25 -13 LINE",
"-22 -14 OFFCURVE",
"3 -19 OFFCURVE",
"23 -19 CURVE SMOOTH"
);
}
);
width = 297;
}
);
leftKerningGroup = Ushort;
note = uni0423;
rightKerningGroup = W;
unicode = 0423;
},
{
color = 6;
glyphname = "Ushort-cy";
lastChange = "2022-04-20 13:36:46 +0000";
layers = (
{
components = (
{
name = brevecomb;
transform = "{1, 0, 0, 1, 87, 79}";
}
);
layerId = "9AA098C0-EDBC-463F-BC21-AFCD07A070D0";
paths = (
{
closed = 1;
nodes = (
"83 -20 OFFCURVE",
"117 25 OFFCURVE",
"144 94 CURVE SMOOTH",
"335 590 LINE",
"319 590 LINE",
"139 122 LINE",
"92 590 LINE",
"76 590 LINE",
"127 91 LINE",
"103 13 OFFCURVE",
"56 -6 OFFCURVE",
"25 -6 CURVE SMOOTH",
"2 -6 OFFCURVE",
"-20 -1 OFFCURVE",
"-23 0 CURVE",
"-25 -14 LINE",
"-22 -15 OFFCURVE",
"3 -20 OFFCURVE",
"23 -20 CURVE SMOOTH"
);
}
);
width = 297;
}
);
leftKerningGroup = Ushort;
widthMetricsKey = "U-cy";
note = uni040E;
rightKerningGroup = W;
rightMetricsKey = "U-cy";
unicode = 040E;
},
{
color = 6;
glyphname = "Ef-cy";
lastChange = "2022-04-20 13:36:46 +0000";
layers = (
{
layerId = "9AA098C0-EDBC-463F-BC21-AFCD07A070D0";
paths = (
{
closed = 1;
nodes = (
"195 0 LINE",
"204 59 LINE",
"213 59 LINE SMOOTH",
"293 59 OFFCURVE",
"352 73 OFFCURVE",
"368 189 CURVE SMOOTH",
"398 403 LINE SMOOTH",
"400 416 OFFCURVE",
"401 428 OFFCURVE",
"401 438 CURVE SMOOTH",
"401 520 OFFCURVE",
"348 533 OFFCURVE",
"280 533 CURVE SMOOTH",
"270 533 LINE",
"279 591 LINE",
"263 591 LINE",
"254 533 LINE",
"243 533 LINE SMOOTH",
"166 533 OFFCURVE",
"105 519 OFFCURVE",
"89 403 CURVE SMOOTH",
"59 189 LINE SMOOTH",
"57 176 OFFCURVE",
"56 164 OFFCURVE",
"56 154 CURVE SMOOTH",
"56 72 OFFCURVE",
"109 59 OFFCURVE",
"176 59 CURVE SMOOTH",
"188 59 LINE",
"179 0 LINE"
);
},
{
closed = 1;
nodes = (
"117 74 OFFCURVE",
"72 81 OFFCURVE",
"72 152 CURVE SMOOTH",
"72 162 OFFCURVE",
"73 173 OFFCURVE",
"75 186 CURVE SMOOTH",
"106 406 LINE SMOOTH",
"120 510 OFFCURVE",
"176 518 OFFCURVE",
"241 518 CURVE SMOOTH",
"252 518 LINE",
"190 74 LINE",
"177 74 LINE SMOOTH"
);
},
{
closed = 1;
nodes = (
"268 518 LINE",
"278 518 LINE SMOOTH",
"334 518 OFFCURVE",
"385 511 OFFCURVE",
"385 435 CURVE SMOOTH",
"385 427 OFFCURVE",
"384 417 OFFCURVE",
"383 406 CURVE SMOOTH",
"352 186 LINE SMOOTH",
"337 82 OFFCURVE",
"285 74 OFFCURVE",
"215 74 CURVE SMOOTH",
"206 74 LINE"
);
}
);
width = 443;
}
);
leftKerningGroup = O;
note = uni0424;
rightKerningGroup = O;
unicode = 0424;
},
{
color = 6;
glyphname = "Che-cy";
lastChange = "2022-04-20 13:36:46 +0000";
layers = (
{
background = {
paths = (
{
closed = 1;
nodes = (
"283 0 LINE",
"365 591 LINE",
"353 591 LINE",
"297 187 LINE",
"284 176 OFFCURVE",
"254 146 OFFCURVE",
"182 146 CURVE SMOOTH",
"104 146 OFFCURVE",
"88 182 OFFCURVE",
"88 225 CURVE SMOOTH",
"88 240 OFFCURVE",
"90 255 OFFCURVE",
"92 270 CURVE SMOOTH",
"137 591 LINE",
"125 591 LINE",
"80 267 LINE SMOOTH",
"78 252 OFFCURVE",
"76 237 OFFCURVE",
"76 223 CURVE SMOOTH",
"76 176 OFFCURVE",
"95 136 OFFCURVE",
"181 136 CURVE SMOOTH",
"244 136 OFFCURVE",
"284 159 OFFCURVE",
"295 174 CURVE",
"271 0 LINE"
);
}
);
};
layerId = "9AA098C0-EDBC-463F-BC21-AFCD07A070D0";
paths = (
{
closed = 1;
nodes = (
"287 0 LINE",
"371 591 LINE",
"355 591 LINE",
"305 249 LINE",
"292 192 OFFCURVE",
"255 151 OFFCURVE",
"182 151 CURVE SMOOTH",
"109 151 OFFCURVE",
"92 186 OFFCURVE",
"92 228 CURVE SMOOTH",
"92 243 OFFCURVE",
"95 259 OFFCURVE",
"97 275 CURVE SMOOTH",
"143 591 LINE",
"127 591 LINE",
"79 266 LINE SMOOTH",
"77 252 OFFCURVE",
"75 237 OFFCURVE",
"75 222 CURVE SMOOTH",
"75 176 OFFCURVE",
"94 135 OFFCURVE",
"180 135 CURVE SMOOTH",
"243 135 OFFCURVE",
"278 162 OFFCURVE",
"297 193 CURVE",
"271 0 LINE"
);
}
);
width = 399;
}
);
note = uni0427;
rightKerningGroup = H;
rightMetricsKey = H;
unicode = 0427;
},
{
color = 6;
glyphname = "Tse-cy";
lastChange = "2022-04-20 13:36:46 +0000";
layers = (
{
layerId = "9AA098C0-EDBC-463F-BC21-AFCD07A070D0";
paths = (
{
closed = 1;
nodes = (
"299 -74 LINE",
"312 16 LINE",
"292 16 LINE",
"373 591 LINE",
"357 591 LINE",
"276 16 LINE",
"59 16 LINE",
"140 591 LINE",
"124 591 LINE",
"41 0 LINE",
"294 0 LINE",
"283 -74 LINE"
);
}
);
width = 401;
}
);
leftKerningGroup = H;
leftMetricsKey = H;
note = uni0426;
rightKerningGroup = Tse;
unicode = 0426;
},
{
color = 6;
glyphname = "Sha-cy";
lastChange = "2022-04-20 13:36:46 +0000";
layers = (
{
layerId = "9AA098C0-EDBC-463F-BC21-AFCD07A070D0";
paths = (
{
closed = 1;
nodes = (
"515 0 LINE",
"599 591 LINE",
"583 591 LINE",
"502 16 LINE",
"289 16 LINE",
"370 591 LINE",
"354 591 LINE",
"273 16 LINE",
"60 16 LINE",
"141 591 LINE",
"125 591 LINE",
"41 0 LINE"
);
}
);
width = 627;
}
);
leftKerningGroup = H;
leftMetricsKey = H;
note = uni0428;
rightKerningGroup = H;
rightMetricsKey = H;
unicode = 0428;
},
{
color = 6;
glyphname = "Shcha-cy";
lastChange = "2022-04-20 13:36:46 +0000";
layers = (
{
layerId = "9AA098C0-EDBC-463F-BC21-AFCD07A070D0";
paths = (
{
closed = 1;
nodes = (
"532 -74 LINE",
"545 16 LINE",
"525 16 LINE",
"606 591 LINE",
"590 591 LINE",
"509 16 LINE",
"292 16 LINE",
"373 591 LINE",
"357 591 LINE",
"274 0 LINE",
"527 0 LINE",
"516 -74 LINE"
);
},
{
closed = 1;
nodes = (
"294 0 LINE",
"292 16 LINE",
"373 591 LINE",
"357 591 LINE",
"276 16 LINE",
"59 16 LINE",
"140 591 LINE",
"124 591 LINE",
"41 0 LINE"
);
}
);
width = 634;
}
);
leftKerningGroup = H;
leftMetricsKey = H;
note = uni0429;
rightKerningGroup = Tse;
rightMetricsKey = "Tse-cy";
unicode = 0429;
},
{
color = 6;
glyphname = "Dzhe-cy";
lastChange = "2022-04-20 13:36:46 +0000";
layers = (
{
layerId = "9AA098C0-EDBC-463F-BC21-AFCD07A070D0";
paths = (
{
closed = 1;
nodes = (
"158 -99 LINE",
"171 0 LINE",
"286 0 LINE",
"369 591 LINE",
"355 591 LINE",
"275 16 LINE",
"58 16 LINE",
"138 591 LINE",
"124 591 LINE",
"41 0 LINE",
"156 0 LINE",
"143 -99 LINE"
);
}
);
width = 397;
}
);
leftKerningGroup = H;
leftMetricsKey = H;
note = uni040F;
rightKerningGroup = H;
rightMetricsKey = H;
unicode = 040F;
},
{
color = 6;
glyphname = "Softsign-cy";
lastChange = "2022-04-20 13:36:46 +0000";
layers = (
{
layerId = "9AA098C0-EDBC-463F-BC21-AFCD07A070D0";
paths = (
{
closed = 1;
nodes = (
"166 0 LINE SMOOTH",
"279 0 OFFCURVE",
"294 69 OFFCURVE",
"303 131 CURVE SMOOTH",
"327 304 LINE SMOOTH",
"329 319 OFFCURVE",
"331 334 OFFCURVE",
"331 349 CURVE SMOOTH",
"331 395 OFFCURVE",
"313 435 OFFCURVE",
"227 435 CURVE SMOOTH",
"118 435 LINE",
"139 588 LINE",
"124 588 LINE",
"42 0 LINE"
);
},
{
closed = 1;
nodes = (
"116 420 LINE",
"221 420 LINE SMOOTH",
"299 420 OFFCURVE",
"316 386 OFFCURVE",
"316 343 CURVE SMOOTH",
"316 330 OFFCURVE",
"314 315 OFFCURVE",
"312 301 CURVE SMOOTH",
"289 134 LINE SMOOTH",
"280 75 OFFCURVE",
"267 15 OFFCURVE",
"164 15 CURVE SMOOTH",
"59 15 LINE"
);
}
);
width = 378;
}
);
leftKerningGroup = H;
leftMetricsKey = H;
note = uni042C;
rightKerningGroup = Softsign;
unicode = 042C;
},
{
color = 6;
glyphname = "Hardsign-cy";
lastChange = "2022-04-20 13:36:46 +0000";
layers = (
{
layerId = "9AA098C0-EDBC-463F-BC21-AFCD07A070D0";
paths = (
{
closed = 1;
nodes = (
"167 0 LINE SMOOTH",
"280 0 OFFCURVE",
"296 69 OFFCURVE",
"305 131 CURVE SMOOTH",
"329 304 LINE SMOOTH",
"331 319 OFFCURVE",
"333 334 OFFCURVE",
"333 349 CURVE SMOOTH",
"333 395 OFFCURVE",
"315 435 OFFCURVE",
"229 435 CURVE SMOOTH",
"120 435 LINE",
"142 591 LINE",
"63 591 LINE",
"60 575 LINE",
"124 575 LINE",
"43 0 LINE"
);
},
{
closed = 1;
nodes = (
"117 420 LINE",
"222 420 LINE SMOOTH",
"301 420 OFFCURVE",
"318 385 OFFCURVE",
"318 342 CURVE SMOOTH",
"318 329 OFFCURVE",
"316 315 OFFCURVE",
"314 301 CURVE SMOOTH",
"290 134 LINE SMOOTH",
"282 75 OFFCURVE",
"269 15 OFFCURVE",
"166 15 CURVE SMOOTH",
"61 15 LINE"
);
}
);
width = 380;
}
);
note = uni042A;
rightKerningGroup = Softsign;
rightMetricsKey = "Softsign-cy";
unicode = 042A;
},
{
color = 6;
glyphname = "Yeru-cy";
lastChange = "2022-04-20 13:36:46 +0000";
layers = (
{
layerId = "9AA098C0-EDBC-463F-BC21-AFCD07A070D0";
paths = (
{
closed = 1;
nodes = (
"165 0 LINE SMOOTH",
"278 0 OFFCURVE",
"294 69 OFFCURVE",
"303 131 CURVE SMOOTH",
"327 304 LINE SMOOTH",
"329 319 OFFCURVE",
"331 334 OFFCURVE",
"331 349 CURVE SMOOTH",
"331 395 OFFCURVE",
"313 435 OFFCURVE",
"227 435 CURVE SMOOTH",
"118 435 LINE",
"140 591 LINE",
"125 591 LINE",
"41 0 LINE"
);
},
{
closed = 1;
nodes = (
"115 420 LINE",
"220 420 LINE SMOOTH",
"299 420 OFFCURVE",
"316 385 OFFCURVE",
"316 342 CURVE SMOOTH",
"316 329 OFFCURVE",
"314 315 OFFCURVE",
"312 301 CURVE SMOOTH",
"288 134 LINE SMOOTH",
"280 75 OFFCURVE",
"267 15 OFFCURVE",
"164 15 CURVE SMOOTH",
"59 15 LINE"
);
},
{
closed = 1;
nodes = (
"395 0 LINE",
"479 591 LINE",
"463 591 LINE",
"379 0 LINE"
);
}
);
width = 507;
}
);
leftKerningGroup = H;
leftMetricsKey = H;
note = uni042B;
rightKerningGroup = H;
rightMetricsKey = H;
unicode = 042B;
},
{
color = 6;
glyphname = "Lje-cy";
lastChange = "2022-04-20 13:36:46 +0000";
layers = (
{
layerId = "9AA098C0-EDBC-463F-BC21-AFCD07A070D0";
paths = (
{
closed = 1;
nodes = (
"75 0 OFFCURVE",
"92 77 OFFCURVE",
"94 92 CURVE",
"197 575 LINE",
"369 575 LINE",
"288 0 LINE",
"412 0 LINE SMOOTH",
"525 0 OFFCURVE",
"541 69 OFFCURVE",
"550 131 CURVE SMOOTH",
"574 304 LINE SMOOTH",
"576 319 OFFCURVE",
"578 334 OFFCURVE",
"578 349 CURVE SMOOTH",
"578 395 OFFCURVE",
"560 435 OFFCURVE",
"474 435 CURVE SMOOTH",
"366 435 LINE",
"388 591 LINE",
"184 591 LINE",
"78 92 LINE SMOOTH",
"67 41 OFFCURVE",
"50 16 OFFCURVE",
"23 16 CURVE",
"20 0 LINE"
);
},
{
closed = 1;
nodes = (
"363 420 LINE",
"467 420 LINE SMOOTH",
"546 420 OFFCURVE",
"563 385 OFFCURVE",
"563 342 CURVE SMOOTH",
"563 329 OFFCURVE",
"561 315 OFFCURVE",
"559 301 CURVE SMOOTH",
"535 134 LINE SMOOTH",
"527 75 OFFCURVE",
"514 15 OFFCURVE",
"411 15 CURVE SMOOTH",
"307 15 LINE"
);
}
);
width = 625;
}
);
leftKerningGroup = El;
leftMetricsKey = "El-cy";
note = uni0409;
rightKerningGroup = Softsign;
rightMetricsKey = "Softsign-cy";
unicode = 0409;
},
{
color = 6;
glyphname = "Nje-cy";
lastChange = "2022-04-20 13:36:46 +0000";
layers = (
{
layerId = "9AA098C0-EDBC-463F-BC21-AFCD07A070D0";
paths = (
{
closed = 1;
nodes = (
"345 0 LINE SMOOTH",
"458 0 OFFCURVE",
"474 69 OFFCURVE",
"483 131 CURVE SMOOTH",
"507 304 LINE SMOOTH",
"509 319 OFFCURVE",
"511 334 OFFCURVE",
"511 349 CURVE SMOOTH",
"511 395 OFFCURVE",
"493 435 OFFCURVE",
"407 435 CURVE SMOOTH",
"298 435 LINE",
"319 588 LINE",
"304 588 LINE",
"221 0 LINE"
);
},
{
closed = 1;
nodes = (
"57 0 LINE",
"100 302 LINE",
"263 302 LINE",
"220 0 LINE",
"236 0 LINE",
"320 591 LINE",
"304 591 LINE",
"265 318 LINE",
"102 318 LINE",
"141 591 LINE",
"125 591 LINE",
"41 0 LINE"
);
},
{
closed = 1;
nodes = (
"295 420 LINE",
"400 420 LINE SMOOTH",
"479 420 OFFCURVE",
"496 385 OFFCURVE",
"496 342 CURVE SMOOTH",
"496 329 OFFCURVE",
"494 315 OFFCURVE",
"492 301 CURVE SMOOTH",
"468 134 LINE SMOOTH",
"460 75 OFFCURVE",
"447 15 OFFCURVE",
"344 15 CURVE SMOOTH",
"239 15 LINE"
);
}
);
width = 558;
}
);
leftKerningGroup = H;
leftMetricsKey = H;
note = uni040A;
rightKerningGroup = Softsign;
rightMetricsKey = "Softsign-cy";
unicode = 040A;
},
{
color = 6;
glyphname = "E-cy";
lastChange = "2022-04-20 13:36:46 +0000";
layers = (
{
layerId = "9AA098C0-EDBC-463F-BC21-AFCD07A070D0";
paths = (
{
closed = 1;
nodes = (
"250 -12 OFFCURVE",
"310 2 OFFCURVE",
"326 118 CURVE SMOOTH",
"336 189 LINE",
"320 189 LINE",
"310 116 LINE SMOOTH",
"295 12 OFFCURVE",
"239 2 OFFCURVE",
"173 2 CURVE SMOOTH",
"112 2 OFFCURVE",
"62 10 OFFCURVE",
"62 84 CURVE SMOOTH",
"62 94 OFFCURVE",
"63 104 OFFCURVE",
"65 116 CURVE SMOOTH",
"90 292 LINE",
"262 292 LINE",
"264 308 LINE",
"92 308 LINE",
"114 467 LINE SMOOTH",
"129 572 OFFCURVE",
"180 584 OFFCURVE",
"255 584 CURVE SMOOTH",
"318 584 OFFCURVE",
"362 576 OFFCURVE",
"362 505 CURVE SMOOTH",
"362 495 OFFCURVE",
"362 485 OFFCURVE",
"360 473 CURVE SMOOTH",
"347 381 LINE",
"363 381 LINE",
"376 469 LINE SMOOTH",
"378 482 OFFCURVE",
"379 494 OFFCURVE",
"379 504 CURVE SMOOTH",
"379 586 OFFCURVE",
"326 599 OFFCURVE",
"258 599 CURVE SMOOTH",
"177 599 OFFCURVE",
"115 585 OFFCURVE",
"99 469 CURVE SMOOTH",
"49 118 LINE SMOOTH",
"47 105 OFFCURVE",
"46 93 OFFCURVE",
"46 83 CURVE SMOOTH",
"46 1 OFFCURVE",
"99 -12 OFFCURVE",
"170 -12 CURVE SMOOTH"
);
}
);
width = 412;
}
);
leftKerningGroup = O;
leftMetricsKey = O;
note = uni0404;
rightKerningGroup = C;
rightMetricsKey = C;
unicode = 0404;
},
{
color = 6;
glyphname = "Ereversed-cy";
lastChange = "2022-04-20 13:36:46 +0000";
layers = (
{
layerId = "9AA098C0-EDBC-463F-BC21-AFCD07A070D0";
paths = (
{
closed = 1;
nodes = (
"249 -12 OFFCURVE",
"310 4 OFFCURVE",
"326 118 CURVE SMOOTH",
"376 469 LINE SMOOTH",
"378 482 OFFCURVE",
"379 494 OFFCURVE",
"379 504 CURVE SMOOTH",
"379 588 OFFCURVE",
"325 599 OFFCURVE",
"253 599 CURVE SMOOTH",
"176 599 OFFCURVE",
"115 583 OFFCURVE",
"99 469 CURVE SMOOTH",
"86 381 LINE",
"102 381 LINE",
"115 473 LINE SMOOTH",
"129 574 OFFCURVE",
"181 584 OFFCURVE",
"252 584 CURVE SMOOTH",
"318 584 OFFCURVE",
"362 575 OFFCURVE",
"362 502 CURVE SMOOTH",
"362 492 OFFCURVE",
"361 480 OFFCURVE",
"359 467 CURVE SMOOTH",
"337 308 LINE",
"165 308 LINE",
"163 292 LINE",
"335 292 LINE",
"310 116 LINE SMOOTH",
"295 12 OFFCURVE",
"239 2 OFFCURVE",
"170 2 CURVE SMOOTH",
"112 2 OFFCURVE",
"62 10 OFFCURVE",
"62 84 CURVE SMOOTH",
"62 93 OFFCURVE",
"63 104 OFFCURVE",
"65 116 CURVE SMOOTH",
"75 189 LINE",
"59 189 LINE",
"49 118 LINE SMOOTH",
"47 105 OFFCURVE",
"46 93 OFFCURVE",
"46 82 CURVE SMOOTH",
"46 -1 OFFCURVE",
"98 -12 OFFCURVE",
"169 -12 CURVE SMOOTH"
);
}
);
width = 412;
}
);
leftMetricsKey = "=|C";
note = uni042D;
rightKerningGroup = O;
rightMetricsKey = O;
unicode = 042D;
},
{
color = 6;
glyphname = "Tshe-cy";
lastChange = "2022-04-20 13:36:46 +0000";
layers = (
{
layerId = "9AA098C0-EDBC-463F-BC21-AFCD07A070D0";
paths = (
{
closed = 1;
nodes = (
"94 0 LINE",
"145 323 LINE",
"159 380 OFFCURVE",
"197 421 OFFCURVE",
"270 421 CURVE SMOOTH",
"342 421 OFFCURVE",
"358 388 OFFCURVE",
"358 347 CURVE SMOOTH",
"358 331 OFFCURVE",
"356 314 OFFCURVE",
"353 297 CURVE SMOOTH",
"306 0 LINE",
"322 0 LINE",
"371 306 LINE SMOOTH",
"373 321 OFFCURVE",
"375 337 OFFCURVE",
"375 352 CURVE SMOOTH",
"375 397 OFFCURVE",
"357 437 OFFCURVE",
"272 437 CURVE SMOOTH",
"209 437 OFFCURVE",
"174 410 OFFCURVE",
"154 379 CURVE",
"185 575 LINE",
"297 575 LINE",
"300 591 LINE",
"61 591 LINE",
"58 575 LINE",
"169 575 LINE",
"78 0 LINE"
);
}
);
width = 430;
}
);
leftKerningGroup = T;
leftMetricsKey = T;
note = uni040B;
rightKerningGroup = n;
unicode = 040B;
},
{
color = 6;
glyphname = "Iu-cy";
lastChange = "2022-04-20 13:36:46 +0000";
layers = (
{
layerId = "9AA098C0-EDBC-463F-BC21-AFCD07A070D0";
paths = (
{
closed = 1;
nodes = (
"418 -12 OFFCURVE",
"482 2 OFFCURVE",
"500 118 CURVE SMOOTH",
"556 469 LINE SMOOTH",
"558 483 OFFCURVE",
"559 495 OFFCURVE",
"559 506 CURVE SMOOTH",
"559 587 OFFCURVE",
"504 599 OFFCURVE",
"436 599 CURVE SMOOTH",
"359 599 OFFCURVE",
"293 585 OFFCURVE",
"275 469 CURVE SMOOTH",
"219 118 LINE SMOOTH",
"217 104 OFFCURVE",
"216 92 OFFCURVE",
"216 81 CURVE SMOOTH",
"216 0 OFFCURVE",
"271 -12 OFFCURVE",
"338 -12 CURVE SMOOTH"
);
},
{
closed = 1;
nodes = (
"57 0 LINE",
"104 302 LINE",
"257 302 LINE",
"260 318 LINE",
"107 318 LINE",
"150 591 LINE",
"134 591 LINE",
"41 0 LINE"
);
},
{
closed = 1;
nodes = (
"281 4 OFFCURVE",
"233 14 OFFCURVE",
"233 85 CURVE SMOOTH",
"233 96 OFFCURVE",
"234 108 OFFCURVE",
"236 121 CURVE SMOOTH",
"290 466 LINE SMOOTH",
"307 570 OFFCURVE",
"364 583 OFFCURVE",
"433 583 CURVE SMOOTH",
"493 583 OFFCURVE",
"542 573 OFFCURVE",
"542 501 CURVE SMOOTH",
"542 490 OFFCURVE",
"541 479 OFFCURVE",
"539 466 CURVE SMOOTH",
"485 121 LINE SMOOTH",
"468 17 OFFCURVE",
"411 4 OFFCURVE",
"341 4 CURVE SMOOTH"
);
}
);
width = 592;
}
);
leftKerningGroup = H;
leftMetricsKey = H;
note = uni042E;
rightKerningGroup = O;
rightMetricsKey = O;
unicode = 042E;
},
{
color = 6;
glyphname = "Dje-cy";
lastChange = "2022-04-20 13:36:46 +0000";
layers = (
{
layerId = "9AA098C0-EDBC-463F-BC21-AFCD07A070D0";
paths = (
{
closed = 1;
nodes = (
"104 0 LINE",
"150 323 LINE",
"163 380 OFFCURVE",
"200 421 OFFCURVE",
"273 421 CURVE SMOOTH",
"346 421 OFFCURVE",
"363 386 OFFCURVE",
"363 344 CURVE SMOOTH",
"363 329 OFFCURVE",
"360 313 OFFCURVE",
"358 297 CURVE SMOOTH",
"336 142 LINE SMOOTH",
"324 55 OFFCURVE",
"300 16 OFFCURVE",
"199 16 CURVE",
"196 0 LINE",
"314 0 OFFCURVE",
"339 45 OFFCURVE",
"353 146 CURVE SMOOTH",
"375 306 LINE SMOOTH",
"377 321 OFFCURVE",
"379 336 OFFCURVE",
"379 351 CURVE SMOOTH",
"379 397 OFFCURVE",
"361 437 OFFCURVE",
"275 437 CURVE SMOOTH",
"212 437 OFFCURVE",
"177 410 OFFCURVE",
"158 379 CURVE",
"185 575 LINE",
"297 575 LINE",
"300 591 LINE",
"61 591 LINE",
"58 575 LINE",
"169 575 LINE",
"88 0 LINE"
);
}
);
width = 434;
}
);
leftKerningGroup = T;
leftMetricsKey = T;
note = uni0402;
rightKerningGroup = Softsign;
unicode = 0402;
},
{
glyphname = "Yat-cy";
lastChange = "2022-04-20 13:36:46 +0000";
layers = (
{
associatedMasterId = "9AA098C0-EDBC-463F-BC21-AFCD07A070D0";
background = {
components = (
{
name = hyphen;
transform = "{1.53882, 0, 0, 0.70397, -30, 313}";
}
);
paths = (
{
closed = 1;
nodes = (
"293 0 LINE SMOOTH",
"369 0 OFFCURVE",
"429 10 OFFCURVE",
"429 161 CURVE SMOOTH",
"429 324 LINE SMOOTH",
"429 423 OFFCURVE",
"367 436 OFFCURVE",
"318 436 CURVE SMOOTH",
"239 436 LINE",
"239 591 LINE",
"83 591 LINE",
"83 0 LINE"
);
},
{
closed = 1;
nodes = (
"239 341 LINE",
"256 341 LINE SMOOTH",
"272 341 OFFCURVE",
"273 330 OFFCURVE",
"273 291 CURVE SMOOTH",
"273 166 LINE SMOOTH",
"273 87 OFFCURVE",
"271 80 OFFCURVE",
"257 80 CURVE SMOOTH",
"239 80 LINE"
);
}
);
};
components = (
{
name = hyphen;
transform = "{1.53882, 0, 0, 0.70397, -30, 313}";
}
);
layerId = "CB6D0AD0-A775-4B9E-AA44-BD07B40E95F7";
name = Black;
paths = (
{
closed = 1;
nodes = (
"293 0 LINE SMOOTH",
"369 0 OFFCURVE",
"429 10 OFFCURVE",
"429 161 CURVE SMOOTH",
"429 324 LINE SMOOTH",
"429 423 OFFCURVE",
"367 436 OFFCURVE",
"318 436 CURVE SMOOTH",
"239 436 LINE",
"239 591 LINE",
"83 591 LINE",
"83 0 LINE"
);
},
{
closed = 1;
nodes = (
"239 341 LINE",
"256 341 LINE SMOOTH",
"272 341 OFFCURVE",
"273 330 OFFCURVE",
"273 291 CURVE SMOOTH",
"273 166 LINE SMOOTH",
"273 87 OFFCURVE",
"271 80 OFFCURVE",
"257 80 CURVE SMOOTH",
"239 80 LINE"
);
}
);
width = 454;
},
{
components = (
{
alignment = -1;
name = hyphen;
transform = "{1.39957, 0, 0.13932, 0.99129, -66, 278}";
}
);
layerId = "9AA098C0-EDBC-463F-BC21-AFCD07A070D0";
paths = (
{
closed = 1;
nodes = (
"168 0 LINE SMOOTH",
"281 0 OFFCURVE",
"297 69 OFFCURVE",
"306 131 CURVE SMOOTH",
"330 304 LINE SMOOTH",
"332 319 OFFCURVE",
"334 334 OFFCURVE",
"334 349 CURVE SMOOTH",
"334 395 OFFCURVE",
"316 435 OFFCURVE",
"230 435 CURVE SMOOTH",
"121 435 LINE",
"142 588 LINE",
"127 588 LINE",
"44 0 LINE"
);
},
{
closed = 1;
nodes = (
"59 0 LINE",
"143 591 LINE",
"127 591 LINE",
"43 0 LINE"
);
},
{
closed = 1;
nodes = (
"118 420 LINE",
"223 420 LINE SMOOTH",
"302 420 OFFCURVE",
"319 385 OFFCURVE",
"319 342 CURVE SMOOTH",
"319 329 OFFCURVE",
"317 315 OFFCURVE",
"315 301 CURVE SMOOTH",
"291 134 LINE SMOOTH",
"283 75 OFFCURVE",
"270 15 OFFCURVE",
"167 15 CURVE SMOOTH",
"62 15 LINE"
);
}
);
width = 381;
}
);
rightKerningGroup = Softsign;
rightMetricsKey = "Softsign-cy";
unicode = 0462;
},
{
color = 4;
glyphname = "Yusbig-cy";
lastChange = "2022-04-20 12:31:33 +0000";
layers = (
{
associatedMasterId = "9AA098C0-EDBC-463F-BC21-AFCD07A070D0";
background = {
paths = (
{
closed = 1;
nodes = (
"197 0 LINE",
"233 230 LINE SMOOTH",
"237 253 OFFCURVE",
"240 276 OFFCURVE",
"244 299 CURVE",
"246 299 LINE",
"247 0 LINE",
"414 0 LINE",
"414 299 LINE",
"416 299 LINE",
"420 274 OFFCURVE",
"423 249 OFFCURVE",
"427 224 CURVE SMOOTH",
"464 0 LINE",
"641 0 LINE",
"586 253 LINE SMOOTH",
"576 300 OFFCURVE",
"546 332 OFFCURVE",
"505 335 CURVE SMOOTH",
"456 339 LINE",
"632 484 LINE",
"632 591 LINE",
"22 591 LINE",
"22 484 LINE",
"199 338 LINE",
"157 336 LINE SMOOTH",
"113 334 OFFCURVE",
"85 298 OFFCURVE",
"75 253 CURVE SMOOTH",
"20 0 LINE"
);
},
{
closed = 1;
nodes = (
"204 484 LINE",
"450 484 LINE",
"327 395 LINE"
);
}
);
};
layerId = "D5BAC71A-8A72-4CB3-B9B8-4C5BCE115656";
name = Black;
paths = (
{
closed = 1;
nodes = (
"197 0 LINE",
"233 230 LINE SMOOTH",
"237 253 OFFCURVE",
"240 276 OFFCURVE",
"244 299 CURVE",
"246 299 LINE",
"247 0 LINE",
"414 0 LINE",
"414 299 LINE",
"416 299 LINE",
"420 274 OFFCURVE",
"423 249 OFFCURVE",
"427 224 CURVE SMOOTH",
"464 0 LINE",
"641 0 LINE",
"586 253 LINE SMOOTH",
"576 300 OFFCURVE",
"546 332 OFFCURVE",
"505 335 CURVE SMOOTH",
"456 339 LINE",
"632 484 LINE",
"632 591 LINE",
"22 591 LINE",
"22 484 LINE",
"199 338 LINE",
"157 336 LINE SMOOTH",
"113 334 OFFCURVE",
"85 298 OFFCURVE",
"75 253 CURVE SMOOTH",
"20 0 LINE"
);
},
{
closed = 1;
nodes = (
"204 484 LINE",
"450 484 LINE",
"327 395 LINE"
);
}
);
width = 661;
},
{
layerId = "9AA098C0-EDBC-463F-BC21-AFCD07A070D0";
paths = (
{
closed = 1;
nodes = (
"23 0 LINE",
"119 223 LINE SMOOTH",
"137 265 OFFCURVE",
"160 309 OFFCURVE",
"227 309 CURVE SMOOTH",
"327 309 LINE",
"283 0 LINE",
"299 0 LINE",
"343 309 LINE",
"444 309 LINE SMOOTH",
"511 309 OFFCURVE",
"522 265 OFFCURVE",
"528 223 CURVE SMOOTH",
"560 0 LINE",
"577 0 LINE",
"544 226 LINE SMOOTH",
"536 280 OFFCURVE",
"523 325 OFFCURVE",
"442 325 CURVE SMOOTH",
"352 325 LINE",
"680 576 LINE",
"683 591 LINE",
"76 591 LINE",
"73 576 LINE",
"323 325 LINE",
"223 325 LINE SMOOTH",
"152 325 OFFCURVE",
"124 274 OFFCURVE",
"103 226 CURVE SMOOTH",
"6 0 LINE"
);
},
{
closed = 1;
nodes = (
"98 575 LINE",
"654 575 LINE",
"339 332 LINE"
);
}
);
width = 662;
}
);
unicode = 046A;
},
{
color = 6;
glyphname = "be-cy";
lastChange = "2022-04-20 13:36:46 +0000";
layers = (
{
layerId = "9AA098C0-EDBC-463F-BC21-AFCD07A070D0";
paths = (
{
closed = 1;
nodes = (
"264 -10 OFFCURVE",
"278 62 OFFCURVE",
"287 124 CURVE SMOOTH",
"314 316 LINE SMOOTH",
"316 331 OFFCURVE",
"318 346 OFFCURVE",
"318 361 CURVE SMOOTH",
"318 408 OFFCURVE",
"299 450 OFFCURVE",
"211 450 CURVE SMOOTH",
"151 450 OFFCURVE",
"112 432 OFFCURVE",
"91 394 CURVE",
"97 393 LINE",
"111 493 LINE SMOOTH",
"123 576 OFFCURVE",
"165 593 OFFCURVE",
"225 593 CURVE SMOOTH",
"251 593 LINE SMOOTH",
"292 593 OFFCURVE",
"314 600 OFFCURVE",
"316 616 CURVE SMOOTH",
"318 626 LINE",
"312 626 LINE",
"305 613 OFFCURVE",
"285 609 OFFCURVE",
"261 609 CURVE SMOOTH",
"224 609 LINE SMOOTH",
"161 609 OFFCURVE",
"108 592 OFFCURVE",
"94 493 CURVE SMOOTH",
"42 124 LINE SMOOTH",
"40 110 OFFCURVE",
"38 95 OFFCURVE",
"38 81 CURVE SMOOTH",
"38 33 OFFCURVE",
"57 -10 OFFCURVE",
"146 -10 CURVE SMOOTH"
);
},
{
closed = 1;
nodes = (
"73 6 OFFCURVE",
"55 42 OFFCURVE",
"55 85 CURVE SMOOTH",
"55 99 OFFCURVE",
"57 113 OFFCURVE",
"59 127 CURVE SMOOTH",
"87 331 LINE SMOOTH",
"95 384 OFFCURVE",
"118 434 OFFCURVE",
"209 434 CURVE SMOOTH",
"285 434 OFFCURVE",
"302 398 OFFCURVE",
"302 355 CURVE SMOOTH",
"302 341 OFFCURVE",
"300 327 OFFCURVE",
"298 313 CURVE SMOOTH",
"272 127 LINE SMOOTH",
"263 68 OFFCURVE",
"249 6 OFFCURVE",
"149 6 CURVE SMOOTH"
);
}
);
width = 363;
}
);
leftKerningGroup = be;
note = uni0431;
rightKerningGroup = o;
rightMetricsKey = o;
unicode = 0431;
},
{
color = 6;
glyphname = "ve-cy";
lastChange = "2022-04-20 13:36:46 +0000";
layers = (
{
layerId = "9AA098C0-EDBC-463F-BC21-AFCD07A070D0";
paths = (
{
closed = 1;
nodes = (
"187 0 LINE SMOOTH",
"260 0 OFFCURVE",
"312 16 OFFCURVE",
"327 120 CURVE SMOOTH",
"333 163 LINE SMOOTH",
"334 170 OFFCURVE",
"335 176 OFFCURVE",
"335 183 CURVE SMOOTH",
"335 232 OFFCURVE",
"305 266 OFFCURVE",
"262 266 CURVE",
"310 275 OFFCURVE",
"350 317 OFFCURVE",
"359 381 CURVE SMOOTH",
"361 398 LINE SMOOTH",
"362 405 OFFCURVE",
"362 411 OFFCURVE",
"362 417 CURVE SMOOTH",
"362 475 OFFCURVE",
"321 495 OFFCURVE",
"266 495 CURVE SMOOTH",
"103 495 LINE",
"33 0 LINE"
);
},
{
closed = 1;
nodes = (
"85 257 LINE",
"216 257 LINE SMOOTH",
"273 257 OFFCURVE",
"317 242 OFFCURVE",
"317 177 CURVE SMOOTH",
"317 169 OFFCURVE",
"316 160 OFFCURVE",
"315 150 CURVE SMOOTH",
"312 125 LINE SMOOTH",
"299 31 OFFCURVE",
"256 16 OFFCURVE",
"186 16 CURVE SMOOTH",
"51 16 LINE"
);
},
{
closed = 1;
nodes = (
"117 479 LINE",
"264 479 LINE SMOOTH",
"312 479 OFFCURVE",
"346 457 OFFCURVE",
"346 414 CURVE SMOOTH",
"346 410 OFFCURVE",
"346 405 OFFCURVE",
"345 400 CURVE SMOOTH",
"343 380 LINE SMOOTH",
"333 311 OFFCURVE",
"289 273 OFFCURVE",
"214 273 CURVE SMOOTH",
"88 273 LINE"
);
}
);
width = 398;
}
);
leftKerningGroup = n;
note = uni0432;
rightKerningGroup = uni0432;
unicode = 0432;
},
{
color = 6;
glyphname = "ge-cy";
lastChange = "2022-04-20 13:36:46 +0000";
layers = (
{
layerId = "9AA098C0-EDBC-463F-BC21-AFCD07A070D0";
paths = (
{
closed = 1;
nodes = (
"49 0 LINE",
"117 479 LINE",
"314 479 LINE",
"316 495 LINE",
"103 495 LINE",
"33 0 LINE"
);
}
);
width = 291;
}
);
leftKerningGroup = n;
leftMetricsKey = n;
note = uni0433;
rightKerningGroup = ge;
unicode = 0433;
},
{
color = 6;
glyphname = "de-cy";
lastChange = "2022-04-20 13:36:46 +0000";
layers = (
{
layerId = "9AA098C0-EDBC-463F-BC21-AFCD07A070D0";
paths = (
{
closed = 1;
nodes = (
"-18 -99 LINE",
"-5 -5 LINE",
"369 -5 LINE",
"356 -99 LINE",
"371 -99 LINE",
"387 11 LINE",
"318 11 LINE",
"386 495 LINE",
"182 495 LINE",
"90 92 LINE SMOOTH",
"78 40 OFFCURVE",
"61 13 OFFCURVE",
"38 11 CURVE",
"-17 11 LINE",
"-33 -99 LINE"
);
},
{
closed = 1;
nodes = (
"94 32 OFFCURVE",
"104 80 OFFCURVE",
"106 92 CURVE SMOOTH",
"195 479 LINE",
"367 479 LINE",
"302 11 LINE",
"67 11 LINE"
);
}
);
width = 436;
}
);
leftKerningGroup = de;
note = uni0434;
rightKerningGroup = de;
unicode = 0434;
},
{
color = 6;
glyphname = "zhe-cy";
lastChange = "2022-04-20 13:36:46 +0000";
layers = (
{
layerId = "9AA098C0-EDBC-463F-BC21-AFCD07A070D0";
paths = (
{
closed = 1;
nodes = (
"-2 0 LINE",
"184 254 LINE",
"217 254 LINE",
"181 0 LINE",
"196 0 LINE",
"232 254 LINE",
"266 254 LINE",
"379 0 LINE",
"398 0 LINE",
"280 261 LINE",
"460 495 LINE",
"442 495 LINE",
"267 270 LINE",
"234 270 LINE",
"266 495 LINE",
"251 495 LINE",
"219 270 LINE",
"186 270 LINE",
"75 495 LINE",
"57 495 LINE",
"171 261 LINE",
"-21 0 LINE"
);
}
);
width = 447;
}
);
leftKerningGroup = zhe;
note = uni0436;
rightKerningGroup = k;
unicode = 0436;
},
{
color = 6;
glyphname = "ze-cy";
lastChange = "2022-04-20 13:36:46 +0000";
layers = (
{
layerId = "9AA098C0-EDBC-463F-BC21-AFCD07A070D0";
paths = (
{
closed = 1;
nodes = (
"259 -7 OFFCURVE",
"319 50 OFFCURVE",
"331 132 CURVE SMOOTH",
"332 139 OFFCURVE",
"333 146 OFFCURVE",
"333 154 CURVE SMOOTH",
"333 203 OFFCURVE",
"309 254 OFFCURVE",
"254 264 CURVE",
"290 271 OFFCURVE",
"357 315 OFFCURVE",
"357 408 CURVE SMOOTH",
"357 471 OFFCURVE",
"320 499 OFFCURVE",
"242 499 CURVE SMOOTH",
"153 499 OFFCURVE",
"99 447 OFFCURVE",
"88 364 CURVE SMOOTH",
"83 333 LINE",
"99 333 LINE",
"103 363 LINE SMOOTH",
"113 429 OFFCURVE",
"155 483 OFFCURVE",
"239 483 CURVE SMOOTH",
"312 483 OFFCURVE",
"340 452 OFFCURVE",
"340 404 CURVE SMOOTH",
"340 313 OFFCURVE",
"275 271 OFFCURVE",
"210 271 CURVE SMOOTH",
"146 271 LINE",
"143 255 LINE",
"207 255 LINE SMOOTH",
"276 255 OFFCURVE",
"316 211 OFFCURVE",
"316 152 CURVE SMOOTH",
"316 86 OFFCURVE",
"273 8 OFFCURVE",
"173 8 CURVE SMOOTH",
"113 8 OFFCURVE",
"64 40 OFFCURVE",
"64 111 CURVE SMOOTH",
"64 119 OFFCURVE",
"65 128 OFFCURVE",
"66 137 CURVE SMOOTH",
"69 158 LINE",
"53 158 LINE",
"50 137 LINE SMOOTH",
"48 126 OFFCURVE",
"48 116 OFFCURVE",
"48 106 CURVE SMOOTH",
"48 33 OFFCURVE",
"91 -7 OFFCURVE",
"170 -7 CURVE SMOOTH"
);
}
);
width = 396;
}
);
leftKerningGroup = ze;
note = uni0437;
rightKerningGroup = ze;
unicode = 0437;
},
{
color = 6;
glyphname = "ii-cy";
lastChange = "2022-04-20 13:36:46 +0000";
layers = (
{
anchors = (
{
name = bottomright;
position = "{314, 0}";
},
{
name = top;
position = "{230, 495}";
}
);
layerId = "9AA098C0-EDBC-463F-BC21-AFCD07A070D0";
paths = (
{
closed = 1;
nodes = (
"56 0 LINE",
"326 473 LINE",
"259 0 LINE",
"275 0 LINE",
"345 495 LINE",
"321 495 LINE",
"53 24 LINE",
"119 495 LINE",
"103 495 LINE",
"33 0 LINE"
);
}
);
width = 378;
}
);
leftKerningGroup = n;
leftMetricsKey = n;
note = uni0438;
rightKerningGroup = u;
rightMetricsKey = "=|n";
unicode = 0438;
},
{
color = 0;
glyphname = "ka-cy";
lastChange = "2022-04-20 13:36:46 +0000";
layers = (
{
layerId = "9AA098C0-EDBC-463F-BC21-AFCD07A070D0";
paths = (
{
closed = 1;
nodes = (
"49 0 LINE",
"76 190 LINE",
"83 218 OFFCURVE",
"110 261 OFFCURVE",
"140 304 CURVE",
"246 0 LINE",
"264 0 LINE",
"153 318 LINE",
"195 375 OFFCURVE",
"265 447 OFFCURVE",
"331 468 CURVE",
"333 484 LINE",
"271 470 OFFCURVE",
"163 384 OFFCURVE",
"83 241 CURVE",
"119 496 LINE",
"103 496 LINE",
"33 0 LINE"
);
}
);
width = 316;
}
);
leftKerningGroup = n;
leftMetricsKey = n;
note = uni043A;
rightKerningGroup = k;
unicode = 043A;
},
{
color = 6;
glyphname = "el-cy";
lastChange = "2022-04-20 13:36:46 +0000";
layers = (
{
layerId = "9AA098C0-EDBC-463F-BC21-AFCD07A070D0";
paths = (
{
closed = 1;
nodes = (
"42 0 OFFCURVE",
"56 70 OFFCURVE",
"61 92 CURVE SMOOTH",
"151 479 LINE",
"323 479 LINE",
"255 1 LINE",
"271 1 LINE",
"341 495 LINE",
"137 495 LINE",
"45 94 LINE SMOOTH",
"33 38 OFFCURVE",
"16 16 OFFCURVE",
"-11 16 CURVE",
"-13 0 LINE"
);
}
);
width = 374;
}
);
leftKerningGroup = el;
note = uni043B;
rightKerningGroup = u;
rightMetricsKey = "=|n";
unicode = 043B;
},
{
color = 6;
glyphname = "em-cy";
lastChange = "2022-04-20 13:36:46 +0000";
layers = (
{
layerId = "9AA098C0-EDBC-463F-BC21-AFCD07A070D0";
paths = (
{
closed = 1;
nodes = (
"49 0 LINE",
"112 447 LINE",
"198 0 LINE",
"215 0 LINE",
"427 447 LINE",
"364 0 LINE",
"380 0 LINE",
"450 495 LINE",
"433 495 LINE",
"211 24 LINE",
"120 495 LINE",
"103 495 LINE",
"33 0 LINE"
);
}
);
width = 483;
}
);
leftKerningGroup = n;
leftMetricsKey = n;
note = uni043C;
rightKerningGroup = u;
rightMetricsKey = "=|n";
unicode = 043C;
},
{
color = 6;
glyphname = "en-cy";
lastChange = "2022-04-20 13:36:46 +0000";
layers = (
{
layerId = "9AA098C0-EDBC-463F-BC21-AFCD07A070D0";
paths = (
{
closed = 1;
nodes = (
"49 0 LINE",
"85 255 LINE",
"299 255 LINE",
"263 0 LINE",
"279 0 LINE",
"349 495 LINE",
"333 495 LINE",
"301 271 LINE",
"87 271 LINE",
"119 495 LINE",
"103 495 LINE",
"33 0 LINE"
);
}
);
width = 382;
}
);
leftKerningGroup = n;
leftMetricsKey = n;
note = uni043D;
rightKerningGroup = u;
rightMetricsKey = "=|n";
unicode = 043D;
},
{
color = 6;
glyphname = "pe-cy";
lastChange = "2022-04-20 13:36:46 +0000";
layers = (
{
layerId = "9AA098C0-EDBC-463F-BC21-AFCD07A070D0";
paths = (
{
closed = 1;
nodes = (
"49 0 LINE",
"117 479 LINE",
"326 479 LINE",
"258 0 LINE",
"274 0 LINE",
"344 495 LINE",
"103 495 LINE",
"33 0 LINE"
);
}
);
width = 377;
}
);
leftKerningGroup = n;
leftMetricsKey = n;
note = uni043F;
rightKerningGroup = u;
rightMetricsKey = "=|n";
unicode = 043F;
},
{
color = 6;
glyphname = "te-cy";
lastChange = "2022-04-20 13:36:46 +0000";
layers = (
{
layerId = "9AA098C0-EDBC-463F-BC21-AFCD07A070D0";
paths = (
{
closed = 1;
nodes = (
"107 0 LINE",
"175 479 LINE",
"287 479 LINE",
"289 495 LINE",
"50 495 LINE",
"48 479 LINE",
"159 479 LINE",
"91 0 LINE"
);
}
);
width = 269;
}
);
leftKerningGroup = te;
note = uni0442;
rightKerningGroup = te;
unicode = 0442;
},
{
color = 6;
glyphname = "u-cy";
lastChange = "2022-04-20 15:01:05 +0000";
layers = (
{
anchors = (
{
name = bottom;
position = "{167, 0}";
},
{
name = top;
position = "{182, 495}";
}
);
layerId = "9AA098C0-EDBC-463F-BC21-AFCD07A070D0";
paths = (
{
closed = 1;
nodes = (
"61 -115 OFFCURVE",
"95 -70 OFFCURVE",
"122 -1 CURVE SMOOTH",
"313 495 LINE",
"297 495 LINE",
"117 27 LINE",
"70 495 LINE",
"54 495 LINE",
"105 -4 LINE",
"81 -82 OFFCURVE",
"34 -101 OFFCURVE",
"3 -101 CURVE SMOOTH",
"-20 -101 OFFCURVE",
"-42 -96 OFFCURVE",
"-45 -95 CURVE",
"-47 -109 LINE",
"-44 -110 OFFCURVE",
"-19 -115 OFFCURVE",
"1 -115 CURVE SMOOTH"
);
}
);
width = 297;
}
);
leftKerningGroup = y;
note = uni0443;
rightKerningGroup = v;
unicode = 0443;
},
{
color = 6;
glyphname = "ushort-cy";
lastChange = "2022-04-20 15:01:05 +0000";
layers = (
{
anchors = (
{
name = bottom;
position = "{167, 0}";
},
{
name = top;
position = "{195, 591}";
}
);
layerId = "9AA098C0-EDBC-463F-BC21-AFCD07A070D0";
paths = (
{
closed = 1;
nodes = (
"61 -115 OFFCURVE",
"95 -70 OFFCURVE",
"122 -1 CURVE SMOOTH",
"313 495 LINE",
"297 495 LINE",
"117 27 LINE",
"70 495 LINE",
"54 495 LINE",
"105 -4 LINE",
"81 -82 OFFCURVE",
"34 -101 OFFCURVE",
"3 -101 CURVE SMOOTH",
"-20 -101 OFFCURVE",
"-42 -96 OFFCURVE",
"-45 -95 CURVE",
"-47 -109 LINE",
"-44 -110 OFFCURVE",
"-19 -115 OFFCURVE",
"1 -115 CURVE SMOOTH"
);
},
{
closed = 1;
nodes = (
"246 546 OFFCURVE",
"283 585 OFFCURVE",
"288 623 CURVE",
"272 623 LINE",
"266 582 OFFCURVE",
"225 562 OFFCURVE",
"190 562 CURVE SMOOTH",
"159 562 OFFCURVE",
"136 576 OFFCURVE",
"136 612 CURVE SMOOTH",
"136 615 OFFCURVE",
"137 619 OFFCURVE",
"137 623 CURVE",
"121 623 LINE",
"116 586 OFFCURVE",
"129 546 OFFCURVE",
"187 546 CURVE SMOOTH"
);
}
);
width = 297;
}
);
leftKerningGroup = y;
widthMetricsKey = "u-cy";
note = uni045E;
rightKerningGroup = v;
rightMetricsKey = "u-cy";
unicode = 045E;
},
{
color = 6;
glyphname = "ef-cy";
lastChange = "2022-04-20 13:36:46 +0000";
layers = (
{
layerId = "9AA098C0-EDBC-463F-BC21-AFCD07A070D0";
paths = (
{
closed = 1;
nodes = (
"254 -116 LINE",
"276 37 LINE",
"287 11 OFFCURVE",
"315 -7 OFFCURVE",
"374 -7 CURVE SMOOTH",
"487 -7 OFFCURVE",
"507 62 OFFCURVE",
"516 124 CURVE SMOOTH",
"543 315 LINE SMOOTH",
"545 328 OFFCURVE",
"546 341 OFFCURVE",
"546 353 CURVE SMOOTH",
"546 402 OFFCURVE",
"527 446 OFFCURVE",
"441 446 CURVE SMOOTH",
"380 446 OFFCURVE",
"347 427 OFFCURVE",
"327 401 CURVE",
"354 591 LINE",
"338 591 LINE",
"311 398 LINE",
"298 426 OFFCURVE",
"271 446 OFFCURVE",
"213 446 CURVE SMOOTH",
"94 446 OFFCURVE",
"79 376 OFFCURVE",
"71 315 CURVE SMOOTH",
"44 124 LINE SMOOTH",
"42 109 OFFCURVE",
"40 94 OFFCURVE",
"40 79 CURVE SMOOTH",
"40 33 OFFCURVE",
"59 -7 OFFCURVE",
"146 -7 CURVE SMOOTH",
"207 -7 OFFCURVE",
"240 13 OFFCURVE",
"260 41 CURVE",
"238 -116 LINE"
);
},
{
closed = 1;
nodes = (
"72 9 OFFCURVE",
"56 44 OFFCURVE",
"56 84 CURVE SMOOTH",
"56 98 OFFCURVE",
"58 113 OFFCURVE",
"60 127 CURVE SMOOTH",
"86 312 LINE SMOOTH",
"94 365 OFFCURVE",
"103 430 OFFCURVE",
"211 430 CURVE SMOOTH",
"286 430 OFFCURVE",
"302 393 OFFCURVE",
"302 352 CURVE SMOOTH",
"302 339 OFFCURVE",
"300 325 OFFCURVE",
"298 312 CURVE SMOOTH",
"272 127 LINE SMOOTH",
"265 74 OFFCURVE",
"251 9 OFFCURVE",
"148 9 CURVE SMOOTH"
);
},
{
closed = 1;
nodes = (
"300 9 OFFCURVE",
"284 44 OFFCURVE",
"284 83 CURVE SMOOTH",
"284 97 OFFCURVE",
"286 112 OFFCURVE",
"288 126 CURVE SMOOTH",
"315 313 LINE SMOOTH",
"322 366 OFFCURVE",
"331 430 OFFCURVE",
"439 430 CURVE SMOOTH",
"514 430 OFFCURVE",
"530 393 OFFCURVE",
"530 352 CURVE SMOOTH",
"530 339 OFFCURVE",
"528 325 OFFCURVE",
"526 312 CURVE SMOOTH",
"500 127 LINE SMOOTH",
"493 74 OFFCURVE",
"479 9 OFFCURVE",
"376 9 CURVE SMOOTH"
);
}
);
width = 595;
}
);
leftKerningGroup = o;
leftMetricsKey = "=o+2";
note = uni0444;
rightKerningGroup = o;
rightMetricsKey = "=o+2";
unicode = 0444;
},
{
color = 6;
glyphname = "che-cy";
lastChange = "2022-04-20 13:36:46 +0000";
layers = (
{
layerId = "9AA098C0-EDBC-463F-BC21-AFCD07A070D0";
paths = (
{
closed = 1;
nodes = (
"245 0 LINE",
"315 495 LINE",
"299 495 LINE",
"266 265 LINE",
"253 208 OFFCURVE",
"227 167 OFFCURVE",
"154 167 CURVE SMOOTH",
"97 167 OFFCURVE",
"84 200 OFFCURVE",
"84 241 CURVE SMOOTH",
"84 257 OFFCURVE",
"86 274 OFFCURVE",
"88 291 CURVE SMOOTH",
"117 495 LINE",
"101 495 LINE",
"71 282 LINE SMOOTH",
"69 266 OFFCURVE",
"67 249 OFFCURVE",
"67 233 CURVE SMOOTH",
"67 189 OFFCURVE",
"82 151 OFFCURVE",
"151 151 CURVE SMOOTH",
"214 151 OFFCURVE",
"239 178 OFFCURVE",
"259 209 CURVE",
"229 0 LINE"
);
}
);
width = 348;
}
);
note = uni0447;
rightKerningGroup = u;
rightMetricsKey = "=|n";
unicode = 0447;
},
{
color = 6;
glyphname = "tse-cy";
lastChange = "2022-04-20 13:36:46 +0000";
layers = (
{
layerId = "9AA098C0-EDBC-463F-BC21-AFCD07A070D0";
paths = (
{
closed = 1;
nodes = (
"293 -65 LINE",
"304 16 LINE",
"280 16 LINE",
"347 495 LINE",
"331 495 LINE",
"264 16 LINE",
"52 16 LINE",
"119 495 LINE",
"103 495 LINE",
"34 0 LINE",
"287 0 LINE",
"278 -65 LINE"
);
}
);
width = 381;
}
);
leftKerningGroup = n;
leftMetricsKey = n;
note = uni0446;
rightKerningGroup = tse;
unicode = 0446;
},
{
color = 6;
glyphname = "sha-cy";
lastChange = "2022-04-20 13:36:46 +0000";
layers = (
{
layerId = "9AA098C0-EDBC-463F-BC21-AFCD07A070D0";
paths = (
{
closed = 1;
nodes = (
"441 0 LINE",
"511 495 LINE",
"495 495 LINE",
"427 16 LINE",
"245 16 LINE",
"313 495 LINE",
"297 495 LINE",
"229 16 LINE",
"51 16 LINE",
"119 495 LINE",
"103 495 LINE",
"33 0 LINE"
);
}
);
width = 544;
}
);
leftKerningGroup = n;
leftMetricsKey = n;
note = uni0448;
rightKerningGroup = u;
rightMetricsKey = "=|n";
unicode = 0448;
},
{
color = 6;
glyphname = "shcha-cy";
lastChange = "2022-04-20 13:36:46 +0000";
layers = (
{
layerId = "9AA098C0-EDBC-463F-BC21-AFCD07A070D0";
paths = (
{
closed = 1;
nodes = (
"457 -65 LINE",
"468 16 LINE",
"444 16 LINE",
"511 495 LINE",
"495 495 LINE",
"428 16 LINE",
"246 16 LINE",
"313 495 LINE",
"297 495 LINE",
"230 16 LINE",
"52 16 LINE",
"119 495 LINE",
"103 495 LINE",
"34 0 LINE",
"451 0 LINE",
"442 -65 LINE"
);
}
);
width = 545;
}
);
leftKerningGroup = n;
leftMetricsKey = n;
note = uni0449;
rightKerningGroup = tse;
rightMetricsKey = "tse-cy";
unicode = 0449;
},
{
color = 6;
glyphname = "dzhe-cy";
lastChange = "2022-04-20 13:36:46 +0000";
layers = (
{
layerId = "9AA098C0-EDBC-463F-BC21-AFCD07A070D0";
paths = (
{
closed = 1;
nodes = (
"274 0 LINE",
"344 495 LINE",
"328 495 LINE",
"260 16 LINE",
"51 16 LINE",
"119 495 LINE",
"103 495 LINE",
"33 0 LINE"
);
},
{
closed = 1;
nodes = (
"147 -113 LINE",
"164 5 LINE",
"148 5 LINE",
"131 -113 LINE"
);
}
);
width = 377;
}
);
leftKerningGroup = n;
leftMetricsKey = n;
note = uni045F;
rightKerningGroup = u;
rightMetricsKey = "=|n";
unicode = 045F;
},
{
color = 6;
glyphname = "softsign-cy";
lastChange = "2022-04-20 13:36:46 +0000";
layers = (
{
layerId = "9AA098C0-EDBC-463F-BC21-AFCD07A070D0";
paths = (
{
closed = 1;
nodes = (
"157 0 LINE SMOOTH",
"270 0 OFFCURVE",
"286 69 OFFCURVE",
"295 131 CURVE SMOOTH",
"305 207 LINE SMOOTH",
"307 222 OFFCURVE",
"309 237 OFFCURVE",
"309 252 CURVE SMOOTH",
"309 298 OFFCURVE",
"291 338 OFFCURVE",
"205 338 CURVE SMOOTH",
"96 338 LINE",
"118 495 LINE",
"103 495 LINE",
"33 0 LINE"
);
},
{
closed = 1;
nodes = (
"94 323 LINE",
"199 323 LINE SMOOTH",
"277 323 OFFCURVE",
"294 289 OFFCURVE",
"294 246 CURVE SMOOTH",
"294 233 OFFCURVE",
"292 218 OFFCURVE",
"290 204 CURVE SMOOTH",
"280 134 LINE SMOOTH",
"272 75 OFFCURVE",
"258 15 OFFCURVE",
"155 15 CURVE SMOOTH",
"50 15 LINE"
);
}
);
width = 351;
}
);
leftKerningGroup = n;
leftMetricsKey = n;
note = uni044C;
rightKerningGroup = soft;
unicode = 044C;
},
{
color = 6;
glyphname = "hardsign-cy";
lastChange = "2022-04-20 13:36:46 +0000";
layers = (
{
layerId = "9AA098C0-EDBC-463F-BC21-AFCD07A070D0";
paths = (
{
closed = 1;
nodes = (
"182 0 LINE SMOOTH",
"295 0 OFFCURVE",
"312 69 OFFCURVE",
"320 131 CURVE SMOOTH",
"330 207 LINE SMOOTH",
"332 222 OFFCURVE",
"334 237 OFFCURVE",
"334 251 CURVE SMOOTH",
"334 297 OFFCURVE",
"316 338 OFFCURVE",
"230 338 CURVE SMOOTH",
"121 338 LINE",
"143 495 LINE",
"128 495 LINE",
"58 0 LINE"
);
},
{
closed = 1;
nodes = (
"119 323 LINE",
"224 323 LINE SMOOTH",
"302 323 OFFCURVE",
"319 289 OFFCURVE",
"319 246 CURVE SMOOTH",
"319 233 OFFCURVE",
"317 218 OFFCURVE",
"315 204 CURVE SMOOTH",
"305 134 LINE SMOOTH",
"297 75 OFFCURVE",
"283 15 OFFCURVE",
"180 15 CURVE SMOOTH",
"75 15 LINE"
);
},
{
closed = 1;
nodes = (
"138 479 LINE",
"140 495 LINE",
"40 495 LINE",
"38 479 LINE"
);
}
);
width = 376;
}
);
leftKerningGroup = hardsign;
note = uni044A;
rightKerningGroup = soft;
rightMetricsKey = "softsign-cy";
unicode = 044A;
},
{
color = 6;
glyphname = "lje-cy";
lastChange = "2022-04-20 13:36:46 +0000";
layers = (
{
layerId = "9AA098C0-EDBC-463F-BC21-AFCD07A070D0";
paths = (
{
closed = 1;
nodes = (
"42 0 OFFCURVE",
"55 66 OFFCURVE",
"61 92 CURVE SMOOTH",
"149 479 LINE",
"303 479 LINE",
"298 495 LINE",
"137 495 LINE",
"45 92 LINE SMOOTH",
"32 36 OFFCURVE",
"16 15 OFFCURVE",
"-11 15 CURVE",
"-13 0 LINE"
);
},
{
closed = 1;
nodes = (
"294 323 LINE",
"399 323 LINE SMOOTH",
"477 323 OFFCURVE",
"494 289 OFFCURVE",
"494 246 CURVE SMOOTH",
"494 233 OFFCURVE",
"492 218 OFFCURVE",
"490 204 CURVE SMOOTH",
"480 134 LINE SMOOTH",
"472 75 OFFCURVE",
"458 15 OFFCURVE",
"355 15 CURVE SMOOTH",
"250 15 LINE"
);
},
{
closed = 1;
nodes = (
"357 0 LINE SMOOTH",
"470 0 OFFCURVE",
"486 69 OFFCURVE",
"495 131 CURVE SMOOTH",
"505 207 LINE SMOOTH",
"507 222 OFFCURVE",
"509 237 OFFCURVE",
"509 252 CURVE SMOOTH",
"509 298 OFFCURVE",
"491 338 OFFCURVE",
"405 338 CURVE SMOOTH",
"296 338 LINE",
"318 495 LINE",
"303 495 LINE",
"233 0 LINE"
);
},
{
closed = 1;
nodes = (
"313 479 LINE",
"315 495 LINE",
"215 495 LINE",
"213 479 LINE"
);
}
);
width = 551;
}
);
leftKerningGroup = el;
leftMetricsKey = "el-cy";
note = uni0459;
rightKerningGroup = soft;
rightMetricsKey = "softsign-cy";
unicode = 0459;
},
{
color = 0;
glyphname = "nje-cy";
lastChange = "2022-04-20 13:36:46 +0000";
layers = (
{
layerId = "9AA098C0-EDBC-463F-BC21-AFCD07A070D0";
paths = (
{
closed = 1;
nodes = (
"258 0 LINE SMOOTH",
"371 0 OFFCURVE",
"387 69 OFFCURVE",
"396 131 CURVE SMOOTH",
"406 207 LINE SMOOTH",
"408 222 OFFCURVE",
"410 237 OFFCURVE",
"410 252 CURVE SMOOTH",
"410 298 OFFCURVE",
"392 338 OFFCURVE",
"306 338 CURVE SMOOTH",
"197 338 LINE",
"219 495 LINE",
"204 495 LINE",
"134 0 LINE"
);
},
{
closed = 1;
nodes = (
"49 0 LINE",
"119 495 LINE",
"103 495 LINE",
"33 0 LINE"
);
},
{
closed = 1;
nodes = (
"176 243 LINE",
"179 259 LINE",
"77 259 LINE",
"74 243 LINE"
);
},
{
closed = 1;
nodes = (
"195 323 LINE",
"300 323 LINE SMOOTH",
"378 323 OFFCURVE",
"395 289 OFFCURVE",
"395 246 CURVE SMOOTH",
"395 233 OFFCURVE",
"393 218 OFFCURVE",
"391 204 CURVE SMOOTH",
"381 134 LINE SMOOTH",
"373 75 OFFCURVE",
"359 15 OFFCURVE",
"256 15 CURVE SMOOTH",
"151 15 LINE"
);
}
);
width = 452;
}
);
leftKerningGroup = n;
leftMetricsKey = n;
note = uni045A;
rightKerningGroup = soft;
rightMetricsKey = "softsign-cy";
unicode = 045A;
},
{
color = 6;
glyphname = "e-cy";
lastChange = "2022-04-20 13:36:46 +0000";
layers = (
{
layerId = "9AA098C0-EDBC-463F-BC21-AFCD07A070D0";
paths = (
{
closed = 1;
nodes = (
"261 -7 OFFCURVE",
"277 62 OFFCURVE",
"286 124 CURVE SMOOTH",
"292 167 LINE",
"276 167 LINE",
"270 127 LINE SMOOTH",
"262 68 OFFCURVE",
"248 9 OFFCURVE",
"150 9 CURVE SMOOTH",
"71 9 OFFCURVE",
"54 43 OFFCURVE",
"54 85 CURVE SMOOTH",
"54 98 OFFCURVE",
"56 113 OFFCURVE",
"58 127 CURVE SMOOTH",
"74 242 LINE",
"235 242 LINE",
"237 258 LINE",
"76 258 LINE",
"92 369 LINE SMOOTH",
"100 428 OFFCURVE",
"114 487 OFFCURVE",
"218 487 CURVE SMOOTH",
"292 487 OFFCURVE",
"308 454 OFFCURVE",
"308 412 CURVE SMOOTH",
"308 398 OFFCURVE",
"306 384 OFFCURVE",
"304 369 CURVE SMOOTH",
"298 328 LINE",
"314 328 LINE",
"320 372 LINE SMOOTH",
"322 387 OFFCURVE",
"324 402 OFFCURVE",
"324 417 CURVE SMOOTH",
"324 463 OFFCURVE",
"306 503 OFFCURVE",
"220 503 CURVE SMOOTH",
"101 503 OFFCURVE",
"85 433 OFFCURVE",
"76 372 CURVE SMOOTH",
"42 124 LINE SMOOTH",
"40 109 OFFCURVE",
"38 94 OFFCURVE",
"38 80 CURVE SMOOTH",
"38 33 OFFCURVE",
"57 -7 OFFCURVE",
"148 -7 CURVE SMOOTH"
);
}
);
width = 350;
}
);
leftKerningGroup = o;
leftMetricsKey = o;
note = uni0454;
rightKerningGroup = c;
rightMetricsKey = c;
unicode = 0454;
},
